SplineFontDB: 3.0
FontName: ConkyWindNESW
FullName: ConkyWindNESW
FamilyName: ConkyWindNESW
Weight: Medium
Copyright: Created by Nite, compass marks thanks to Stanko Metodiev
UComments: "2008-9-14: Created." 
Version: 001.000
ItalicAngle: 0
UnderlinePosition: -100
UnderlineWidth: 50
Ascent: 800
Descent: 200
LayerCount: 2
Layer: 0 0 "Back"  1
Layer: 1 0 "Fore"  0
XUID: [1021 663 79074289 14492708]
FSType: 0
OS2Version: 0
OS2_WeightWidthSlopeOnly: 0
OS2_UseTypoMetrics: 1
CreationTime: 1221418956
ModificationTime: 1222606658
PfmFamily: 17
TTFWeight: 500
TTFWidth: 5
LineGap: 90
VLineGap: 0
OS2TypoAscent: 0
OS2TypoAOffset: 1
OS2TypoDescent: 0
OS2TypoDOffset: 1
OS2TypoLinegap: 90
OS2WinAscent: 0
OS2WinAOffset: 1
OS2WinDescent: 0
OS2WinDOffset: 1
HheadAscent: 0
HheadAOffset: 1
HheadDescent: 0
HheadDOffset: 1
OS2Vendor: 'PfEd'
DEI: 91125
LangName: 1033 "" "" "" "" "" "Version 001.000" 
Encoding: ISO8859-1
UnicodeInterp: none
NameList: Adobe Glyph List
DisplaySize: -72
AntiAlias: 0
FitToEm: 1
WinInfo: 0 19 9
BeginPrivate: 4
BlueValues 15 [66 66 734 734]
StdHW 4 [40]
StdVW 4 [40]
BlueFuzz 1 1
EndPrivate
TeXData: 1 0 0 262144 131072 87381 769655 1048576 87381 783286 444596 497025 792723 393216 433062 380633 303038 157286 324010 404750 52429 2506097 1059062 262144
BeginChars: 256 71

StartChar: exclam
Encoding: 33 33 1
Width: 1000
VWidth: 0
Flags: MW
LayerCount: 2
Fore
SplineSet
382 192 m 9
 362 279 l 1
 307 214 l 17
 346 270 336 406 428 416 c 0
 431 416 434 416 436 416 c 0
 469 416 485 394 524 394 c 0
 530 394 537 395 544 396 c 0
 603 406 602 422 606 440 c 0
 607 443 607 446 607 449 c 0
 607 497 540 564 540 564 c 1
 506 477 l 1
 493 636 l 1
 649 605 l 1
 560 581 l 17
 560 581 643 515 643 453 c 0
 643 452 643 452 643 451 c 0
 642 405 609 348 532 348 c 0
 478 348 476 364 432 364 c 0
 399 364 382 211 382 192 c 9
743 666 m 1
 783 683 l 1
 766 643 l 1
 726 626 l 1
 743 666 l 1
234 157 m 1
 274 174 l 1
 257 134 l 1
 217 117 l 1
 234 157 l 1
234 643 m 1
 217 683 l 1
 257 666 l 1
 274 626 l 1
 234 643 l 1
743 134 m 1
 726 174 l 1
 766 157 l 1
 783 117 l 1
 743 134 l 1
650 714 m 0
 650 702 640 694 630 694 c 0
 618 694 610 704 610 714 c 0
 610 726 620 734 630 734 c 0
 642 734 650 724 650 714 c 0
390 86 m 0
 390 74 380 66 370 66 c 0
 358 66 350 76 350 86 c 0
 350 98 360 106 370 106 c 0
 382 106 390 96 390 86 c 0
834 270 m 0
 834 258 824 250 814 250 c 0
 802 250 794 260 794 270 c 0
 794 282 804 290 814 290 c 0
 826 290 834 280 834 270 c 0
206 530 m 0
 206 518 196 510 186 510 c 0
 174 510 166 520 166 530 c 0
 166 542 176 550 186 550 c 0
 198 550 206 540 206 530 c 0
370 734 m 0
 380 734 390 726 390 714 c 0
 390 704 382 694 370 694 c 0
 360 694 350 702 350 714 c 0
 350 724 358 734 370 734 c 0
630 106 m 0
 640 106 650 98 650 86 c 0
 650 76 642 66 630 66 c 0
 620 66 610 74 610 86 c 0
 610 96 618 106 630 106 c 0
814 550 m 0
 824 550 834 542 834 530 c 0
 834 520 826 510 814 510 c 0
 804 510 794 518 794 530 c 0
 794 540 802 550 814 550 c 0
186 290 m 0
 196 290 206 282 206 270 c 0
 206 260 198 250 186 250 c 0
 176 250 166 258 166 270 c 0
 166 280 174 290 186 290 c 0
498 109 m 0
 513 109 527 106 535 104 c 1
 535 81 l 1
 520 88 509 89 502 89 c 0
 492 89 483 87 483 78 c 0
 483 72 488 70 498 68 c 2
 509 65 l 2
 531 61 541 53 541 34 c 0
 541 10 526 0 500 0 c 0
 488 0 475 2 459 8 c 1
 459 30 l 1
 467 26 474 24 479 22 c 0
 488 20 495 20 497 20 c 0
 513 20 515 26 515 31 c 0
 515 38 510 41 499 43 c 2
 489 46 l 2
 471 50 459 58 459 76 c 0
 459 99 474 109 498 109 c 0
100 452 m 1
 126 452 l 1
 144 376 l 1
 162 452 l 1
 188 452 l 1
 206 376 l 1
 224 452 l 1
 250 452 l 1
 225 348 l 1
 194 348 l 1
 175 427 l 1
 156 348 l 1
 125 348 l 1
 100 452 l 1
453 800 m 5
 483 800 l 5
 521 728 l 5
 521 800 l 5
 547 800 l 5
 547 695 l 5
 517 695 l 5
 479 767 l 5
 479 695 l 5
 453 695 l 5
 453 800 l 5
825 452 m 1
 898 452 l 1
 898 432 l 1
 852 432 l 1
 852 412 l 1
 896 412 l 1
 896 392 l 1
 852 392 l 1
 852 368 l 1
 900 368 l 1
 900 348 l 1
 825 348 l 1
 825 452 l 1
EndSplineSet
Validated: 1
EndChar

StartChar: quotedbl
Encoding: 34 34 2
Width: 1000
VWidth: 0
Flags: MW
LayerCount: 2
Back
SplineSet
643 451 m 4
 645 513 559.521 580.828 559.521 580.828 c 13
 649.448 604.617 l 5
 493.31 635.694 l 5
 506 477 l 5
 540.096 563.546 l 5
 540.096 563.546 616 488 606 440 c 4
 602.306 422.27 603 406 544 396 c 4
 485.173 386.029 472 421 428 416 c 4
 336.389 405.59 346 270 307.289 214.413 c 13
 366.771 276.959 l 5
 382 192 l 21
 416 296 381 361 432 364 c 4
 486.358 367.197 487.429 342.214 541 344 c 4
 601 346 641.514 404.927 643 451 c 4
EndSplineSet
Fore
SplineSet
558 382 m 1
 537 376 519 373 504 373 c 0
 468 373 444 385 416 385 c 0
 379 385 360 334 350 300 c 0
 350 300 322 261 297 237 c 1
 323 348 363 423 414 423 c 0
 442 423 482 400 521 400 c 0
 548 400 576 411 598 447 c 1
 599 450 598 452 598 455 c 0
 598 489 536 541 536 541 c 1
 499 450 l 1
 488 642 l 1
 675 609 l 1
 579 577 l 17
 579 577 645 505 645 459 c 0
 645 455 645 451 644 448 c 0
 627 390 608 338 445 335 c 0
 396 334 394 230 382 196 c 1
 378 236 374 290 374 290 c 0
 387 322 386 367 429 369 c 0
 435 369 441 369 446 369 c 0
 461 369 473 369 484 369 c 0
 504 369 524 371 558 382 c 1
743 666 m 1
 783 683 l 1
 766 643 l 1
 726 626 l 1
 743 666 l 1
234 157 m 1
 274 174 l 1
 257 134 l 1
 217 117 l 1
 234 157 l 1
234 643 m 1
 217 683 l 1
 257 666 l 1
 274 626 l 1
 234 643 l 1
743 134 m 1
 726 174 l 1
 766 157 l 1
 783 117 l 1
 743 134 l 1
650 714 m 0
 650 702 640 694 630 694 c 0
 618 694 610 704 610 714 c 0
 610 726 620 734 630 734 c 0
 642 734 650 724 650 714 c 0
390 86 m 0
 390 74 380 66 370 66 c 0
 358 66 350 76 350 86 c 0
 350 98 360 106 370 106 c 0
 382 106 390 96 390 86 c 0
834 270 m 0
 834 258 824 250 814 250 c 0
 802 250 794 260 794 270 c 0
 794 282 804 290 814 290 c 0
 826 290 834 280 834 270 c 0
206 530 m 0
 206 518 196 510 186 510 c 0
 174 510 166 520 166 530 c 0
 166 542 176 550 186 550 c 0
 198 550 206 540 206 530 c 0
370 734 m 0
 380 734 390 726 390 714 c 0
 390 704 382 694 370 694 c 0
 360 694 350 702 350 714 c 0
 350 724 358 734 370 734 c 0
630 106 m 0
 640 106 650 98 650 86 c 0
 650 76 642 66 630 66 c 0
 620 66 610 74 610 86 c 0
 610 96 618 106 630 106 c 0
814 550 m 0
 824 550 834 542 834 530 c 0
 834 520 826 510 814 510 c 0
 804 510 794 518 794 530 c 0
 794 540 802 550 814 550 c 0
186 290 m 0
 196 290 206 282 206 270 c 0
 206 260 198 250 186 250 c 0
 176 250 166 258 166 270 c 0
 166 280 174 290 186 290 c 0
498 109 m 0
 513 109 527 106 535 104 c 1
 535 81 l 1
 520 88 509 89 502 89 c 0
 492 89 483 87 483 78 c 0
 483 72 488 70 498 68 c 2
 509 65 l 2
 531 61 541 53 541 34 c 0
 541 10 526 0 500 0 c 0
 488 0 475 2 459 8 c 1
 459 30 l 1
 467 26 474 24 479 22 c 0
 488 20 495 20 497 20 c 0
 513 20 515 26 515 31 c 0
 515 38 510 41 499 43 c 2
 489 46 l 2
 471 50 459 58 459 76 c 0
 459 99 474 109 498 109 c 0
100 452 m 1
 126 452 l 1
 144 376 l 1
 162 452 l 1
 188 452 l 1
 206 376 l 1
 224 452 l 1
 250 452 l 1
 225 348 l 1
 194 348 l 1
 175 427 l 1
 156 348 l 1
 125 348 l 1
 100 452 l 1
453 800 m 5
 483 800 l 5
 521 728 l 5
 521 800 l 5
 547 800 l 5
 547 695 l 5
 517 695 l 5
 479 767 l 5
 479 695 l 5
 453 695 l 5
 453 800 l 5
825 452 m 1
 898 452 l 1
 898 432 l 1
 852 432 l 1
 852 412 l 1
 896 412 l 1
 896 392 l 1
 852 392 l 1
 852 368 l 1
 900 368 l 1
 900 348 l 1
 825 348 l 1
 825 452 l 1
EndSplineSet
Validated: 1
EndChar

StartChar: numbersign
Encoding: 35 35 3
Width: 1000
VWidth: 0
Flags: MW
LayerCount: 2
Back
SplineSet
558 382 m 5x3e7c
 489 361 455.94 387.213 415 385 c 4
 378 383 362 334 352 300 c 4
 352 300 322 261 297 237 c 5
 323 348 361.953 426.322 414 423 c 4
 461 420 542 357 596 447 c 5
 609 479 535.938 541.021 535.938 541.021 c 5
 498.588 450.473 l 5
 487.553 641.553 l 5
 675 609 l 5
 578.688 577.192 l 21
 578.688 577.192 657 493 644 448 c 4
 627.198 389.839 607.57 338.318 445 335 c 4
 396 334 394 230 382 196 c 5
 378 236 374 290 374 290 c 4
 387 322 391.171 367.599 429 369 c 4
 483 371 497 362 558 382 c 5x3e7c
EndSplineSet
Fore
SplineSet
483 645 m 1
 587 640 l 1
 553 621 l 1
 688 603 l 1
 596 579 l 17
 596 579 670 507 670 464 c 0
 670 373 618 371 536 328 c 0
 512 315 503 295 503 270 c 0
 503 235 521 190 541 145 c 1
 530 163 483 231 483 231 c 1
 478 242 474 263 474 283 c 0
 474 305 479 327 494 336 c 0
 537 363 595 381 595 381 c 1
 595 381 479 371 458 319 c 0
 453 307 451 293 451 279 c 0
 451 237 468 192 468 183 c 9
 426 240 l 1
 395 175 l 17
 406 219 389 307 418 340 c 0
 446 372 516 380 579 406 c 17
 579 406 448 376 413 363 c 0
 394 356 368 305 357 230 c 1
 357 230 338 188 322 164 c 1
 328 238 323 357 397 395 c 0
 442 418 582 393 594 456 c 0
 594 457 594 459 594 460 c 0
 594 491 536 526 536 526 c 9
 502 436 l 1
 499 573 l 1
 477 541 l 1
 483 645 l 1
743 666 m 1
 783 683 l 1
 766 643 l 1
 726 626 l 1
 743 666 l 1
234 157 m 1
 274 174 l 1
 257 134 l 1
 217 117 l 1
 234 157 l 1
234 643 m 1
 217 683 l 1
 257 666 l 1
 274 626 l 1
 234 643 l 1
743 134 m 1
 726 174 l 1
 766 157 l 1
 783 117 l 1
 743 134 l 1
650 714 m 0
 650 702 640 694 630 694 c 0
 618 694 610 704 610 714 c 0
 610 726 620 734 630 734 c 0
 642 734 650 724 650 714 c 0
390 86 m 0
 390 74 380 66 370 66 c 0
 358 66 350 76 350 86 c 0
 350 98 360 106 370 106 c 0
 382 106 390 96 390 86 c 0
834 270 m 0
 834 258 824 250 814 250 c 0
 802 250 794 260 794 270 c 0
 794 282 804 290 814 290 c 0
 826 290 834 280 834 270 c 0
206 530 m 0
 206 518 196 510 186 510 c 0
 174 510 166 520 166 530 c 0
 166 542 176 550 186 550 c 0
 198 550 206 540 206 530 c 0
370 734 m 0
 380 734 390 726 390 714 c 0
 390 704 382 694 370 694 c 0
 360 694 350 702 350 714 c 0
 350 724 358 734 370 734 c 0
630 106 m 0
 640 106 650 98 650 86 c 0
 650 76 642 66 630 66 c 0
 620 66 610 74 610 86 c 0
 610 96 618 106 630 106 c 0
814 550 m 0
 824 550 834 542 834 530 c 0
 834 520 826 510 814 510 c 0
 804 510 794 518 794 530 c 0
 794 540 802 550 814 550 c 0
186 290 m 0
 196 290 206 282 206 270 c 0
 206 260 198 250 186 250 c 0
 176 250 166 258 166 270 c 0
 166 280 174 290 186 290 c 0
498 109 m 0
 513 109 527 106 535 104 c 1
 535 81 l 1
 520 88 509 89 502 89 c 0
 492 89 483 87 483 78 c 0
 483 72 488 70 498 68 c 2
 509 65 l 2
 531 61 541 53 541 34 c 0
 541 10 526 0 500 0 c 0
 488 0 475 2 459 8 c 1
 459 30 l 1
 467 26 474 24 479 22 c 0
 488 20 495 20 497 20 c 0
 513 20 515 26 515 31 c 0
 515 38 510 41 499 43 c 2
 489 46 l 2
 471 50 459 58 459 76 c 0
 459 99 474 109 498 109 c 0
100 452 m 1
 126 452 l 1
 144 376 l 1
 162 452 l 1
 188 452 l 1
 206 376 l 1
 224 452 l 1
 250 452 l 1
 225 348 l 1
 194 348 l 1
 175 427 l 1
 156 348 l 1
 125 348 l 1
 100 452 l 1
453 800 m 5
 483 800 l 5
 521 728 l 5
 521 800 l 5
 547 800 l 5
 547 695 l 5
 517 695 l 5
 479 767 l 5
 479 695 l 5
 453 695 l 5
 453 800 l 5
825 452 m 1
 898 452 l 1
 898 432 l 1
 852 432 l 1
 852 412 l 1
 896 412 l 1
 896 392 l 1
 852 392 l 1
 852 368 l 1
 900 368 l 1
 900 348 l 1
 825 348 l 1
 825 452 l 1
EndSplineSet
Validated: 1
EndChar

StartChar: dollar
Encoding: 36 36 4
Width: 1000
VWidth: 0
Flags: MW
LayerCount: 2
Back
SplineSet
483 645 m 5x3f37
 586.827 640.011 l 5
 552.52 621.356 l 5
 688.204 603.287 l 5
 595.536 579.338 l 21
 595.536 579.338 673.422 508.486 670 464 c 4
 663 373 618.43 371.384 536 328 c 4
 479 298 506 223 541.171 144.923 c 5
 530 163 483 231 483 231 c 5
 473 255 466.22 318.557 494 336 c 4
 537 363 595 381 595 381 c 5
 595 381 479.43 370.737 458 319 c 4
 438.101 270.958 468.084 194.898 468 183 c 13
 426 240 l 5
 395.202 174.692 l 21
 406 219 389 307 418 340 c 4
 446.021 371.887 516 380 579 406 c 21
 579 406 448 376 413 363 c 4
 394.322 356.062 368 305 357 230 c 5
 357 230 338 188 322 164 c 5
 328 238 323 357 397 395 c 4
 441.877 418.045 582.214 393.142 594 456 c 4
 600 488 535.953 525.954 535.953 525.954 c 13
 502.007 436.463 l 5
 498.895 573.311 l 5
 476.599 541.25 l 5
 483 645 l 5x3f37
EndSplineSet
Fore
SplineSet
483 647 m 1
 651 655 l 1
 584 614 l 1
 734 607 l 1
 631 570 l 17
 631 570 675 515 681 458 c 0
 681 455 682 452 682 449 c 0
 682 372 577 326 554 295 c 0
 537 273 530 259 530 244 c 0
 530 225 540 203 553 156 c 1
 515 204 505 224 505 224 c 1
 503 237 502 247 502 255 c 0
 502 273 507 283 522 302 c 0
 545 332 579 347 579 347 c 1
 579 347 521 326 505 310 c 0
 483 287 475 268 475 234 c 0
 475 216 477 195 480 167 c 1
 454 223 447 248 447 248 c 1
 447 321 525 343 525 343 c 1
 525 343 435 343 427 259 c 1
 427 259 401 225 371 171 c 1
 385 252 410 332 461 350 c 0
 491 361 554 371 554 371 c 1
 554 371 484 369 447 358 c 0
 403 345 380 286 360 244 c 1
 360 244 334 218 297 165 c 1
 326 248 362 343 420 374 c 0
 455 393 594 386 594 434 c 0
 594 471 544 491 544 491 c 9
 496 394 l 1
 505 543 l 1
 457 481 l 1
 483 647 l 1
743 666 m 1
 783 683 l 1
 766 643 l 1
 726 626 l 1
 743 666 l 1
234 157 m 1
 274 174 l 1
 257 134 l 1
 217 117 l 1
 234 157 l 1
234 643 m 1
 217 683 l 1
 257 666 l 1
 274 626 l 1
 234 643 l 1
743 134 m 1
 726 174 l 1
 766 157 l 1
 783 117 l 1
 743 134 l 1
650 714 m 0
 650 702 640 694 630 694 c 0
 618 694 610 704 610 714 c 0
 610 726 620 734 630 734 c 0
 642 734 650 724 650 714 c 0
390 86 m 0
 390 74 380 66 370 66 c 0
 358 66 350 76 350 86 c 0
 350 98 360 106 370 106 c 0
 382 106 390 96 390 86 c 0
834 270 m 0
 834 258 824 250 814 250 c 0
 802 250 794 260 794 270 c 0
 794 282 804 290 814 290 c 0
 826 290 834 280 834 270 c 0
206 530 m 0
 206 518 196 510 186 510 c 0
 174 510 166 520 166 530 c 0
 166 542 176 550 186 550 c 0
 198 550 206 540 206 530 c 0
370 734 m 0
 380 734 390 726 390 714 c 0
 390 704 382 694 370 694 c 0
 360 694 350 702 350 714 c 0
 350 724 358 734 370 734 c 0
630 106 m 0
 640 106 650 98 650 86 c 0
 650 76 642 66 630 66 c 0
 620 66 610 74 610 86 c 0
 610 96 618 106 630 106 c 0
814 550 m 0
 824 550 834 542 834 530 c 0
 834 520 826 510 814 510 c 0
 804 510 794 518 794 530 c 0
 794 540 802 550 814 550 c 0
186 290 m 0
 196 290 206 282 206 270 c 0
 206 260 198 250 186 250 c 0
 176 250 166 258 166 270 c 0
 166 280 174 290 186 290 c 0
498 109 m 0
 513 109 527 106 535 104 c 1
 535 81 l 1
 520 88 509 89 502 89 c 0
 492 89 483 87 483 78 c 0
 483 72 488 70 498 68 c 2
 509 65 l 2
 531 61 541 53 541 34 c 0
 541 10 526 0 500 0 c 0
 488 0 475 2 459 8 c 1
 459 30 l 1
 467 26 474 24 479 22 c 0
 488 20 495 20 497 20 c 0
 513 20 515 26 515 31 c 0
 515 38 510 41 499 43 c 2
 489 46 l 2
 471 50 459 58 459 76 c 0
 459 99 474 109 498 109 c 0
100 452 m 1
 126 452 l 1
 144 376 l 1
 162 452 l 1
 188 452 l 1
 206 376 l 1
 224 452 l 1
 250 452 l 1
 225 348 l 1
 194 348 l 1
 175 427 l 1
 156 348 l 1
 125 348 l 1
 100 452 l 1
453 800 m 5
 483 800 l 5
 521 728 l 5
 521 800 l 5
 547 800 l 5
 547 695 l 5
 517 695 l 5
 479 767 l 5
 479 695 l 5
 453 695 l 5
 453 800 l 5
825 452 m 1
 898 452 l 1
 898 432 l 1
 852 432 l 1
 852 412 l 1
 896 412 l 1
 896 392 l 1
 852 392 l 1
 852 368 l 1
 900 368 l 1
 900 348 l 1
 825 348 l 1
 825 452 l 1
EndSplineSet
Validated: 1
EndChar

StartChar: percent
Encoding: 37 37 5
Width: 1000
VWidth: 0
Flags: MW
LayerCount: 2
Fore
SplineSet
743 666 m 1
 783 683 l 1
 766 643 l 1
 726 626 l 1
 743 666 l 1
234 157 m 1
 274 174 l 1
 257 134 l 1
 217 117 l 1
 234 157 l 1
234 643 m 1
 217 683 l 1
 257 666 l 1
 274 626 l 1
 234 643 l 1
743 134 m 1
 726 174 l 1
 766 157 l 1
 783 117 l 1
 743 134 l 1
650 714 m 0
 650 702 640 694 630 694 c 0
 618 694 610 704 610 714 c 0
 610 726 620 734 630 734 c 0
 642 734 650 724 650 714 c 0
390 86 m 0
 390 74 380 66 370 66 c 0
 358 66 350 76 350 86 c 0
 350 98 360 106 370 106 c 0
 382 106 390 96 390 86 c 0
834 270 m 0
 834 258 824 250 814 250 c 0
 802 250 794 260 794 270 c 0
 794 282 804 290 814 290 c 0
 826 290 834 280 834 270 c 0
206 530 m 0
 206 518 196 510 186 510 c 0
 174 510 166 520 166 530 c 0
 166 542 176 550 186 550 c 0
 198 550 206 540 206 530 c 0
370 734 m 0
 380 734 390 726 390 714 c 0
 390 704 382 694 370 694 c 0
 360 694 350 702 350 714 c 0
 350 724 358 734 370 734 c 0
630 106 m 0
 640 106 650 98 650 86 c 0
 650 76 642 66 630 66 c 0
 620 66 610 74 610 86 c 0
 610 96 618 106 630 106 c 0
814 550 m 0
 824 550 834 542 834 530 c 0
 834 520 826 510 814 510 c 0
 804 510 794 518 794 530 c 0
 794 540 802 550 814 550 c 0
186 290 m 0
 196 290 206 282 206 270 c 0
 206 260 198 250 186 250 c 0
 176 250 166 258 166 270 c 0
 166 280 174 290 186 290 c 0
498 109 m 0
 513 109 527 106 535 104 c 1
 535 81 l 1
 520 88 509 89 502 89 c 0
 492 89 483 87 483 78 c 0
 483 72 488 70 498 68 c 2
 509 65 l 2
 531 61 541 53 541 34 c 0
 541 10 526 0 500 0 c 0
 488 0 475 2 459 8 c 1
 459 30 l 1
 467 26 474 24 479 22 c 0
 488 20 495 20 497 20 c 0
 513 20 515 26 515 31 c 0
 515 38 510 41 499 43 c 2
 489 46 l 2
 471 50 459 58 459 76 c 0
 459 99 474 109 498 109 c 0
100 452 m 1
 126 452 l 1
 144 376 l 1
 162 452 l 1
 188 452 l 1
 206 376 l 1
 224 452 l 1
 250 452 l 1
 225 348 l 1
 194 348 l 1
 175 427 l 1
 156 348 l 1
 125 348 l 1
 100 452 l 1
453 800 m 5
 483 800 l 5
 521 728 l 5
 521 800 l 5
 547 800 l 5
 547 695 l 5
 517 695 l 5
 479 767 l 5
 479 695 l 5
 453 695 l 5
 453 800 l 5
825 452 m 1
 898 452 l 1
 898 432 l 1
 852 432 l 1
 852 412 l 1
 896 412 l 1
 896 392 l 1
 852 392 l 1
 852 368 l 1
 900 368 l 1
 900 348 l 1
 825 348 l 1
 825 452 l 1
EndSplineSet
Validated: 1
EndChar

StartChar: hyphen
Encoding: 45 45 6
Width: 1000
VWidth: 0
Flags: MW
LayerCount: 2
Fore
SplineSet
305 492 m 1
 352 492 l 1
 412 380 l 1
 412 492 l 1
 452 492 l 1
 452 329 l 1
 405 329 l 1
 345 441 l 1
 345 329 l 1
 305 329 l 1
 305 492 l 1
531 496 m 1
 555 496 l 1
 498 312 l 1
 474 312 l 1
 531 496 l 1
674 358 m 1
 608 358 l 1
 598 329 l 1
 555 329 l 1
 616 492 l 1
 666 492 l 1
 727 329 l 1
 684 329 l 1
 674 358 l 1
619 389 m 1
 663 389 l 1
 641 454 l 1
 619 389 l 1
743 666 m 1
 783 683 l 1
 766 643 l 1
 726 626 l 1
 743 666 l 1
234 157 m 1
 274 174 l 1
 257 134 l 1
 217 117 l 1
 234 157 l 1
234 643 m 1
 217 683 l 1
 257 666 l 1
 274 626 l 1
 234 643 l 1
743 134 m 1
 726 174 l 1
 766 157 l 1
 783 117 l 1
 743 134 l 1
650 714 m 0
 650 702 640 694 630 694 c 0
 618 694 610 704 610 714 c 0
 610 726 620 734 630 734 c 0
 642 734 650 724 650 714 c 0
390 86 m 0
 390 74 380 66 370 66 c 0
 358 66 350 76 350 86 c 0
 350 98 360 106 370 106 c 0
 382 106 390 96 390 86 c 0
834 270 m 0
 834 258 824 250 814 250 c 0
 802 250 794 260 794 270 c 0
 794 282 804 290 814 290 c 0
 826 290 834 280 834 270 c 0
206 530 m 0
 206 518 196 510 186 510 c 0
 174 510 166 520 166 530 c 0
 166 542 176 550 186 550 c 0
 198 550 206 540 206 530 c 0
370 734 m 0
 380 734 390 726 390 714 c 0
 390 704 382 694 370 694 c 0
 360 694 350 702 350 714 c 0
 350 724 358 734 370 734 c 0
630 106 m 0
 640 106 650 98 650 86 c 0
 650 76 642 66 630 66 c 0
 620 66 610 74 610 86 c 0
 610 96 618 106 630 106 c 0
814 550 m 0
 824 550 834 542 834 530 c 0
 834 520 826 510 814 510 c 0
 804 510 794 518 794 530 c 0
 794 540 802 550 814 550 c 0
186 290 m 0
 196 290 206 282 206 270 c 0
 206 260 198 250 186 250 c 0
 176 250 166 258 166 270 c 0
 166 280 174 290 186 290 c 0
498 109 m 0
 513 109 527 106 535 104 c 1
 535 81 l 1
 520 88 509 89 502 89 c 0
 492 89 483 87 483 78 c 0
 483 72 488 70 498 68 c 2
 509 65 l 2
 531 61 541 53 541 34 c 0
 541 10 526 0 500 0 c 0
 488 0 475 2 459 8 c 1
 459 30 l 1
 467 26 474 24 479 22 c 0
 488 20 495 20 497 20 c 0
 513 20 515 26 515 31 c 0
 515 38 510 41 499 43 c 2
 489 46 l 2
 471 50 459 58 459 76 c 0
 459 99 474 109 498 109 c 0
100 452 m 1
 126 452 l 1
 144 376 l 1
 162 452 l 1
 188 452 l 1
 206 376 l 1
 224 452 l 1
 250 452 l 1
 225 348 l 1
 194 348 l 1
 175 427 l 1
 156 348 l 1
 125 348 l 1
 100 452 l 1
453 800 m 5
 483 800 l 5
 521 728 l 5
 521 800 l 5
 547 800 l 5
 547 695 l 5
 517 695 l 5
 479 767 l 5
 479 695 l 5
 453 695 l 5
 453 800 l 5
825 452 m 1
 898 452 l 1
 898 432 l 1
 852 432 l 1
 852 412 l 1
 896 412 l 1
 896 392 l 1
 852 392 l 1
 852 368 l 1
 900 368 l 1
 900 348 l 1
 825 348 l 1
 825 452 l 1
EndSplineSet
Validated: 1
EndChar

StartChar: one
Encoding: 49 49 7
Width: 1000
VWidth: 0
Flags: MW
LayerCount: 2
Fore
SplineSet
487 520 m 21
 404 478 l 5
 500 605 l 5
 596 478 l 5
 513 520 l 29
 516 457 515 421 520 359 c 4
 524 307 520 284 539 195 c 13
 500 272 l 5
 461 195 l 21
 480 284 476 307 480 359 c 4
 485 421 484 457 487 520 c 21
743 666 m 1
 783 683 l 1
 766 643 l 1
 726 626 l 1
 743 666 l 1
234 157 m 1
 274 174 l 1
 257 134 l 1
 217 117 l 1
 234 157 l 1
234 643 m 1
 217 683 l 1
 257 666 l 1
 274 626 l 1
 234 643 l 1
743 134 m 1
 726 174 l 1
 766 157 l 1
 783 117 l 1
 743 134 l 1
650 714 m 0
 650 702 640 694 630 694 c 0
 618 694 610 704 610 714 c 0
 610 726 620 734 630 734 c 0
 642 734 650 724 650 714 c 0
390 86 m 0
 390 74 380 66 370 66 c 0
 358 66 350 76 350 86 c 0
 350 98 360 106 370 106 c 0
 382 106 390 96 390 86 c 0
834 270 m 0
 834 258 824 250 814 250 c 0
 802 250 794 260 794 270 c 0
 794 282 804 290 814 290 c 0
 826 290 834 280 834 270 c 0
206 530 m 0
 206 518 196 510 186 510 c 0
 174 510 166 520 166 530 c 0
 166 542 176 550 186 550 c 0
 198 550 206 540 206 530 c 0
370 734 m 0
 380 734 390 726 390 714 c 0
 390 704 382 694 370 694 c 0
 360 694 350 702 350 714 c 0
 350 724 358 734 370 734 c 0
630 106 m 0
 640 106 650 98 650 86 c 0
 650 76 642 66 630 66 c 0
 620 66 610 74 610 86 c 0
 610 96 618 106 630 106 c 0
814 550 m 0
 824 550 834 542 834 530 c 0
 834 520 826 510 814 510 c 0
 804 510 794 518 794 530 c 0
 794 540 802 550 814 550 c 0
186 290 m 0
 196 290 206 282 206 270 c 0
 206 260 198 250 186 250 c 0
 176 250 166 258 166 270 c 0
 166 280 174 290 186 290 c 0
498 109 m 0
 513 109 527 106 535 104 c 1
 535 81 l 1
 520 88 509 89 502 89 c 0
 492 89 483 87 483 78 c 0
 483 72 488 70 498 68 c 2
 509 65 l 2
 531 61 541 53 541 34 c 0
 541 10 526 0 500 0 c 0
 488 0 475 2 459 8 c 1
 459 30 l 1
 467 26 474 24 479 22 c 0
 488 20 495 20 497 20 c 0
 513 20 515 26 515 31 c 0
 515 38 510 41 499 43 c 2
 489 46 l 2
 471 50 459 58 459 76 c 0
 459 99 474 109 498 109 c 0
100 452 m 1
 126 452 l 1
 144 376 l 1
 162 452 l 1
 188 452 l 1
 206 376 l 1
 224 452 l 1
 250 452 l 1
 225 348 l 1
 194 348 l 1
 175 427 l 1
 156 348 l 1
 125 348 l 1
 100 452 l 1
453 800 m 5
 483 800 l 5
 521 728 l 5
 521 800 l 5
 547 800 l 5
 547 695 l 5
 517 695 l 5
 479 767 l 5
 479 695 l 5
 453 695 l 5
 453 800 l 5
825 452 m 1
 898 452 l 1
 898 432 l 1
 852 432 l 1
 852 412 l 1
 896 412 l 1
 896 392 l 1
 852 392 l 1
 852 368 l 1
 900 368 l 1
 900 348 l 1
 825 348 l 1
 825 452 l 1
EndSplineSet
Validated: 1
EndChar

StartChar: two
Encoding: 50 50 8
Width: 1000
VWidth: 0
Flags: MW
LayerCount: 2
Fore
SplineSet
534 516 m 17
 441 510 l 1
 578 589 l 1
 619 435 l 1
 558 506 l 25
 537 447 522 414 503 354 c 0
 487 305 474 285 458 196 c 9
 451 282 l 1
 386 226 l 17
 437 300 442 323 466 370 c 0
 494 425 507 459 534 516 c 17
743 666 m 1
 783 683 l 1
 766 643 l 1
 726 626 l 1
 743 666 l 1
234 157 m 1
 274 174 l 1
 257 134 l 1
 217 117 l 1
 234 157 l 1
234 643 m 1
 217 683 l 1
 257 666 l 1
 274 626 l 1
 234 643 l 1
743 134 m 1
 726 174 l 1
 766 157 l 1
 783 117 l 1
 743 134 l 1
650 714 m 0
 650 702 640 694 630 694 c 0
 618 694 610 704 610 714 c 0
 610 726 620 734 630 734 c 0
 642 734 650 724 650 714 c 0
390 86 m 0
 390 74 380 66 370 66 c 0
 358 66 350 76 350 86 c 0
 350 98 360 106 370 106 c 0
 382 106 390 96 390 86 c 0
834 270 m 0
 834 258 824 250 814 250 c 0
 802 250 794 260 794 270 c 0
 794 282 804 290 814 290 c 0
 826 290 834 280 834 270 c 0
206 530 m 0
 206 518 196 510 186 510 c 0
 174 510 166 520 166 530 c 0
 166 542 176 550 186 550 c 0
 198 550 206 540 206 530 c 0
370 734 m 0
 380 734 390 726 390 714 c 0
 390 704 382 694 370 694 c 0
 360 694 350 702 350 714 c 0
 350 724 358 734 370 734 c 0
630 106 m 0
 640 106 650 98 650 86 c 0
 650 76 642 66 630 66 c 0
 620 66 610 74 610 86 c 0
 610 96 618 106 630 106 c 0
814 550 m 0
 824 550 834 542 834 530 c 0
 834 520 826 510 814 510 c 0
 804 510 794 518 794 530 c 0
 794 540 802 550 814 550 c 0
186 290 m 0
 196 290 206 282 206 270 c 0
 206 260 198 250 186 250 c 0
 176 250 166 258 166 270 c 0
 166 280 174 290 186 290 c 0
498 109 m 0
 513 109 527 106 535 104 c 1
 535 81 l 1
 520 88 509 89 502 89 c 0
 492 89 483 87 483 78 c 0
 483 72 488 70 498 68 c 2
 509 65 l 2
 531 61 541 53 541 34 c 0
 541 10 526 0 500 0 c 0
 488 0 475 2 459 8 c 1
 459 30 l 1
 467 26 474 24 479 22 c 0
 488 20 495 20 497 20 c 0
 513 20 515 26 515 31 c 0
 515 38 510 41 499 43 c 2
 489 46 l 2
 471 50 459 58 459 76 c 0
 459 99 474 109 498 109 c 0
100 452 m 1
 126 452 l 1
 144 376 l 1
 162 452 l 1
 188 452 l 1
 206 376 l 1
 224 452 l 1
 250 452 l 1
 225 348 l 1
 194 348 l 1
 175 427 l 1
 156 348 l 1
 125 348 l 1
 100 452 l 1
453 800 m 5
 483 800 l 5
 521 728 l 5
 521 800 l 5
 547 800 l 5
 547 695 l 5
 517 695 l 5
 479 767 l 5
 479 695 l 5
 453 695 l 5
 453 800 l 5
825 452 m 1
 898 452 l 1
 898 432 l 1
 852 432 l 1
 852 412 l 1
 896 412 l 1
 896 392 l 1
 852 392 l 1
 852 368 l 1
 900 368 l 1
 900 348 l 1
 825 348 l 1
 825 452 l 1
EndSplineSet
Validated: 1
EndChar

StartChar: three
Encoding: 51 51 9
Width: 1000
VWidth: 0
Flags: MW
LayerCount: 2
Fore
SplineSet
576 494 m 17
 487 523 l 1
 645 545 l 1
 623 387 l 1
 594 476 l 25
 552 429 525 404 485 357 c 0
 451 317 432 304 383 227 c 9
 409 309 l 1
 327 283 l 17
 404 332 417 351 457 385 c 0
 504 425 529 452 576 494 c 17
743 666 m 1
 783 683 l 1
 766 643 l 1
 726 626 l 1
 743 666 l 1
234 157 m 1
 274 174 l 1
 257 134 l 1
 217 117 l 1
 234 157 l 1
234 643 m 1
 217 683 l 1
 257 666 l 1
 274 626 l 1
 234 643 l 1
743 134 m 1
 726 174 l 1
 766 157 l 1
 783 117 l 1
 743 134 l 1
650 714 m 0
 650 702 640 694 630 694 c 0
 618 694 610 704 610 714 c 0
 610 726 620 734 630 734 c 0
 642 734 650 724 650 714 c 0
390 86 m 0
 390 74 380 66 370 66 c 0
 358 66 350 76 350 86 c 0
 350 98 360 106 370 106 c 0
 382 106 390 96 390 86 c 0
834 270 m 0
 834 258 824 250 814 250 c 0
 802 250 794 260 794 270 c 0
 794 282 804 290 814 290 c 0
 826 290 834 280 834 270 c 0
206 530 m 0
 206 518 196 510 186 510 c 0
 174 510 166 520 166 530 c 0
 166 542 176 550 186 550 c 0
 198 550 206 540 206 530 c 0
370 734 m 0
 380 734 390 726 390 714 c 0
 390 704 382 694 370 694 c 0
 360 694 350 702 350 714 c 0
 350 724 358 734 370 734 c 0
630 106 m 0
 640 106 650 98 650 86 c 0
 650 76 642 66 630 66 c 0
 620 66 610 74 610 86 c 0
 610 96 618 106 630 106 c 0
814 550 m 0
 824 550 834 542 834 530 c 0
 834 520 826 510 814 510 c 0
 804 510 794 518 794 530 c 0
 794 540 802 550 814 550 c 0
186 290 m 0
 196 290 206 282 206 270 c 0
 206 260 198 250 186 250 c 0
 176 250 166 258 166 270 c 0
 166 280 174 290 186 290 c 0
498 109 m 0
 513 109 527 106 535 104 c 1
 535 81 l 1
 520 88 509 89 502 89 c 0
 492 89 483 87 483 78 c 0
 483 72 488 70 498 68 c 2
 509 65 l 2
 531 61 541 53 541 34 c 0
 541 10 526 0 500 0 c 0
 488 0 475 2 459 8 c 1
 459 30 l 1
 467 26 474 24 479 22 c 0
 488 20 495 20 497 20 c 0
 513 20 515 26 515 31 c 0
 515 38 510 41 499 43 c 2
 489 46 l 2
 471 50 459 58 459 76 c 0
 459 99 474 109 498 109 c 0
100 452 m 1
 126 452 l 1
 144 376 l 1
 162 452 l 1
 188 452 l 1
 206 376 l 1
 224 452 l 1
 250 452 l 1
 225 348 l 1
 194 348 l 1
 175 427 l 1
 156 348 l 1
 125 348 l 1
 100 452 l 1
453 800 m 5
 483 800 l 5
 521 728 l 5
 521 800 l 5
 547 800 l 5
 547 695 l 5
 517 695 l 5
 479 767 l 5
 479 695 l 5
 453 695 l 5
 453 800 l 5
825 452 m 1
 898 452 l 1
 898 432 l 1
 852 432 l 1
 852 412 l 1
 896 412 l 1
 896 392 l 1
 852 392 l 1
 852 368 l 1
 900 368 l 1
 900 348 l 1
 825 348 l 1
 825 452 l 1
EndSplineSet
Validated: 1
EndChar

StartChar: four
Encoding: 52 52 10
Width: 1000
VWidth: 0
Flags: MW
LayerCount: 2
Fore
SplineSet
606 458 m 21
 535 519 l 5
 689 478 l 5
 609 341 l 5
 616 434 l 29
 559 407 525 394 470 366 c 4
 423 342 400 337 326 286 c 13
 382 351 l 5
 296 358 l 21
 385 374 405 387 454 403 c 4
 514 422 547 437 606 458 c 21
743 666 m 1
 783 683 l 1
 766 643 l 1
 726 626 l 1
 743 666 l 1
234 157 m 1
 274 174 l 1
 257 134 l 1
 217 117 l 1
 234 157 l 1
234 643 m 1
 217 683 l 1
 257 666 l 1
 274 626 l 1
 234 643 l 1
743 134 m 1
 726 174 l 1
 766 157 l 1
 783 117 l 1
 743 134 l 1
650 714 m 0
 650 702 640 694 630 694 c 0
 618 694 610 704 610 714 c 0
 610 726 620 734 630 734 c 0
 642 734 650 724 650 714 c 0
390 86 m 0
 390 74 380 66 370 66 c 0
 358 66 350 76 350 86 c 0
 350 98 360 106 370 106 c 0
 382 106 390 96 390 86 c 0
834 270 m 0
 834 258 824 250 814 250 c 0
 802 250 794 260 794 270 c 0
 794 282 804 290 814 290 c 0
 826 290 834 280 834 270 c 0
206 530 m 0
 206 518 196 510 186 510 c 0
 174 510 166 520 166 530 c 0
 166 542 176 550 186 550 c 0
 198 550 206 540 206 530 c 0
370 734 m 0
 380 734 390 726 390 714 c 0
 390 704 382 694 370 694 c 0
 360 694 350 702 350 714 c 0
 350 724 358 734 370 734 c 0
630 106 m 0
 640 106 650 98 650 86 c 0
 650 76 642 66 630 66 c 0
 620 66 610 74 610 86 c 0
 610 96 618 106 630 106 c 0
814 550 m 0
 824 550 834 542 834 530 c 0
 834 520 826 510 814 510 c 0
 804 510 794 518 794 530 c 0
 794 540 802 550 814 550 c 0
186 290 m 0
 196 290 206 282 206 270 c 0
 206 260 198 250 186 250 c 0
 176 250 166 258 166 270 c 0
 166 280 174 290 186 290 c 0
498 109 m 0
 513 109 527 106 535 104 c 1
 535 81 l 1
 520 88 509 89 502 89 c 0
 492 89 483 87 483 78 c 0
 483 72 488 70 498 68 c 2
 509 65 l 2
 531 61 541 53 541 34 c 0
 541 10 526 0 500 0 c 0
 488 0 475 2 459 8 c 1
 459 30 l 1
 467 26 474 24 479 22 c 0
 488 20 495 20 497 20 c 0
 513 20 515 26 515 31 c 0
 515 38 510 41 499 43 c 2
 489 46 l 2
 471 50 459 58 459 76 c 0
 459 99 474 109 498 109 c 0
100 452 m 1
 126 452 l 1
 144 376 l 1
 162 452 l 1
 188 452 l 1
 206 376 l 1
 224 452 l 1
 250 452 l 1
 225 348 l 1
 194 348 l 1
 175 427 l 1
 156 348 l 1
 125 348 l 1
 100 452 l 1
453 800 m 5
 483 800 l 5
 521 728 l 5
 521 800 l 5
 547 800 l 5
 547 695 l 5
 517 695 l 5
 479 767 l 5
 479 695 l 5
 453 695 l 5
 453 800 l 5
825 452 m 1
 898 452 l 1
 898 432 l 1
 852 432 l 1
 852 412 l 1
 896 412 l 1
 896 392 l 1
 852 392 l 1
 852 368 l 1
 900 368 l 1
 900 348 l 1
 825 348 l 1
 825 452 l 1
EndSplineSet
Validated: 1
EndChar

StartChar: five
Encoding: 53 53 11
Width: 1000
VWidth: 0
Flags: MW
LayerCount: 2
Fore
SplineSet
620 413 m 21
 578 496 l 5
 705 400 l 5
 578 304 l 5
 620 387 l 29
 557 384 521 385 459 380 c 4
 407 376 384 380 295 361 c 13
 372 400 l 5
 295 439 l 21
 384 420 407 424 459 420 c 4
 521 415 557 416 620 413 c 21
743 666 m 1
 783 683 l 1
 766 643 l 1
 726 626 l 1
 743 666 l 1
234 157 m 1
 274 174 l 1
 257 134 l 1
 217 117 l 1
 234 157 l 1
234 643 m 1
 217 683 l 1
 257 666 l 1
 274 626 l 1
 234 643 l 1
743 134 m 1
 726 174 l 1
 766 157 l 1
 783 117 l 1
 743 134 l 1
650 714 m 0
 650 702 640 694 630 694 c 0
 618 694 610 704 610 714 c 0
 610 726 620 734 630 734 c 0
 642 734 650 724 650 714 c 0
390 86 m 0
 390 74 380 66 370 66 c 0
 358 66 350 76 350 86 c 0
 350 98 360 106 370 106 c 0
 382 106 390 96 390 86 c 0
834 270 m 0
 834 258 824 250 814 250 c 0
 802 250 794 260 794 270 c 0
 794 282 804 290 814 290 c 0
 826 290 834 280 834 270 c 0
206 530 m 0
 206 518 196 510 186 510 c 0
 174 510 166 520 166 530 c 0
 166 542 176 550 186 550 c 0
 198 550 206 540 206 530 c 0
370 734 m 0
 380 734 390 726 390 714 c 0
 390 704 382 694 370 694 c 0
 360 694 350 702 350 714 c 0
 350 724 358 734 370 734 c 0
630 106 m 0
 640 106 650 98 650 86 c 0
 650 76 642 66 630 66 c 0
 620 66 610 74 610 86 c 0
 610 96 618 106 630 106 c 0
814 550 m 0
 824 550 834 542 834 530 c 0
 834 520 826 510 814 510 c 0
 804 510 794 518 794 530 c 0
 794 540 802 550 814 550 c 0
186 290 m 0
 196 290 206 282 206 270 c 0
 206 260 198 250 186 250 c 0
 176 250 166 258 166 270 c 0
 166 280 174 290 186 290 c 0
498 109 m 0
 513 109 527 106 535 104 c 1
 535 81 l 1
 520 88 509 89 502 89 c 0
 492 89 483 87 483 78 c 0
 483 72 488 70 498 68 c 2
 509 65 l 2
 531 61 541 53 541 34 c 0
 541 10 526 0 500 0 c 0
 488 0 475 2 459 8 c 1
 459 30 l 1
 467 26 474 24 479 22 c 0
 488 20 495 20 497 20 c 0
 513 20 515 26 515 31 c 0
 515 38 510 41 499 43 c 2
 489 46 l 2
 471 50 459 58 459 76 c 0
 459 99 474 109 498 109 c 0
100 452 m 1
 126 452 l 1
 144 376 l 1
 162 452 l 1
 188 452 l 1
 206 376 l 1
 224 452 l 1
 250 452 l 1
 225 348 l 1
 194 348 l 1
 175 427 l 1
 156 348 l 1
 125 348 l 1
 100 452 l 1
453 800 m 5
 483 800 l 5
 521 728 l 5
 521 800 l 5
 547 800 l 5
 547 695 l 5
 517 695 l 5
 479 767 l 5
 479 695 l 5
 453 695 l 5
 453 800 l 5
825 452 m 1
 898 452 l 1
 898 432 l 1
 852 432 l 1
 852 412 l 1
 896 412 l 1
 896 392 l 1
 852 392 l 1
 852 368 l 1
 900 368 l 1
 900 348 l 1
 825 348 l 1
 825 452 l 1
EndSplineSet
Validated: 1
EndChar

StartChar: six
Encoding: 54 54 12
Width: 1000
VWidth: 0
Flags: MW
LayerCount: 2
Fore
SplineSet
616 366 m 21
 609 459 l 5
 689 322 l 5
 535 281 l 5
 606 342 l 29
 547 363 514 378 454 397 c 4
 405 413 385 426 296 442 c 13
 382 449 l 5
 326 514 l 21
 400 463 423 458 470 434 c 4
 525 406 559 393 616 366 c 21
743 666 m 1
 783 683 l 1
 766 643 l 1
 726 626 l 1
 743 666 l 1
234 157 m 1
 274 174 l 1
 257 134 l 1
 217 117 l 1
 234 157 l 1
234 643 m 1
 217 683 l 1
 257 666 l 1
 274 626 l 1
 234 643 l 1
743 134 m 1
 726 174 l 1
 766 157 l 1
 783 117 l 1
 743 134 l 1
650 714 m 0
 650 702 640 694 630 694 c 0
 618 694 610 704 610 714 c 0
 610 726 620 734 630 734 c 0
 642 734 650 724 650 714 c 0
390 86 m 0
 390 74 380 66 370 66 c 0
 358 66 350 76 350 86 c 0
 350 98 360 106 370 106 c 0
 382 106 390 96 390 86 c 0
834 270 m 0
 834 258 824 250 814 250 c 0
 802 250 794 260 794 270 c 0
 794 282 804 290 814 290 c 0
 826 290 834 280 834 270 c 0
206 530 m 0
 206 518 196 510 186 510 c 0
 174 510 166 520 166 530 c 0
 166 542 176 550 186 550 c 0
 198 550 206 540 206 530 c 0
370 734 m 0
 380 734 390 726 390 714 c 0
 390 704 382 694 370 694 c 0
 360 694 350 702 350 714 c 0
 350 724 358 734 370 734 c 0
630 106 m 0
 640 106 650 98 650 86 c 0
 650 76 642 66 630 66 c 0
 620 66 610 74 610 86 c 0
 610 96 618 106 630 106 c 0
814 550 m 0
 824 550 834 542 834 530 c 0
 834 520 826 510 814 510 c 0
 804 510 794 518 794 530 c 0
 794 540 802 550 814 550 c 0
186 290 m 0
 196 290 206 282 206 270 c 0
 206 260 198 250 186 250 c 0
 176 250 166 258 166 270 c 0
 166 280 174 290 186 290 c 0
498 109 m 0
 513 109 527 106 535 104 c 1
 535 81 l 1
 520 88 509 89 502 89 c 0
 492 89 483 87 483 78 c 0
 483 72 488 70 498 68 c 2
 509 65 l 2
 531 61 541 53 541 34 c 0
 541 10 526 0 500 0 c 0
 488 0 475 2 459 8 c 1
 459 30 l 1
 467 26 474 24 479 22 c 0
 488 20 495 20 497 20 c 0
 513 20 515 26 515 31 c 0
 515 38 510 41 499 43 c 2
 489 46 l 2
 471 50 459 58 459 76 c 0
 459 99 474 109 498 109 c 0
100 452 m 1
 126 452 l 1
 144 376 l 1
 162 452 l 1
 188 452 l 1
 206 376 l 1
 224 452 l 1
 250 452 l 1
 225 348 l 1
 194 348 l 1
 175 427 l 1
 156 348 l 1
 125 348 l 1
 100 452 l 1
453 800 m 5
 483 800 l 5
 521 728 l 5
 521 800 l 5
 547 800 l 5
 547 695 l 5
 517 695 l 5
 479 767 l 5
 479 695 l 5
 453 695 l 5
 453 800 l 5
825 452 m 1
 898 452 l 1
 898 432 l 1
 852 432 l 1
 852 412 l 1
 896 412 l 1
 896 392 l 1
 852 392 l 1
 852 368 l 1
 900 368 l 1
 900 348 l 1
 825 348 l 1
 825 452 l 1
EndSplineSet
Validated: 1
EndChar

StartChar: seven
Encoding: 55 55 13
Width: 1000
VWidth: 0
Flags: MW
LayerCount: 2
Fore
SplineSet
594 324 m 21
 623 413 l 5
 645 255 l 5
 487 277 l 5
 576 306 l 29
 529 348 504 375 457 415 c 4
 417 449 404 468 327 517 c 13
 409 491 l 5
 383 573 l 21
 432 496 451 483 485 443 c 4
 525 396 552 371 594 324 c 21
743 666 m 1
 783 683 l 1
 766 643 l 1
 726 626 l 1
 743 666 l 1
234 157 m 1
 274 174 l 1
 257 134 l 1
 217 117 l 1
 234 157 l 1
234 643 m 1
 217 683 l 1
 257 666 l 1
 274 626 l 1
 234 643 l 1
743 134 m 1
 726 174 l 1
 766 157 l 1
 783 117 l 1
 743 134 l 1
650 714 m 0
 650 702 640 694 630 694 c 0
 618 694 610 704 610 714 c 0
 610 726 620 734 630 734 c 0
 642 734 650 724 650 714 c 0
390 86 m 0
 390 74 380 66 370 66 c 0
 358 66 350 76 350 86 c 0
 350 98 360 106 370 106 c 0
 382 106 390 96 390 86 c 0
834 270 m 0
 834 258 824 250 814 250 c 0
 802 250 794 260 794 270 c 0
 794 282 804 290 814 290 c 0
 826 290 834 280 834 270 c 0
206 530 m 0
 206 518 196 510 186 510 c 0
 174 510 166 520 166 530 c 0
 166 542 176 550 186 550 c 0
 198 550 206 540 206 530 c 0
370 734 m 0
 380 734 390 726 390 714 c 0
 390 704 382 694 370 694 c 0
 360 694 350 702 350 714 c 0
 350 724 358 734 370 734 c 0
630 106 m 0
 640 106 650 98 650 86 c 0
 650 76 642 66 630 66 c 0
 620 66 610 74 610 86 c 0
 610 96 618 106 630 106 c 0
814 550 m 0
 824 550 834 542 834 530 c 0
 834 520 826 510 814 510 c 0
 804 510 794 518 794 530 c 0
 794 540 802 550 814 550 c 0
186 290 m 0
 196 290 206 282 206 270 c 0
 206 260 198 250 186 250 c 0
 176 250 166 258 166 270 c 0
 166 280 174 290 186 290 c 0
498 109 m 0
 513 109 527 106 535 104 c 1
 535 81 l 1
 520 88 509 89 502 89 c 0
 492 89 483 87 483 78 c 0
 483 72 488 70 498 68 c 2
 509 65 l 2
 531 61 541 53 541 34 c 0
 541 10 526 0 500 0 c 0
 488 0 475 2 459 8 c 1
 459 30 l 1
 467 26 474 24 479 22 c 0
 488 20 495 20 497 20 c 0
 513 20 515 26 515 31 c 0
 515 38 510 41 499 43 c 2
 489 46 l 2
 471 50 459 58 459 76 c 0
 459 99 474 109 498 109 c 0
100 452 m 1
 126 452 l 1
 144 376 l 1
 162 452 l 1
 188 452 l 1
 206 376 l 1
 224 452 l 1
 250 452 l 1
 225 348 l 1
 194 348 l 1
 175 427 l 1
 156 348 l 1
 125 348 l 1
 100 452 l 1
453 800 m 5
 483 800 l 5
 521 728 l 5
 521 800 l 5
 547 800 l 5
 547 695 l 5
 517 695 l 5
 479 767 l 5
 479 695 l 5
 453 695 l 5
 453 800 l 5
825 452 m 1
 898 452 l 1
 898 432 l 1
 852 432 l 1
 852 412 l 1
 896 412 l 1
 896 392 l 1
 852 392 l 1
 852 368 l 1
 900 368 l 1
 900 348 l 1
 825 348 l 1
 825 452 l 1
EndSplineSet
Validated: 1
EndChar

StartChar: eight
Encoding: 56 56 14
Width: 1000
VWidth: 0
Flags: MW
LayerCount: 2
Fore
SplineSet
558 294 m 21
 619 365 l 5
 578 211 l 5
 441 291 l 5
 534 284 l 29
 507 341 494 375 466 430 c 4
 442 477 437 500 386 574 c 13
 451 518 l 5
 458 604 l 21
 474 515 487 495 503 446 c 4
 522 386 537 353 558 294 c 21
743 666 m 1
 783 683 l 1
 766 643 l 1
 726 626 l 1
 743 666 l 1
234 157 m 1
 274 174 l 1
 257 134 l 1
 217 117 l 1
 234 157 l 1
234 643 m 1
 217 683 l 1
 257 666 l 1
 274 626 l 1
 234 643 l 1
743 134 m 1
 726 174 l 1
 766 157 l 1
 783 117 l 1
 743 134 l 1
650 714 m 0
 650 702 640 694 630 694 c 0
 618 694 610 704 610 714 c 0
 610 726 620 734 630 734 c 0
 642 734 650 724 650 714 c 0
390 86 m 0
 390 74 380 66 370 66 c 0
 358 66 350 76 350 86 c 0
 350 98 360 106 370 106 c 0
 382 106 390 96 390 86 c 0
834 270 m 0
 834 258 824 250 814 250 c 0
 802 250 794 260 794 270 c 0
 794 282 804 290 814 290 c 0
 826 290 834 280 834 270 c 0
206 530 m 0
 206 518 196 510 186 510 c 0
 174 510 166 520 166 530 c 0
 166 542 176 550 186 550 c 0
 198 550 206 540 206 530 c 0
370 734 m 0
 380 734 390 726 390 714 c 0
 390 704 382 694 370 694 c 0
 360 694 350 702 350 714 c 0
 350 724 358 734 370 734 c 0
630 106 m 0
 640 106 650 98 650 86 c 0
 650 76 642 66 630 66 c 0
 620 66 610 74 610 86 c 0
 610 96 618 106 630 106 c 0
814 550 m 0
 824 550 834 542 834 530 c 0
 834 520 826 510 814 510 c 0
 804 510 794 518 794 530 c 0
 794 540 802 550 814 550 c 0
186 290 m 0
 196 290 206 282 206 270 c 0
 206 260 198 250 186 250 c 0
 176 250 166 258 166 270 c 0
 166 280 174 290 186 290 c 0
498 109 m 0
 513 109 527 106 535 104 c 1
 535 81 l 1
 520 88 509 89 502 89 c 0
 492 89 483 87 483 78 c 0
 483 72 488 70 498 68 c 2
 509 65 l 2
 531 61 541 53 541 34 c 0
 541 10 526 0 500 0 c 0
 488 0 475 2 459 8 c 1
 459 30 l 1
 467 26 474 24 479 22 c 0
 488 20 495 20 497 20 c 0
 513 20 515 26 515 31 c 0
 515 38 510 41 499 43 c 2
 489 46 l 2
 471 50 459 58 459 76 c 0
 459 99 474 109 498 109 c 0
100 452 m 1
 126 452 l 1
 144 376 l 1
 162 452 l 1
 188 452 l 1
 206 376 l 1
 224 452 l 1
 250 452 l 1
 225 348 l 1
 194 348 l 1
 175 427 l 1
 156 348 l 1
 125 348 l 1
 100 452 l 1
453 800 m 5
 483 800 l 5
 521 728 l 5
 521 800 l 5
 547 800 l 5
 547 695 l 5
 517 695 l 5
 479 767 l 5
 479 695 l 5
 453 695 l 5
 453 800 l 5
825 452 m 1
 898 452 l 1
 898 432 l 1
 852 432 l 1
 852 412 l 1
 896 412 l 1
 896 392 l 1
 852 392 l 1
 852 368 l 1
 900 368 l 1
 900 348 l 1
 825 348 l 1
 825 452 l 1
EndSplineSet
Validated: 1
EndChar

StartChar: nine
Encoding: 57 57 15
Width: 1000
VWidth: 0
Flags: MW
LayerCount: 2
Fore
SplineSet
513 280 m 21
 596 322 l 5
 500 195 l 5
 404 322 l 5
 487 280 l 29
 484 343 485 379 480 441 c 4
 476 493 480 516 461 605 c 13
 500 528 l 5
 539 605 l 21
 520 516 524 493 520 441 c 4
 515 379 516 343 513 280 c 21
743 666 m 1
 783 683 l 1
 766 643 l 1
 726 626 l 1
 743 666 l 1
234 157 m 1
 274 174 l 1
 257 134 l 1
 217 117 l 1
 234 157 l 1
234 643 m 1
 217 683 l 1
 257 666 l 1
 274 626 l 1
 234 643 l 1
743 134 m 1
 726 174 l 1
 766 157 l 1
 783 117 l 1
 743 134 l 1
650 714 m 0
 650 702 640 694 630 694 c 0
 618 694 610 704 610 714 c 0
 610 726 620 734 630 734 c 0
 642 734 650 724 650 714 c 0
390 86 m 0
 390 74 380 66 370 66 c 0
 358 66 350 76 350 86 c 0
 350 98 360 106 370 106 c 0
 382 106 390 96 390 86 c 0
834 270 m 0
 834 258 824 250 814 250 c 0
 802 250 794 260 794 270 c 0
 794 282 804 290 814 290 c 0
 826 290 834 280 834 270 c 0
206 530 m 0
 206 518 196 510 186 510 c 0
 174 510 166 520 166 530 c 0
 166 542 176 550 186 550 c 0
 198 550 206 540 206 530 c 0
370 734 m 0
 380 734 390 726 390 714 c 0
 390 704 382 694 370 694 c 0
 360 694 350 702 350 714 c 0
 350 724 358 734 370 734 c 0
630 106 m 0
 640 106 650 98 650 86 c 0
 650 76 642 66 630 66 c 0
 620 66 610 74 610 86 c 0
 610 96 618 106 630 106 c 0
814 550 m 0
 824 550 834 542 834 530 c 0
 834 520 826 510 814 510 c 0
 804 510 794 518 794 530 c 0
 794 540 802 550 814 550 c 0
186 290 m 0
 196 290 206 282 206 270 c 0
 206 260 198 250 186 250 c 0
 176 250 166 258 166 270 c 0
 166 280 174 290 186 290 c 0
498 109 m 0
 513 109 527 106 535 104 c 1
 535 81 l 1
 520 88 509 89 502 89 c 0
 492 89 483 87 483 78 c 0
 483 72 488 70 498 68 c 2
 509 65 l 2
 531 61 541 53 541 34 c 0
 541 10 526 0 500 0 c 0
 488 0 475 2 459 8 c 1
 459 30 l 1
 467 26 474 24 479 22 c 0
 488 20 495 20 497 20 c 0
 513 20 515 26 515 31 c 0
 515 38 510 41 499 43 c 2
 489 46 l 2
 471 50 459 58 459 76 c 0
 459 99 474 109 498 109 c 0
100 452 m 1
 126 452 l 1
 144 376 l 1
 162 452 l 1
 188 452 l 1
 206 376 l 1
 224 452 l 1
 250 452 l 1
 225 348 l 1
 194 348 l 1
 175 427 l 1
 156 348 l 1
 125 348 l 1
 100 452 l 1
453 800 m 5
 483 800 l 5
 521 728 l 5
 521 800 l 5
 547 800 l 5
 547 695 l 5
 517 695 l 5
 479 767 l 5
 479 695 l 5
 453 695 l 5
 453 800 l 5
825 452 m 1
 898 452 l 1
 898 432 l 1
 852 432 l 1
 852 412 l 1
 896 412 l 1
 896 392 l 1
 852 392 l 1
 852 368 l 1
 900 368 l 1
 900 348 l 1
 825 348 l 1
 825 452 l 1
EndSplineSet
Validated: 1
EndChar

StartChar: colon
Encoding: 58 58 16
Width: 1000
VWidth: 0
Flags: MW
LayerCount: 2
Fore
SplineSet
466 284 m 21
 559 291 l 5
 422 211 l 5
 381 365 l 5
 442 294 l 29
 463 353 478 386 497 446 c 4
 513 495 526 515 542 604 c 13
 549 518 l 5
 614 574 l 21
 563 500 558 477 534 430 c 4
 506 375 493 341 466 284 c 21
743 666 m 1
 783 683 l 1
 766 643 l 1
 726 626 l 1
 743 666 l 1
234 157 m 1
 274 174 l 1
 257 134 l 1
 217 117 l 1
 234 157 l 1
234 643 m 1
 217 683 l 1
 257 666 l 1
 274 626 l 1
 234 643 l 1
743 134 m 1
 726 174 l 1
 766 157 l 1
 783 117 l 1
 743 134 l 1
650 714 m 0
 650 702 640 694 630 694 c 0
 618 694 610 704 610 714 c 0
 610 726 620 734 630 734 c 0
 642 734 650 724 650 714 c 0
390 86 m 0
 390 74 380 66 370 66 c 0
 358 66 350 76 350 86 c 0
 350 98 360 106 370 106 c 0
 382 106 390 96 390 86 c 0
834 270 m 0
 834 258 824 250 814 250 c 0
 802 250 794 260 794 270 c 0
 794 282 804 290 814 290 c 0
 826 290 834 280 834 270 c 0
206 530 m 0
 206 518 196 510 186 510 c 0
 174 510 166 520 166 530 c 0
 166 542 176 550 186 550 c 0
 198 550 206 540 206 530 c 0
370 734 m 0
 380 734 390 726 390 714 c 0
 390 704 382 694 370 694 c 0
 360 694 350 702 350 714 c 0
 350 724 358 734 370 734 c 0
630 106 m 0
 640 106 650 98 650 86 c 0
 650 76 642 66 630 66 c 0
 620 66 610 74 610 86 c 0
 610 96 618 106 630 106 c 0
814 550 m 0
 824 550 834 542 834 530 c 0
 834 520 826 510 814 510 c 0
 804 510 794 518 794 530 c 0
 794 540 802 550 814 550 c 0
186 290 m 0
 196 290 206 282 206 270 c 0
 206 260 198 250 186 250 c 0
 176 250 166 258 166 270 c 0
 166 280 174 290 186 290 c 0
498 109 m 0
 513 109 527 106 535 104 c 1
 535 81 l 1
 520 88 509 89 502 89 c 0
 492 89 483 87 483 78 c 0
 483 72 488 70 498 68 c 2
 509 65 l 2
 531 61 541 53 541 34 c 0
 541 10 526 0 500 0 c 0
 488 0 475 2 459 8 c 1
 459 30 l 1
 467 26 474 24 479 22 c 0
 488 20 495 20 497 20 c 0
 513 20 515 26 515 31 c 0
 515 38 510 41 499 43 c 2
 489 46 l 2
 471 50 459 58 459 76 c 0
 459 99 474 109 498 109 c 0
100 452 m 1
 126 452 l 1
 144 376 l 1
 162 452 l 1
 188 452 l 1
 206 376 l 1
 224 452 l 1
 250 452 l 1
 225 348 l 1
 194 348 l 1
 175 427 l 1
 156 348 l 1
 125 348 l 1
 100 452 l 1
453 800 m 5
 483 800 l 5
 521 728 l 5
 521 800 l 5
 547 800 l 5
 547 695 l 5
 517 695 l 5
 479 767 l 5
 479 695 l 5
 453 695 l 5
 453 800 l 5
825 452 m 1
 898 452 l 1
 898 432 l 1
 852 432 l 1
 852 412 l 1
 896 412 l 1
 896 392 l 1
 852 392 l 1
 852 368 l 1
 900 368 l 1
 900 348 l 1
 825 348 l 1
 825 452 l 1
EndSplineSet
Validated: 1
EndChar

StartChar: semicolon
Encoding: 59 59 17
Width: 1000
VWidth: 0
Flags: MW
LayerCount: 2
Fore
SplineSet
424 306 m 21
 513 277 l 5
 355 255 l 5
 377 413 l 5
 406 324 l 29
 448 371 475 396 515 443 c 4
 549 483 568 496 617 573 c 13
 591 491 l 5
 673 517 l 21
 596 468 583 449 543 415 c 4
 496 375 471 348 424 306 c 21
743 666 m 1
 783 683 l 1
 766 643 l 1
 726 626 l 1
 743 666 l 1
234 157 m 1
 274 174 l 1
 257 134 l 1
 217 117 l 1
 234 157 l 1
234 643 m 1
 217 683 l 1
 257 666 l 1
 274 626 l 1
 234 643 l 1
743 134 m 1
 726 174 l 1
 766 157 l 1
 783 117 l 1
 743 134 l 1
650 714 m 0
 650 702 640 694 630 694 c 0
 618 694 610 704 610 714 c 0
 610 726 620 734 630 734 c 0
 642 734 650 724 650 714 c 0
390 86 m 0
 390 74 380 66 370 66 c 0
 358 66 350 76 350 86 c 0
 350 98 360 106 370 106 c 0
 382 106 390 96 390 86 c 0
834 270 m 0
 834 258 824 250 814 250 c 0
 802 250 794 260 794 270 c 0
 794 282 804 290 814 290 c 0
 826 290 834 280 834 270 c 0
206 530 m 0
 206 518 196 510 186 510 c 0
 174 510 166 520 166 530 c 0
 166 542 176 550 186 550 c 0
 198 550 206 540 206 530 c 0
370 734 m 0
 380 734 390 726 390 714 c 0
 390 704 382 694 370 694 c 0
 360 694 350 702 350 714 c 0
 350 724 358 734 370 734 c 0
630 106 m 0
 640 106 650 98 650 86 c 0
 650 76 642 66 630 66 c 0
 620 66 610 74 610 86 c 0
 610 96 618 106 630 106 c 0
814 550 m 0
 824 550 834 542 834 530 c 0
 834 520 826 510 814 510 c 0
 804 510 794 518 794 530 c 0
 794 540 802 550 814 550 c 0
186 290 m 0
 196 290 206 282 206 270 c 0
 206 260 198 250 186 250 c 0
 176 250 166 258 166 270 c 0
 166 280 174 290 186 290 c 0
498 109 m 0
 513 109 527 106 535 104 c 1
 535 81 l 1
 520 88 509 89 502 89 c 0
 492 89 483 87 483 78 c 0
 483 72 488 70 498 68 c 2
 509 65 l 2
 531 61 541 53 541 34 c 0
 541 10 526 0 500 0 c 0
 488 0 475 2 459 8 c 1
 459 30 l 1
 467 26 474 24 479 22 c 0
 488 20 495 20 497 20 c 0
 513 20 515 26 515 31 c 0
 515 38 510 41 499 43 c 2
 489 46 l 2
 471 50 459 58 459 76 c 0
 459 99 474 109 498 109 c 0
100 452 m 1
 126 452 l 1
 144 376 l 1
 162 452 l 1
 188 452 l 1
 206 376 l 1
 224 452 l 1
 250 452 l 1
 225 348 l 1
 194 348 l 1
 175 427 l 1
 156 348 l 1
 125 348 l 1
 100 452 l 1
453 800 m 5
 483 800 l 5
 521 728 l 5
 521 800 l 5
 547 800 l 5
 547 695 l 5
 517 695 l 5
 479 767 l 5
 479 695 l 5
 453 695 l 5
 453 800 l 5
825 452 m 1
 898 452 l 1
 898 432 l 1
 852 432 l 1
 852 412 l 1
 896 412 l 1
 896 392 l 1
 852 392 l 1
 852 368 l 1
 900 368 l 1
 900 348 l 1
 825 348 l 1
 825 452 l 1
EndSplineSet
Validated: 1
EndChar

StartChar: less
Encoding: 60 60 18
Width: 1000
VWidth: 0
Flags: MW
LayerCount: 2
Fore
SplineSet
394 342 m 21
 465 281 l 5
 311 322 l 5
 391 459 l 5
 384 366 l 29
 441 393 475 406 530 434 c 4
 577 458 600 463 674 514 c 13
 618 449 l 5
 704 442 l 21
 615 426 595 413 546 397 c 4
 486 378 453 363 394 342 c 21
743 666 m 1
 783 683 l 1
 766 643 l 1
 726 626 l 1
 743 666 l 1
234 157 m 1
 274 174 l 1
 257 134 l 1
 217 117 l 1
 234 157 l 1
234 643 m 1
 217 683 l 1
 257 666 l 1
 274 626 l 1
 234 643 l 1
743 134 m 1
 726 174 l 1
 766 157 l 1
 783 117 l 1
 743 134 l 1
650 714 m 0
 650 702 640 694 630 694 c 0
 618 694 610 704 610 714 c 0
 610 726 620 734 630 734 c 0
 642 734 650 724 650 714 c 0
390 86 m 0
 390 74 380 66 370 66 c 0
 358 66 350 76 350 86 c 0
 350 98 360 106 370 106 c 0
 382 106 390 96 390 86 c 0
834 270 m 0
 834 258 824 250 814 250 c 0
 802 250 794 260 794 270 c 0
 794 282 804 290 814 290 c 0
 826 290 834 280 834 270 c 0
206 530 m 0
 206 518 196 510 186 510 c 0
 174 510 166 520 166 530 c 0
 166 542 176 550 186 550 c 0
 198 550 206 540 206 530 c 0
370 734 m 0
 380 734 390 726 390 714 c 0
 390 704 382 694 370 694 c 0
 360 694 350 702 350 714 c 0
 350 724 358 734 370 734 c 0
630 106 m 0
 640 106 650 98 650 86 c 0
 650 76 642 66 630 66 c 0
 620 66 610 74 610 86 c 0
 610 96 618 106 630 106 c 0
814 550 m 0
 824 550 834 542 834 530 c 0
 834 520 826 510 814 510 c 0
 804 510 794 518 794 530 c 0
 794 540 802 550 814 550 c 0
186 290 m 0
 196 290 206 282 206 270 c 0
 206 260 198 250 186 250 c 0
 176 250 166 258 166 270 c 0
 166 280 174 290 186 290 c 0
498 109 m 0
 513 109 527 106 535 104 c 1
 535 81 l 1
 520 88 509 89 502 89 c 0
 492 89 483 87 483 78 c 0
 483 72 488 70 498 68 c 2
 509 65 l 2
 531 61 541 53 541 34 c 0
 541 10 526 0 500 0 c 0
 488 0 475 2 459 8 c 1
 459 30 l 1
 467 26 474 24 479 22 c 0
 488 20 495 20 497 20 c 0
 513 20 515 26 515 31 c 0
 515 38 510 41 499 43 c 2
 489 46 l 2
 471 50 459 58 459 76 c 0
 459 99 474 109 498 109 c 0
100 452 m 1
 126 452 l 1
 144 376 l 1
 162 452 l 1
 188 452 l 1
 206 376 l 1
 224 452 l 1
 250 452 l 1
 225 348 l 1
 194 348 l 1
 175 427 l 1
 156 348 l 1
 125 348 l 1
 100 452 l 1
453 800 m 5
 483 800 l 5
 521 728 l 5
 521 800 l 5
 547 800 l 5
 547 695 l 5
 517 695 l 5
 479 767 l 5
 479 695 l 5
 453 695 l 5
 453 800 l 5
825 452 m 1
 898 452 l 1
 898 432 l 1
 852 432 l 1
 852 412 l 1
 896 412 l 1
 896 392 l 1
 852 392 l 1
 852 368 l 1
 900 368 l 1
 900 348 l 1
 825 348 l 1
 825 452 l 1
EndSplineSet
Validated: 1
EndChar

StartChar: equal
Encoding: 61 61 19
Width: 1000
VWidth: 0
Flags: MW
LayerCount: 2
Fore
SplineSet
380 387 m 21
 422 304 l 5
 295 400 l 5
 422 496 l 5
 380 413 l 29
 443 416 479 415 541 420 c 4
 593 424 616 420 705 439 c 13
 628 400 l 5
 705 361 l 21
 616 380 593 376 541 380 c 4
 479 385 443 384 380 387 c 21
743 666 m 1
 783 683 l 1
 766 643 l 1
 726 626 l 1
 743 666 l 1
234 157 m 1
 274 174 l 1
 257 134 l 1
 217 117 l 1
 234 157 l 1
234 643 m 1
 217 683 l 1
 257 666 l 1
 274 626 l 1
 234 643 l 1
743 134 m 1
 726 174 l 1
 766 157 l 1
 783 117 l 1
 743 134 l 1
650 714 m 0
 650 702 640 694 630 694 c 0
 618 694 610 704 610 714 c 0
 610 726 620 734 630 734 c 0
 642 734 650 724 650 714 c 0
390 86 m 0
 390 74 380 66 370 66 c 0
 358 66 350 76 350 86 c 0
 350 98 360 106 370 106 c 0
 382 106 390 96 390 86 c 0
834 270 m 0
 834 258 824 250 814 250 c 0
 802 250 794 260 794 270 c 0
 794 282 804 290 814 290 c 0
 826 290 834 280 834 270 c 0
206 530 m 0
 206 518 196 510 186 510 c 0
 174 510 166 520 166 530 c 0
 166 542 176 550 186 550 c 0
 198 550 206 540 206 530 c 0
370 734 m 0
 380 734 390 726 390 714 c 0
 390 704 382 694 370 694 c 0
 360 694 350 702 350 714 c 0
 350 724 358 734 370 734 c 0
630 106 m 0
 640 106 650 98 650 86 c 0
 650 76 642 66 630 66 c 0
 620 66 610 74 610 86 c 0
 610 96 618 106 630 106 c 0
814 550 m 0
 824 550 834 542 834 530 c 0
 834 520 826 510 814 510 c 0
 804 510 794 518 794 530 c 0
 794 540 802 550 814 550 c 0
186 290 m 0
 196 290 206 282 206 270 c 0
 206 260 198 250 186 250 c 0
 176 250 166 258 166 270 c 0
 166 280 174 290 186 290 c 0
498 109 m 0
 513 109 527 106 535 104 c 1
 535 81 l 1
 520 88 509 89 502 89 c 0
 492 89 483 87 483 78 c 0
 483 72 488 70 498 68 c 2
 509 65 l 2
 531 61 541 53 541 34 c 0
 541 10 526 0 500 0 c 0
 488 0 475 2 459 8 c 1
 459 30 l 1
 467 26 474 24 479 22 c 0
 488 20 495 20 497 20 c 0
 513 20 515 26 515 31 c 0
 515 38 510 41 499 43 c 2
 489 46 l 2
 471 50 459 58 459 76 c 0
 459 99 474 109 498 109 c 0
100 452 m 1
 126 452 l 1
 144 376 l 1
 162 452 l 1
 188 452 l 1
 206 376 l 1
 224 452 l 1
 250 452 l 1
 225 348 l 1
 194 348 l 1
 175 427 l 1
 156 348 l 1
 125 348 l 1
 100 452 l 1
453 800 m 5
 483 800 l 5
 521 728 l 5
 521 800 l 5
 547 800 l 5
 547 695 l 5
 517 695 l 5
 479 767 l 5
 479 695 l 5
 453 695 l 5
 453 800 l 5
825 452 m 1
 898 452 l 1
 898 432 l 1
 852 432 l 1
 852 412 l 1
 896 412 l 1
 896 392 l 1
 852 392 l 1
 852 368 l 1
 900 368 l 1
 900 348 l 1
 825 348 l 1
 825 452 l 1
EndSplineSet
Validated: 1
EndChar

StartChar: greater
Encoding: 62 62 20
Width: 1000
VWidth: 0
Flags: MW
LayerCount: 2
Fore
SplineSet
384 434 m 21
 391 341 l 5
 311 478 l 5
 465 519 l 5
 394 458 l 29
 453 437 486 422 546 403 c 4
 595 387 615 374 704 358 c 13
 618 351 l 5
 674 286 l 21
 600 337 577 342 530 366 c 4
 475 394 441 407 384 434 c 21
743 666 m 1
 783 683 l 1
 766 643 l 1
 726 626 l 1
 743 666 l 1
234 157 m 1
 274 174 l 1
 257 134 l 1
 217 117 l 1
 234 157 l 1
234 643 m 1
 217 683 l 1
 257 666 l 1
 274 626 l 1
 234 643 l 1
743 134 m 1
 726 174 l 1
 766 157 l 1
 783 117 l 1
 743 134 l 1
650 714 m 0
 650 702 640 694 630 694 c 0
 618 694 610 704 610 714 c 0
 610 726 620 734 630 734 c 0
 642 734 650 724 650 714 c 0
390 86 m 0
 390 74 380 66 370 66 c 0
 358 66 350 76 350 86 c 0
 350 98 360 106 370 106 c 0
 382 106 390 96 390 86 c 0
834 270 m 0
 834 258 824 250 814 250 c 0
 802 250 794 260 794 270 c 0
 794 282 804 290 814 290 c 0
 826 290 834 280 834 270 c 0
206 530 m 0
 206 518 196 510 186 510 c 0
 174 510 166 520 166 530 c 0
 166 542 176 550 186 550 c 0
 198 550 206 540 206 530 c 0
370 734 m 0
 380 734 390 726 390 714 c 0
 390 704 382 694 370 694 c 0
 360 694 350 702 350 714 c 0
 350 724 358 734 370 734 c 0
630 106 m 0
 640 106 650 98 650 86 c 0
 650 76 642 66 630 66 c 0
 620 66 610 74 610 86 c 0
 610 96 618 106 630 106 c 0
814 550 m 0
 824 550 834 542 834 530 c 0
 834 520 826 510 814 510 c 0
 804 510 794 518 794 530 c 0
 794 540 802 550 814 550 c 0
186 290 m 0
 196 290 206 282 206 270 c 0
 206 260 198 250 186 250 c 0
 176 250 166 258 166 270 c 0
 166 280 174 290 186 290 c 0
498 109 m 0
 513 109 527 106 535 104 c 1
 535 81 l 1
 520 88 509 89 502 89 c 0
 492 89 483 87 483 78 c 0
 483 72 488 70 498 68 c 2
 509 65 l 2
 531 61 541 53 541 34 c 0
 541 10 526 0 500 0 c 0
 488 0 475 2 459 8 c 1
 459 30 l 1
 467 26 474 24 479 22 c 0
 488 20 495 20 497 20 c 0
 513 20 515 26 515 31 c 0
 515 38 510 41 499 43 c 2
 489 46 l 2
 471 50 459 58 459 76 c 0
 459 99 474 109 498 109 c 0
100 452 m 1
 126 452 l 1
 144 376 l 1
 162 452 l 1
 188 452 l 1
 206 376 l 1
 224 452 l 1
 250 452 l 1
 225 348 l 1
 194 348 l 1
 175 427 l 1
 156 348 l 1
 125 348 l 1
 100 452 l 1
453 800 m 5
 483 800 l 5
 521 728 l 5
 521 800 l 5
 547 800 l 5
 547 695 l 5
 517 695 l 5
 479 767 l 5
 479 695 l 5
 453 695 l 5
 453 800 l 5
825 452 m 1
 898 452 l 1
 898 432 l 1
 852 432 l 1
 852 412 l 1
 896 412 l 1
 896 392 l 1
 852 392 l 1
 852 368 l 1
 900 368 l 1
 900 348 l 1
 825 348 l 1
 825 452 l 1
EndSplineSet
Validated: 1
EndChar

StartChar: question
Encoding: 63 63 21
Width: 1000
VWidth: 0
Flags: MW
LayerCount: 2
Fore
SplineSet
406 476 m 21
 377 387 l 5
 355 545 l 5
 513 523 l 5
 424 494 l 29
 471 452 496 425 543 385 c 4
 583 351 596 332 673 283 c 13
 591 309 l 5
 617 227 l 21
 568 304 549 317 515 357 c 4
 475 404 448 429 406 476 c 21
743 666 m 1
 783 683 l 1
 766 643 l 1
 726 626 l 1
 743 666 l 1
234 157 m 1
 274 174 l 1
 257 134 l 1
 217 117 l 1
 234 157 l 1
234 643 m 1
 217 683 l 1
 257 666 l 1
 274 626 l 1
 234 643 l 1
743 134 m 1
 726 174 l 1
 766 157 l 1
 783 117 l 1
 743 134 l 1
650 714 m 0
 650 702 640 694 630 694 c 0
 618 694 610 704 610 714 c 0
 610 726 620 734 630 734 c 0
 642 734 650 724 650 714 c 0
390 86 m 0
 390 74 380 66 370 66 c 0
 358 66 350 76 350 86 c 0
 350 98 360 106 370 106 c 0
 382 106 390 96 390 86 c 0
834 270 m 0
 834 258 824 250 814 250 c 0
 802 250 794 260 794 270 c 0
 794 282 804 290 814 290 c 0
 826 290 834 280 834 270 c 0
206 530 m 0
 206 518 196 510 186 510 c 0
 174 510 166 520 166 530 c 0
 166 542 176 550 186 550 c 0
 198 550 206 540 206 530 c 0
370 734 m 0
 380 734 390 726 390 714 c 0
 390 704 382 694 370 694 c 0
 360 694 350 702 350 714 c 0
 350 724 358 734 370 734 c 0
630 106 m 0
 640 106 650 98 650 86 c 0
 650 76 642 66 630 66 c 0
 620 66 610 74 610 86 c 0
 610 96 618 106 630 106 c 0
814 550 m 0
 824 550 834 542 834 530 c 0
 834 520 826 510 814 510 c 0
 804 510 794 518 794 530 c 0
 794 540 802 550 814 550 c 0
186 290 m 0
 196 290 206 282 206 270 c 0
 206 260 198 250 186 250 c 0
 176 250 166 258 166 270 c 0
 166 280 174 290 186 290 c 0
498 109 m 0
 513 109 527 106 535 104 c 1
 535 81 l 1
 520 88 509 89 502 89 c 0
 492 89 483 87 483 78 c 0
 483 72 488 70 498 68 c 2
 509 65 l 2
 531 61 541 53 541 34 c 0
 541 10 526 0 500 0 c 0
 488 0 475 2 459 8 c 1
 459 30 l 1
 467 26 474 24 479 22 c 0
 488 20 495 20 497 20 c 0
 513 20 515 26 515 31 c 0
 515 38 510 41 499 43 c 2
 489 46 l 2
 471 50 459 58 459 76 c 0
 459 99 474 109 498 109 c 0
100 452 m 1
 126 452 l 1
 144 376 l 1
 162 452 l 1
 188 452 l 1
 206 376 l 1
 224 452 l 1
 250 452 l 1
 225 348 l 1
 194 348 l 1
 175 427 l 1
 156 348 l 1
 125 348 l 1
 100 452 l 1
453 800 m 5
 483 800 l 5
 521 728 l 5
 521 800 l 5
 547 800 l 5
 547 695 l 5
 517 695 l 5
 479 767 l 5
 479 695 l 5
 453 695 l 5
 453 800 l 5
825 452 m 1
 898 452 l 1
 898 432 l 1
 852 432 l 1
 852 412 l 1
 896 412 l 1
 896 392 l 1
 852 392 l 1
 852 368 l 1
 900 368 l 1
 900 348 l 1
 825 348 l 1
 825 452 l 1
EndSplineSet
Validated: 1
EndChar

StartChar: at
Encoding: 64 64 22
Width: 1000
VWidth: 0
Flags: MW
LayerCount: 2
Fore
SplineSet
442 506 m 21
 381 435 l 5
 422 589 l 5
 559 509 l 5
 466 516 l 29
 493 459 506 425 534 370 c 4
 558 323 563 300 614 226 c 13
 549 282 l 5
 542 196 l 21
 526 285 513 305 497 354 c 4
 478 414 463 447 442 506 c 21
743 666 m 1
 783 683 l 1
 766 643 l 1
 726 626 l 1
 743 666 l 1
234 157 m 1
 274 174 l 1
 257 134 l 1
 217 117 l 1
 234 157 l 1
234 643 m 1
 217 683 l 1
 257 666 l 1
 274 626 l 1
 234 643 l 1
743 134 m 1
 726 174 l 1
 766 157 l 1
 783 117 l 1
 743 134 l 1
650 714 m 0
 650 702 640 694 630 694 c 0
 618 694 610 704 610 714 c 0
 610 726 620 734 630 734 c 0
 642 734 650 724 650 714 c 0
390 86 m 0
 390 74 380 66 370 66 c 0
 358 66 350 76 350 86 c 0
 350 98 360 106 370 106 c 0
 382 106 390 96 390 86 c 0
834 270 m 0
 834 258 824 250 814 250 c 0
 802 250 794 260 794 270 c 0
 794 282 804 290 814 290 c 0
 826 290 834 280 834 270 c 0
206 530 m 0
 206 518 196 510 186 510 c 0
 174 510 166 520 166 530 c 0
 166 542 176 550 186 550 c 0
 198 550 206 540 206 530 c 0
370 734 m 0
 380 734 390 726 390 714 c 0
 390 704 382 694 370 694 c 0
 360 694 350 702 350 714 c 0
 350 724 358 734 370 734 c 0
630 106 m 0
 640 106 650 98 650 86 c 0
 650 76 642 66 630 66 c 0
 620 66 610 74 610 86 c 0
 610 96 618 106 630 106 c 0
814 550 m 0
 824 550 834 542 834 530 c 0
 834 520 826 510 814 510 c 0
 804 510 794 518 794 530 c 0
 794 540 802 550 814 550 c 0
186 290 m 0
 196 290 206 282 206 270 c 0
 206 260 198 250 186 250 c 0
 176 250 166 258 166 270 c 0
 166 280 174 290 186 290 c 0
498 109 m 0
 513 109 527 106 535 104 c 1
 535 81 l 1
 520 88 509 89 502 89 c 0
 492 89 483 87 483 78 c 0
 483 72 488 70 498 68 c 2
 509 65 l 2
 531 61 541 53 541 34 c 0
 541 10 526 0 500 0 c 0
 488 0 475 2 459 8 c 1
 459 30 l 1
 467 26 474 24 479 22 c 0
 488 20 495 20 497 20 c 0
 513 20 515 26 515 31 c 0
 515 38 510 41 499 43 c 2
 489 46 l 2
 471 50 459 58 459 76 c 0
 459 99 474 109 498 109 c 0
100 452 m 1
 126 452 l 1
 144 376 l 1
 162 452 l 1
 188 452 l 1
 206 376 l 1
 224 452 l 1
 250 452 l 1
 225 348 l 1
 194 348 l 1
 175 427 l 1
 156 348 l 1
 125 348 l 1
 100 452 l 1
453 800 m 5
 483 800 l 5
 521 728 l 5
 521 800 l 5
 547 800 l 5
 547 695 l 5
 517 695 l 5
 479 767 l 5
 479 695 l 5
 453 695 l 5
 453 800 l 5
825 452 m 1
 898 452 l 1
 898 432 l 1
 852 432 l 1
 852 412 l 1
 896 412 l 1
 896 392 l 1
 852 392 l 1
 852 368 l 1
 900 368 l 1
 900 348 l 1
 825 348 l 1
 825 452 l 1
EndSplineSet
Validated: 1
EndChar

StartChar: A
Encoding: 65 65 23
Width: 1000
VWidth: 0
Flags: MW
LayerCount: 2
Fore
SplineSet
500 468 m 1
 500 468 493 367 485 289 c 5
 469 243 459 237 429 175 c 1
 448 264 458 314 462 366 c 0
 467 428 468 459 472 518 c 17
 385 473 l 1
 500 626 l 1
 615 473 l 1
 528 518 l 25
 532 459 533 428 538 366 c 0
 542 314 552 264 571 175 c 1
 541 237 531 243 515 289 c 1
 507 367 500 468 500 468 c 1
743 666 m 1
 783 683 l 1
 766 643 l 1
 726 626 l 1
 743 666 l 1
234 157 m 1
 274 174 l 1
 257 134 l 1
 217 117 l 1
 234 157 l 1
234 643 m 1
 217 683 l 1
 257 666 l 1
 274 626 l 1
 234 643 l 1
743 134 m 1
 726 174 l 1
 766 157 l 1
 783 117 l 1
 743 134 l 1
650 714 m 0
 650 702 640 694 630 694 c 0
 618 694 610 704 610 714 c 0
 610 726 620 734 630 734 c 0
 642 734 650 724 650 714 c 0
390 86 m 0
 390 74 380 66 370 66 c 0
 358 66 350 76 350 86 c 0
 350 98 360 106 370 106 c 0
 382 106 390 96 390 86 c 0
834 270 m 0
 834 258 824 250 814 250 c 0
 802 250 794 260 794 270 c 0
 794 282 804 290 814 290 c 0
 826 290 834 280 834 270 c 0
206 530 m 0
 206 518 196 510 186 510 c 0
 174 510 166 520 166 530 c 0
 166 542 176 550 186 550 c 0
 198 550 206 540 206 530 c 0
370 734 m 0
 380 734 390 726 390 714 c 0
 390 704 382 694 370 694 c 0
 360 694 350 702 350 714 c 0
 350 724 358 734 370 734 c 0
630 106 m 0
 640 106 650 98 650 86 c 0
 650 76 642 66 630 66 c 0
 620 66 610 74 610 86 c 0
 610 96 618 106 630 106 c 0
814 550 m 0
 824 550 834 542 834 530 c 0
 834 520 826 510 814 510 c 0
 804 510 794 518 794 530 c 0
 794 540 802 550 814 550 c 0
186 290 m 0
 196 290 206 282 206 270 c 0
 206 260 198 250 186 250 c 0
 176 250 166 258 166 270 c 0
 166 280 174 290 186 290 c 0
498 109 m 0
 513 109 527 106 535 104 c 1
 535 81 l 1
 520 88 509 89 502 89 c 0
 492 89 483 87 483 78 c 0
 483 72 488 70 498 68 c 2
 509 65 l 2
 531 61 541 53 541 34 c 0
 541 10 526 0 500 0 c 0
 488 0 475 2 459 8 c 1
 459 30 l 1
 467 26 474 24 479 22 c 0
 488 20 495 20 497 20 c 0
 513 20 515 26 515 31 c 0
 515 38 510 41 499 43 c 2
 489 46 l 2
 471 50 459 58 459 76 c 0
 459 99 474 109 498 109 c 0
100 452 m 1
 126 452 l 1
 144 376 l 1
 162 452 l 1
 188 452 l 1
 206 376 l 1
 224 452 l 1
 250 452 l 1
 225 348 l 1
 194 348 l 1
 175 427 l 1
 156 348 l 1
 125 348 l 1
 100 452 l 1
453 800 m 5
 483 800 l 5
 521 728 l 5
 521 800 l 5
 547 800 l 5
 547 695 l 5
 517 695 l 5
 479 767 l 5
 479 695 l 5
 453 695 l 5
 453 800 l 5
825 452 m 1
 898 452 l 1
 898 432 l 1
 852 432 l 1
 852 412 l 1
 896 412 l 1
 896 392 l 1
 852 392 l 1
 852 368 l 1
 900 368 l 1
 900 348 l 1
 825 348 l 1
 825 452 l 1
EndSplineSet
Validated: 1
EndChar

StartChar: B
Encoding: 66 66 24
Width: 1000
VWidth: 0
Flags: MW
LayerCount: 2
Fore
SplineSet
526 463 m 1
 526 463 481 372 443 303 c 5
 411 267 400 265 348 219 c 5
 400 294 428 337 452 383 c 0
 480 439 493 467 519 520 c 17
 421 511 l 1
 586 609 l 1
 634 423 l 1
 571 498 l 25
 552 442 541 413 522 354 c 0
 506 305 496 254 479 165 c 1
 476 222 470 238 470 270 c 0
 470 277 470 284 471 292 c 1
 494 367 526 463 526 463 c 1
743 666 m 1
 783 683 l 1
 766 643 l 1
 726 626 l 1
 743 666 l 1
234 157 m 1
 274 174 l 1
 257 134 l 1
 217 117 l 1
 234 157 l 1
234 643 m 1
 217 683 l 1
 257 666 l 1
 274 626 l 1
 234 643 l 1
743 134 m 1
 726 174 l 1
 766 157 l 1
 783 117 l 1
 743 134 l 1
650 714 m 0
 650 702 640 694 630 694 c 0
 618 694 610 704 610 714 c 0
 610 726 620 734 630 734 c 0
 642 734 650 724 650 714 c 0
390 86 m 0
 390 74 380 66 370 66 c 0
 358 66 350 76 350 86 c 0
 350 98 360 106 370 106 c 0
 382 106 390 96 390 86 c 0
834 270 m 0
 834 258 824 250 814 250 c 0
 802 250 794 260 794 270 c 0
 794 282 804 290 814 290 c 0
 826 290 834 280 834 270 c 0
206 530 m 0
 206 518 196 510 186 510 c 0
 174 510 166 520 166 530 c 0
 166 542 176 550 186 550 c 0
 198 550 206 540 206 530 c 0
370 734 m 0
 380 734 390 726 390 714 c 0
 390 704 382 694 370 694 c 0
 360 694 350 702 350 714 c 0
 350 724 358 734 370 734 c 0
630 106 m 0
 640 106 650 98 650 86 c 0
 650 76 642 66 630 66 c 0
 620 66 610 74 610 86 c 0
 610 96 618 106 630 106 c 0
814 550 m 0
 824 550 834 542 834 530 c 0
 834 520 826 510 814 510 c 0
 804 510 794 518 794 530 c 0
 794 540 802 550 814 550 c 0
186 290 m 0
 196 290 206 282 206 270 c 0
 206 260 198 250 186 250 c 0
 176 250 166 258 166 270 c 0
 166 280 174 290 186 290 c 0
498 109 m 0
 513 109 527 106 535 104 c 1
 535 81 l 1
 520 88 509 89 502 89 c 0
 492 89 483 87 483 78 c 0
 483 72 488 70 498 68 c 2
 509 65 l 2
 531 61 541 53 541 34 c 0
 541 10 526 0 500 0 c 0
 488 0 475 2 459 8 c 1
 459 30 l 1
 467 26 474 24 479 22 c 0
 488 20 495 20 497 20 c 0
 513 20 515 26 515 31 c 0
 515 38 510 41 499 43 c 2
 489 46 l 2
 471 50 459 58 459 76 c 0
 459 99 474 109 498 109 c 0
100 452 m 1
 126 452 l 1
 144 376 l 1
 162 452 l 1
 188 452 l 1
 206 376 l 1
 224 452 l 1
 250 452 l 1
 225 348 l 1
 194 348 l 1
 175 427 l 1
 156 348 l 1
 125 348 l 1
 100 452 l 1
453 800 m 5
 483 800 l 5
 521 728 l 5
 521 800 l 5
 547 800 l 5
 547 695 l 5
 517 695 l 5
 479 767 l 5
 479 695 l 5
 453 695 l 5
 453 800 l 5
825 452 m 1
 898 452 l 1
 898 432 l 1
 852 432 l 1
 852 412 l 1
 896 412 l 1
 896 392 l 1
 852 392 l 1
 852 368 l 1
 900 368 l 1
 900 348 l 1
 825 348 l 1
 825 452 l 1
EndSplineSet
Validated: 1
EndChar

StartChar: C
Encoding: 67 67 25
Width: 1000
VWidth: 0
Flags: MW
LayerCount: 2
Fore
SplineSet
548 448 m 5
 548 448 471 382 411 332 c 5
 367 311 355 314 290 291 c 5
 367 341 409 369 449 403 c 4
 496 443 519 464 563 503 c 21
 470 533 l 5
 659 560 l 5
 633 370 l 5
 603 464 l 29
 564 419 543 397 502 349 c 4
 469 310 440 267 391 191 c 5
 413 256 411 267 432 311 c 5
 481 372 548 448 548 448 c 5
743 666 m 1
 783 683 l 1
 766 643 l 1
 726 626 l 1
 743 666 l 1
234 157 m 1
 274 174 l 1
 257 134 l 1
 217 117 l 1
 234 157 l 1
234 643 m 1
 217 683 l 1
 257 666 l 1
 274 626 l 1
 234 643 l 1
743 134 m 1
 726 174 l 1
 766 157 l 1
 783 117 l 1
 743 134 l 1
650 714 m 0
 650 702 640 694 630 694 c 0
 618 694 610 704 610 714 c 0
 610 726 620 734 630 734 c 0
 642 734 650 724 650 714 c 0
390 86 m 0
 390 74 380 66 370 66 c 0
 358 66 350 76 350 86 c 0
 350 98 360 106 370 106 c 0
 382 106 390 96 390 86 c 0
834 270 m 0
 834 258 824 250 814 250 c 0
 802 250 794 260 794 270 c 0
 794 282 804 290 814 290 c 0
 826 290 834 280 834 270 c 0
206 530 m 0
 206 518 196 510 186 510 c 0
 174 510 166 520 166 530 c 0
 166 542 176 550 186 550 c 0
 198 550 206 540 206 530 c 0
370 734 m 0
 380 734 390 726 390 714 c 0
 390 704 382 694 370 694 c 0
 360 694 350 702 350 714 c 0
 350 724 358 734 370 734 c 0
630 106 m 0
 640 106 650 98 650 86 c 0
 650 76 642 66 630 66 c 0
 620 66 610 74 610 86 c 0
 610 96 618 106 630 106 c 0
814 550 m 0
 824 550 834 542 834 530 c 0
 834 520 826 510 814 510 c 0
 804 510 794 518 794 530 c 0
 794 540 802 550 814 550 c 0
186 290 m 0
 196 290 206 282 206 270 c 0
 206 260 198 250 186 250 c 0
 176 250 166 258 166 270 c 0
 166 280 174 290 186 290 c 0
498 109 m 0
 513 109 527 106 535 104 c 1
 535 81 l 1
 520 88 509 89 502 89 c 0
 492 89 483 87 483 78 c 0
 483 72 488 70 498 68 c 2
 509 65 l 2
 531 61 541 53 541 34 c 0
 541 10 526 0 500 0 c 0
 488 0 475 2 459 8 c 1
 459 30 l 1
 467 26 474 24 479 22 c 0
 488 20 495 20 497 20 c 0
 513 20 515 26 515 31 c 0
 515 38 510 41 499 43 c 2
 489 46 l 2
 471 50 459 58 459 76 c 0
 459 99 474 109 498 109 c 0
100 452 m 1
 126 452 l 1
 144 376 l 1
 162 452 l 1
 188 452 l 1
 206 376 l 1
 224 452 l 1
 250 452 l 1
 225 348 l 1
 194 348 l 1
 175 427 l 1
 156 348 l 1
 125 348 l 1
 100 452 l 1
453 800 m 5
 483 800 l 5
 521 728 l 5
 521 800 l 5
 547 800 l 5
 547 695 l 5
 517 695 l 5
 479 767 l 5
 479 695 l 5
 453 695 l 5
 453 800 l 5
825 452 m 1
 898 452 l 1
 898 432 l 1
 852 432 l 1
 852 412 l 1
 896 412 l 1
 896 392 l 1
 852 392 l 1
 852 368 l 1
 900 368 l 1
 900 348 l 1
 825 348 l 1
 825 452 l 1
EndSplineSet
Validated: 1
EndChar

StartChar: D
Encoding: 68 68 26
Width: 1000
VWidth: 0
Flags: MW
LayerCount: 2
Fore
SplineSet
562 426 m 1
 562 426 466 394 391 372 c 1
 383 371 376 371 370 371 c 0
 338 371 321 377 264 380 c 1
 354 396 404 406 454 422 c 0
 513 442 542 452 598 471 c 17
 523 534 l 1
 708 487 l 1
 611 322 l 1
 619 420 l 25
 566 393 538 381 483 352 c 0
 436 329 394 300 319 249 c 1
 365 300 366 312 403 344 c 1
 472 381 562 426 562 426 c 1
743 666 m 1
 783 683 l 1
 766 643 l 1
 726 626 l 1
 743 666 l 1
234 157 m 1
 274 174 l 1
 257 134 l 1
 217 117 l 1
 234 157 l 1
234 643 m 1
 217 683 l 1
 257 666 l 1
 274 626 l 1
 234 643 l 1
743 134 m 1
 726 174 l 1
 766 157 l 1
 783 117 l 1
 743 134 l 1
650 714 m 0
 650 702 640 694 630 694 c 0
 618 694 610 704 610 714 c 0
 610 726 620 734 630 734 c 0
 642 734 650 724 650 714 c 0
390 86 m 0
 390 74 380 66 370 66 c 0
 358 66 350 76 350 86 c 0
 350 98 360 106 370 106 c 0
 382 106 390 96 390 86 c 0
834 270 m 0
 834 258 824 250 814 250 c 0
 802 250 794 260 794 270 c 0
 794 282 804 290 814 290 c 0
 826 290 834 280 834 270 c 0
206 530 m 0
 206 518 196 510 186 510 c 0
 174 510 166 520 166 530 c 0
 166 542 176 550 186 550 c 0
 198 550 206 540 206 530 c 0
370 734 m 0
 380 734 390 726 390 714 c 0
 390 704 382 694 370 694 c 0
 360 694 350 702 350 714 c 0
 350 724 358 734 370 734 c 0
630 106 m 0
 640 106 650 98 650 86 c 0
 650 76 642 66 630 66 c 0
 620 66 610 74 610 86 c 0
 610 96 618 106 630 106 c 0
814 550 m 0
 824 550 834 542 834 530 c 0
 834 520 826 510 814 510 c 0
 804 510 794 518 794 530 c 0
 794 540 802 550 814 550 c 0
186 290 m 0
 196 290 206 282 206 270 c 0
 206 260 198 250 186 250 c 0
 176 250 166 258 166 270 c 0
 166 280 174 290 186 290 c 0
498 109 m 0
 513 109 527 106 535 104 c 1
 535 81 l 1
 520 88 509 89 502 89 c 0
 492 89 483 87 483 78 c 0
 483 72 488 70 498 68 c 2
 509 65 l 2
 531 61 541 53 541 34 c 0
 541 10 526 0 500 0 c 0
 488 0 475 2 459 8 c 1
 459 30 l 1
 467 26 474 24 479 22 c 0
 488 20 495 20 497 20 c 0
 513 20 515 26 515 31 c 0
 515 38 510 41 499 43 c 2
 489 46 l 2
 471 50 459 58 459 76 c 0
 459 99 474 109 498 109 c 0
100 452 m 1
 126 452 l 1
 144 376 l 1
 162 452 l 1
 188 452 l 1
 206 376 l 1
 224 452 l 1
 250 452 l 1
 225 348 l 1
 194 348 l 1
 175 427 l 1
 156 348 l 1
 125 348 l 1
 100 452 l 1
453 800 m 5
 483 800 l 5
 521 728 l 5
 521 800 l 5
 547 800 l 5
 547 695 l 5
 517 695 l 5
 479 767 l 5
 479 695 l 5
 453 695 l 5
 453 800 l 5
825 452 m 1
 898 452 l 1
 898 432 l 1
 852 432 l 1
 852 412 l 1
 896 412 l 1
 896 392 l 1
 852 392 l 1
 852 368 l 1
 900 368 l 1
 900 348 l 1
 825 348 l 1
 825 452 l 1
EndSplineSet
Validated: 1
EndChar

StartChar: E
Encoding: 69 69 27
Width: 1000
VWidth: 0
Flags: MW
LayerCount: 2
Fore
SplineSet
568 400 m 5
 568 400 466 408 388 416 c 5
 342 432 336 442 274 472 c 5
 364 452 414 442 466 438 c 4
 528 434 558 432 618 428 c 21
 572 516 l 5
 726 400 l 5
 572 286 l 5
 618 372 l 29
 558 368 528 368 466 362 c 4
 414 358 364 348 274 330 c 5
 336 360 342 370 388 386 c 5
 466 394 568 400 568 400 c 5
743 666 m 1
 783 683 l 1
 766 643 l 1
 726 626 l 1
 743 666 l 1
234 157 m 1
 274 174 l 1
 257 134 l 1
 217 117 l 1
 234 157 l 1
234 643 m 1
 217 683 l 1
 257 666 l 1
 274 626 l 1
 234 643 l 1
743 134 m 1
 726 174 l 1
 766 157 l 1
 783 117 l 1
 743 134 l 1
650 714 m 0
 650 702 640 694 630 694 c 0
 618 694 610 704 610 714 c 0
 610 726 620 734 630 734 c 0
 642 734 650 724 650 714 c 0
390 86 m 0
 390 74 380 66 370 66 c 0
 358 66 350 76 350 86 c 0
 350 98 360 106 370 106 c 0
 382 106 390 96 390 86 c 0
834 270 m 0
 834 258 824 250 814 250 c 0
 802 250 794 260 794 270 c 0
 794 282 804 290 814 290 c 0
 826 290 834 280 834 270 c 0
206 530 m 0
 206 518 196 510 186 510 c 0
 174 510 166 520 166 530 c 0
 166 542 176 550 186 550 c 0
 198 550 206 540 206 530 c 0
370 734 m 0
 380 734 390 726 390 714 c 0
 390 704 382 694 370 694 c 0
 360 694 350 702 350 714 c 0
 350 724 358 734 370 734 c 0
630 106 m 0
 640 106 650 98 650 86 c 0
 650 76 642 66 630 66 c 0
 620 66 610 74 610 86 c 0
 610 96 618 106 630 106 c 0
814 550 m 0
 824 550 834 542 834 530 c 0
 834 520 826 510 814 510 c 0
 804 510 794 518 794 530 c 0
 794 540 802 550 814 550 c 0
186 290 m 0
 196 290 206 282 206 270 c 0
 206 260 198 250 186 250 c 0
 176 250 166 258 166 270 c 0
 166 280 174 290 186 290 c 0
498 109 m 0
 513 109 527 106 535 104 c 1
 535 81 l 1
 520 88 509 89 502 89 c 0
 492 89 483 87 483 78 c 0
 483 72 488 70 498 68 c 2
 509 65 l 2
 531 61 541 53 541 34 c 0
 541 10 526 0 500 0 c 0
 488 0 475 2 459 8 c 1
 459 30 l 1
 467 26 474 24 479 22 c 0
 488 20 495 20 497 20 c 0
 513 20 515 26 515 31 c 0
 515 38 510 41 499 43 c 2
 489 46 l 2
 471 50 459 58 459 76 c 0
 459 99 474 109 498 109 c 0
100 452 m 1
 126 452 l 1
 144 376 l 1
 162 452 l 1
 188 452 l 1
 206 376 l 1
 224 452 l 1
 250 452 l 1
 225 348 l 1
 194 348 l 1
 175 427 l 1
 156 348 l 1
 125 348 l 1
 100 452 l 1
453 800 m 5
 483 800 l 5
 521 728 l 5
 521 800 l 5
 547 800 l 5
 547 695 l 5
 517 695 l 5
 479 767 l 5
 479 695 l 5
 453 695 l 5
 453 800 l 5
825 452 m 1
 898 452 l 1
 898 432 l 1
 852 432 l 1
 852 412 l 1
 896 412 l 1
 896 392 l 1
 852 392 l 1
 852 368 l 1
 900 368 l 1
 900 348 l 1
 825 348 l 1
 825 452 l 1
EndSplineSet
Validated: 1
EndChar

StartChar: F
Encoding: 70 70 28
Width: 1000
VWidth: 0
Flags: MW
LayerCount: 2
Fore
SplineSet
562 375 m 1
 562 375 472 420 403 457 c 1
 366 489 365 501 319 552 c 1
 394 501 436 472 483 449 c 0
 538 420 566 408 619 381 c 17
 611 479 l 1
 708 314 l 1
 523 267 l 1
 598 330 l 25
 542 349 513 359 454 379 c 0
 404 395 354 405 264 421 c 1
 321 424 338 430 370 430 c 0
 376 430 383 430 391 429 c 1
 466 407 562 375 562 375 c 1
743 666 m 1
 783 683 l 1
 766 643 l 1
 726 626 l 1
 743 666 l 1
234 157 m 1
 274 174 l 1
 257 134 l 1
 217 117 l 1
 234 157 l 1
234 643 m 1
 217 683 l 1
 257 666 l 1
 274 626 l 1
 234 643 l 1
743 134 m 1
 726 174 l 1
 766 157 l 1
 783 117 l 1
 743 134 l 1
650 714 m 0
 650 702 640 694 630 694 c 0
 618 694 610 704 610 714 c 0
 610 726 620 734 630 734 c 0
 642 734 650 724 650 714 c 0
390 86 m 0
 390 74 380 66 370 66 c 0
 358 66 350 76 350 86 c 0
 350 98 360 106 370 106 c 0
 382 106 390 96 390 86 c 0
834 270 m 0
 834 258 824 250 814 250 c 0
 802 250 794 260 794 270 c 0
 794 282 804 290 814 290 c 0
 826 290 834 280 834 270 c 0
206 530 m 0
 206 518 196 510 186 510 c 0
 174 510 166 520 166 530 c 0
 166 542 176 550 186 550 c 0
 198 550 206 540 206 530 c 0
370 734 m 0
 380 734 390 726 390 714 c 0
 390 704 382 694 370 694 c 0
 360 694 350 702 350 714 c 0
 350 724 358 734 370 734 c 0
630 106 m 0
 640 106 650 98 650 86 c 0
 650 76 642 66 630 66 c 0
 620 66 610 74 610 86 c 0
 610 96 618 106 630 106 c 0
814 550 m 0
 824 550 834 542 834 530 c 0
 834 520 826 510 814 510 c 0
 804 510 794 518 794 530 c 0
 794 540 802 550 814 550 c 0
186 290 m 0
 196 290 206 282 206 270 c 0
 206 260 198 250 186 250 c 0
 176 250 166 258 166 270 c 0
 166 280 174 290 186 290 c 0
498 109 m 0
 513 109 527 106 535 104 c 1
 535 81 l 1
 520 88 509 89 502 89 c 0
 492 89 483 87 483 78 c 0
 483 72 488 70 498 68 c 2
 509 65 l 2
 531 61 541 53 541 34 c 0
 541 10 526 0 500 0 c 0
 488 0 475 2 459 8 c 1
 459 30 l 1
 467 26 474 24 479 22 c 0
 488 20 495 20 497 20 c 0
 513 20 515 26 515 31 c 0
 515 38 510 41 499 43 c 2
 489 46 l 2
 471 50 459 58 459 76 c 0
 459 99 474 109 498 109 c 0
100 452 m 1
 126 452 l 1
 144 376 l 1
 162 452 l 1
 188 452 l 1
 206 376 l 1
 224 452 l 1
 250 452 l 1
 225 348 l 1
 194 348 l 1
 175 427 l 1
 156 348 l 1
 125 348 l 1
 100 452 l 1
453 800 m 5
 483 800 l 5
 521 728 l 5
 521 800 l 5
 547 800 l 5
 547 695 l 5
 517 695 l 5
 479 767 l 5
 479 695 l 5
 453 695 l 5
 453 800 l 5
825 452 m 1
 898 452 l 1
 898 432 l 1
 852 432 l 1
 852 412 l 1
 896 412 l 1
 896 392 l 1
 852 392 l 1
 852 368 l 1
 900 368 l 1
 900 348 l 1
 825 348 l 1
 825 452 l 1
EndSplineSet
Validated: 1
EndChar

StartChar: G
Encoding: 71 71 29
Width: 1000
VWidth: 0
Flags: MW
LayerCount: 2
Fore
SplineSet
548 353 m 5
 548 353 481 429 432 490 c 5
 411 534 413 545 391 610 c 5
 440 534 469 491 502 452 c 4
 543 404 564 382 603 337 c 21
 633 431 l 5
 659 241 l 5
 470 268 l 5
 563 298 l 29
 519 337 496 358 449 398 c 4
 409 432 367 460 290 510 c 5
 355 487 367 490 411 469 c 5
 471 419 548 353 548 353 c 5
743 666 m 1
 783 683 l 1
 766 643 l 1
 726 626 l 1
 743 666 l 1
234 157 m 1
 274 174 l 1
 257 134 l 1
 217 117 l 1
 234 157 l 1
234 643 m 1
 217 683 l 1
 257 666 l 1
 274 626 l 1
 234 643 l 1
743 134 m 1
 726 174 l 1
 766 157 l 1
 783 117 l 1
 743 134 l 1
650 714 m 0
 650 702 640 694 630 694 c 0
 618 694 610 704 610 714 c 0
 610 726 620 734 630 734 c 0
 642 734 650 724 650 714 c 0
390 86 m 0
 390 74 380 66 370 66 c 0
 358 66 350 76 350 86 c 0
 350 98 360 106 370 106 c 0
 382 106 390 96 390 86 c 0
834 270 m 0
 834 258 824 250 814 250 c 0
 802 250 794 260 794 270 c 0
 794 282 804 290 814 290 c 0
 826 290 834 280 834 270 c 0
206 530 m 0
 206 518 196 510 186 510 c 0
 174 510 166 520 166 530 c 0
 166 542 176 550 186 550 c 0
 198 550 206 540 206 530 c 0
370 734 m 0
 380 734 390 726 390 714 c 0
 390 704 382 694 370 694 c 0
 360 694 350 702 350 714 c 0
 350 724 358 734 370 734 c 0
630 106 m 0
 640 106 650 98 650 86 c 0
 650 76 642 66 630 66 c 0
 620 66 610 74 610 86 c 0
 610 96 618 106 630 106 c 0
814 550 m 0
 824 550 834 542 834 530 c 0
 834 520 826 510 814 510 c 0
 804 510 794 518 794 530 c 0
 794 540 802 550 814 550 c 0
186 290 m 0
 196 290 206 282 206 270 c 0
 206 260 198 250 186 250 c 0
 176 250 166 258 166 270 c 0
 166 280 174 290 186 290 c 0
498 109 m 0
 513 109 527 106 535 104 c 1
 535 81 l 1
 520 88 509 89 502 89 c 0
 492 89 483 87 483 78 c 0
 483 72 488 70 498 68 c 2
 509 65 l 2
 531 61 541 53 541 34 c 0
 541 10 526 0 500 0 c 0
 488 0 475 2 459 8 c 1
 459 30 l 1
 467 26 474 24 479 22 c 0
 488 20 495 20 497 20 c 0
 513 20 515 26 515 31 c 0
 515 38 510 41 499 43 c 2
 489 46 l 2
 471 50 459 58 459 76 c 0
 459 99 474 109 498 109 c 0
100 452 m 1
 126 452 l 1
 144 376 l 1
 162 452 l 1
 188 452 l 1
 206 376 l 1
 224 452 l 1
 250 452 l 1
 225 348 l 1
 194 348 l 1
 175 427 l 1
 156 348 l 1
 125 348 l 1
 100 452 l 1
453 800 m 5
 483 800 l 5
 521 728 l 5
 521 800 l 5
 547 800 l 5
 547 695 l 5
 517 695 l 5
 479 767 l 5
 479 695 l 5
 453 695 l 5
 453 800 l 5
825 452 m 1
 898 452 l 1
 898 432 l 1
 852 432 l 1
 852 412 l 1
 896 412 l 1
 896 392 l 1
 852 392 l 1
 852 368 l 1
 900 368 l 1
 900 348 l 1
 825 348 l 1
 825 452 l 1
EndSplineSet
Validated: 1
EndChar

StartChar: H
Encoding: 72 72 30
Width: 1000
VWidth: 0
Flags: MW
LayerCount: 2
Fore
SplineSet
526 338 m 1
 526 338 494 434 471 509 c 1
 470 517 470 524 470 531 c 0
 470 563 476 579 479 636 c 1
 496 547 506 496 522 447 c 0
 541 388 552 359 571 303 c 17
 634 378 l 1
 586 192 l 1
 421 290 l 1
 519 281 l 25
 493 334 480 362 452 418 c 0
 428 464 400 507 348 582 c 1
 400 536 411 534 443 498 c 1
 481 429 526 338 526 338 c 1
743 666 m 1
 783 683 l 1
 766 643 l 1
 726 626 l 1
 743 666 l 1
234 157 m 1
 274 174 l 1
 257 134 l 1
 217 117 l 1
 234 157 l 1
234 643 m 1
 217 683 l 1
 257 666 l 1
 274 626 l 1
 234 643 l 1
743 134 m 1
 726 174 l 1
 766 157 l 1
 783 117 l 1
 743 134 l 1
650 714 m 0
 650 702 640 694 630 694 c 0
 618 694 610 704 610 714 c 0
 610 726 620 734 630 734 c 0
 642 734 650 724 650 714 c 0
390 86 m 0
 390 74 380 66 370 66 c 0
 358 66 350 76 350 86 c 0
 350 98 360 106 370 106 c 0
 382 106 390 96 390 86 c 0
834 270 m 0
 834 258 824 250 814 250 c 0
 802 250 794 260 794 270 c 0
 794 282 804 290 814 290 c 0
 826 290 834 280 834 270 c 0
206 530 m 0
 206 518 196 510 186 510 c 0
 174 510 166 520 166 530 c 0
 166 542 176 550 186 550 c 0
 198 550 206 540 206 530 c 0
370 734 m 0
 380 734 390 726 390 714 c 0
 390 704 382 694 370 694 c 0
 360 694 350 702 350 714 c 0
 350 724 358 734 370 734 c 0
630 106 m 0
 640 106 650 98 650 86 c 0
 650 76 642 66 630 66 c 0
 620 66 610 74 610 86 c 0
 610 96 618 106 630 106 c 0
814 550 m 0
 824 550 834 542 834 530 c 0
 834 520 826 510 814 510 c 0
 804 510 794 518 794 530 c 0
 794 540 802 550 814 550 c 0
186 290 m 0
 196 290 206 282 206 270 c 0
 206 260 198 250 186 250 c 0
 176 250 166 258 166 270 c 0
 166 280 174 290 186 290 c 0
498 109 m 0
 513 109 527 106 535 104 c 1
 535 81 l 1
 520 88 509 89 502 89 c 0
 492 89 483 87 483 78 c 0
 483 72 488 70 498 68 c 2
 509 65 l 2
 531 61 541 53 541 34 c 0
 541 10 526 0 500 0 c 0
 488 0 475 2 459 8 c 1
 459 30 l 1
 467 26 474 24 479 22 c 0
 488 20 495 20 497 20 c 0
 513 20 515 26 515 31 c 0
 515 38 510 41 499 43 c 2
 489 46 l 2
 471 50 459 58 459 76 c 0
 459 99 474 109 498 109 c 0
100 452 m 1
 126 452 l 1
 144 376 l 1
 162 452 l 1
 188 452 l 1
 206 376 l 1
 224 452 l 1
 250 452 l 1
 225 348 l 1
 194 348 l 1
 175 427 l 1
 156 348 l 1
 125 348 l 1
 100 452 l 1
453 800 m 5
 483 800 l 5
 521 728 l 5
 521 800 l 5
 547 800 l 5
 547 695 l 5
 517 695 l 5
 479 767 l 5
 479 695 l 5
 453 695 l 5
 453 800 l 5
825 452 m 1
 898 452 l 1
 898 432 l 1
 852 432 l 1
 852 412 l 1
 896 412 l 1
 896 392 l 1
 852 392 l 1
 852 368 l 1
 900 368 l 1
 900 348 l 1
 825 348 l 1
 825 452 l 1
EndSplineSet
Validated: 1
EndChar

StartChar: I
Encoding: 73 73 31
Width: 1000
VWidth: 0
Flags: MW
LayerCount: 2
Fore
SplineSet
500 333 m 5
 500 333 507 434 515 512 c 5
 531 558 541 564 571 626 c 5
 552 537 542 487 538 435 c 4
 533 373 532 342 528 283 c 21
 615 328 l 5
 500 175 l 5
 385 328 l 5
 472 283 l 29
 468 342 467 373 462 435 c 4
 458 487 448 537 429 626 c 5
 459 564 469 558 485 512 c 5
 493 434 500 333 500 333 c 5
743 666 m 1
 783 683 l 1
 766 643 l 1
 726 626 l 1
 743 666 l 1
234 157 m 1
 274 174 l 1
 257 134 l 1
 217 117 l 1
 234 157 l 1
234 643 m 1
 217 683 l 1
 257 666 l 1
 274 626 l 1
 234 643 l 1
743 134 m 1
 726 174 l 1
 766 157 l 1
 783 117 l 1
 743 134 l 1
650 714 m 0
 650 702 640 694 630 694 c 0
 618 694 610 704 610 714 c 0
 610 726 620 734 630 734 c 0
 642 734 650 724 650 714 c 0
390 86 m 0
 390 74 380 66 370 66 c 0
 358 66 350 76 350 86 c 0
 350 98 360 106 370 106 c 0
 382 106 390 96 390 86 c 0
834 270 m 0
 834 258 824 250 814 250 c 0
 802 250 794 260 794 270 c 0
 794 282 804 290 814 290 c 0
 826 290 834 280 834 270 c 0
206 530 m 0
 206 518 196 510 186 510 c 0
 174 510 166 520 166 530 c 0
 166 542 176 550 186 550 c 0
 198 550 206 540 206 530 c 0
370 734 m 0
 380 734 390 726 390 714 c 0
 390 704 382 694 370 694 c 0
 360 694 350 702 350 714 c 0
 350 724 358 734 370 734 c 0
630 106 m 0
 640 106 650 98 650 86 c 0
 650 76 642 66 630 66 c 0
 620 66 610 74 610 86 c 0
 610 96 618 106 630 106 c 0
814 550 m 0
 824 550 834 542 834 530 c 0
 834 520 826 510 814 510 c 0
 804 510 794 518 794 530 c 0
 794 540 802 550 814 550 c 0
186 290 m 0
 196 290 206 282 206 270 c 0
 206 260 198 250 186 250 c 0
 176 250 166 258 166 270 c 0
 166 280 174 290 186 290 c 0
498 109 m 0
 513 109 527 106 535 104 c 1
 535 81 l 1
 520 88 509 89 502 89 c 0
 492 89 483 87 483 78 c 0
 483 72 488 70 498 68 c 2
 509 65 l 2
 531 61 541 53 541 34 c 0
 541 10 526 0 500 0 c 0
 488 0 475 2 459 8 c 1
 459 30 l 1
 467 26 474 24 479 22 c 0
 488 20 495 20 497 20 c 0
 513 20 515 26 515 31 c 0
 515 38 510 41 499 43 c 2
 489 46 l 2
 471 50 459 58 459 76 c 0
 459 99 474 109 498 109 c 0
100 452 m 1
 126 452 l 1
 144 376 l 1
 162 452 l 1
 188 452 l 1
 206 376 l 1
 224 452 l 1
 250 452 l 1
 225 348 l 1
 194 348 l 1
 175 427 l 1
 156 348 l 1
 125 348 l 1
 100 452 l 1
453 800 m 5
 483 800 l 5
 521 728 l 5
 521 800 l 5
 547 800 l 5
 547 695 l 5
 517 695 l 5
 479 767 l 5
 479 695 l 5
 453 695 l 5
 453 800 l 5
825 452 m 1
 898 452 l 1
 898 432 l 1
 852 432 l 1
 852 412 l 1
 896 412 l 1
 896 392 l 1
 852 392 l 1
 852 368 l 1
 900 368 l 1
 900 348 l 1
 825 348 l 1
 825 452 l 1
EndSplineSet
Validated: 1
EndChar

StartChar: J
Encoding: 74 74 32
Width: 1000
VWidth: 0
Flags: MW
LayerCount: 2
Fore
SplineSet
474 338 m 1
 474 338 519 429 557 498 c 1
 589 534 600 536 652 582 c 1
 600 507 572 464 548 418 c 0
 520 362 507 334 481 281 c 17
 579 290 l 1
 414 192 l 1
 366 378 l 1
 429 303 l 25
 448 359 459 388 478 447 c 0
 494 496 504 547 521 636 c 1
 524 579 530 563 530 531 c 0
 530 524 530 517 529 509 c 1
 506 434 474 338 474 338 c 1
743 666 m 1
 783 683 l 1
 766 643 l 1
 726 626 l 1
 743 666 l 1
234 157 m 1
 274 174 l 1
 257 134 l 1
 217 117 l 1
 234 157 l 1
234 643 m 1
 217 683 l 1
 257 666 l 1
 274 626 l 1
 234 643 l 1
743 134 m 1
 726 174 l 1
 766 157 l 1
 783 117 l 1
 743 134 l 1
650 714 m 0
 650 702 640 694 630 694 c 0
 618 694 610 704 610 714 c 0
 610 726 620 734 630 734 c 0
 642 734 650 724 650 714 c 0
390 86 m 0
 390 74 380 66 370 66 c 0
 358 66 350 76 350 86 c 0
 350 98 360 106 370 106 c 0
 382 106 390 96 390 86 c 0
834 270 m 0
 834 258 824 250 814 250 c 0
 802 250 794 260 794 270 c 0
 794 282 804 290 814 290 c 0
 826 290 834 280 834 270 c 0
206 530 m 0
 206 518 196 510 186 510 c 0
 174 510 166 520 166 530 c 0
 166 542 176 550 186 550 c 0
 198 550 206 540 206 530 c 0
370 734 m 0
 380 734 390 726 390 714 c 0
 390 704 382 694 370 694 c 0
 360 694 350 702 350 714 c 0
 350 724 358 734 370 734 c 0
630 106 m 0
 640 106 650 98 650 86 c 0
 650 76 642 66 630 66 c 0
 620 66 610 74 610 86 c 0
 610 96 618 106 630 106 c 0
814 550 m 0
 824 550 834 542 834 530 c 0
 834 520 826 510 814 510 c 0
 804 510 794 518 794 530 c 0
 794 540 802 550 814 550 c 0
186 290 m 0
 196 290 206 282 206 270 c 0
 206 260 198 250 186 250 c 0
 176 250 166 258 166 270 c 0
 166 280 174 290 186 290 c 0
498 109 m 0
 513 109 527 106 535 104 c 1
 535 81 l 1
 520 88 509 89 502 89 c 0
 492 89 483 87 483 78 c 0
 483 72 488 70 498 68 c 2
 509 65 l 2
 531 61 541 53 541 34 c 0
 541 10 526 0 500 0 c 0
 488 0 475 2 459 8 c 1
 459 30 l 1
 467 26 474 24 479 22 c 0
 488 20 495 20 497 20 c 0
 513 20 515 26 515 31 c 0
 515 38 510 41 499 43 c 2
 489 46 l 2
 471 50 459 58 459 76 c 0
 459 99 474 109 498 109 c 0
100 452 m 1
 126 452 l 1
 144 376 l 1
 162 452 l 1
 188 452 l 1
 206 376 l 1
 224 452 l 1
 250 452 l 1
 225 348 l 1
 194 348 l 1
 175 427 l 1
 156 348 l 1
 125 348 l 1
 100 452 l 1
453 800 m 5
 483 800 l 5
 521 728 l 5
 521 800 l 5
 547 800 l 5
 547 695 l 5
 517 695 l 5
 479 767 l 5
 479 695 l 5
 453 695 l 5
 453 800 l 5
825 452 m 1
 898 452 l 1
 898 432 l 1
 852 432 l 1
 852 412 l 1
 896 412 l 1
 896 392 l 1
 852 392 l 1
 852 368 l 1
 900 368 l 1
 900 348 l 1
 825 348 l 1
 825 452 l 1
EndSplineSet
Validated: 1
EndChar

StartChar: K
Encoding: 75 75 33
Width: 1000
VWidth: 0
Flags: MW
LayerCount: 2
Fore
SplineSet
452 353 m 5
 452 353 529 419 589 469 c 5
 633 490 645 487 710 510 c 5
 633 460 591 432 551 398 c 4
 504 358 481 337 437 298 c 21
 530 268 l 5
 341 241 l 5
 367 431 l 5
 397 337 l 29
 436 382 457 404 498 452 c 4
 531 491 560 534 609 610 c 5
 587 545 589 534 568 490 c 5
 519 429 452 353 452 353 c 5
743 666 m 1
 783 683 l 1
 766 643 l 1
 726 626 l 1
 743 666 l 1
234 157 m 1
 274 174 l 1
 257 134 l 1
 217 117 l 1
 234 157 l 1
234 643 m 1
 217 683 l 1
 257 666 l 1
 274 626 l 1
 234 643 l 1
743 134 m 1
 726 174 l 1
 766 157 l 1
 783 117 l 1
 743 134 l 1
650 714 m 0
 650 702 640 694 630 694 c 0
 618 694 610 704 610 714 c 0
 610 726 620 734 630 734 c 0
 642 734 650 724 650 714 c 0
390 86 m 0
 390 74 380 66 370 66 c 0
 358 66 350 76 350 86 c 0
 350 98 360 106 370 106 c 0
 382 106 390 96 390 86 c 0
834 270 m 0
 834 258 824 250 814 250 c 0
 802 250 794 260 794 270 c 0
 794 282 804 290 814 290 c 0
 826 290 834 280 834 270 c 0
206 530 m 0
 206 518 196 510 186 510 c 0
 174 510 166 520 166 530 c 0
 166 542 176 550 186 550 c 0
 198 550 206 540 206 530 c 0
370 734 m 0
 380 734 390 726 390 714 c 0
 390 704 382 694 370 694 c 0
 360 694 350 702 350 714 c 0
 350 724 358 734 370 734 c 0
630 106 m 0
 640 106 650 98 650 86 c 0
 650 76 642 66 630 66 c 0
 620 66 610 74 610 86 c 0
 610 96 618 106 630 106 c 0
814 550 m 0
 824 550 834 542 834 530 c 0
 834 520 826 510 814 510 c 0
 804 510 794 518 794 530 c 0
 794 540 802 550 814 550 c 0
186 290 m 0
 196 290 206 282 206 270 c 0
 206 260 198 250 186 250 c 0
 176 250 166 258 166 270 c 0
 166 280 174 290 186 290 c 0
498 109 m 0
 513 109 527 106 535 104 c 1
 535 81 l 1
 520 88 509 89 502 89 c 0
 492 89 483 87 483 78 c 0
 483 72 488 70 498 68 c 2
 509 65 l 2
 531 61 541 53 541 34 c 0
 541 10 526 0 500 0 c 0
 488 0 475 2 459 8 c 1
 459 30 l 1
 467 26 474 24 479 22 c 0
 488 20 495 20 497 20 c 0
 513 20 515 26 515 31 c 0
 515 38 510 41 499 43 c 2
 489 46 l 2
 471 50 459 58 459 76 c 0
 459 99 474 109 498 109 c 0
100 452 m 1
 126 452 l 1
 144 376 l 1
 162 452 l 1
 188 452 l 1
 206 376 l 1
 224 452 l 1
 250 452 l 1
 225 348 l 1
 194 348 l 1
 175 427 l 1
 156 348 l 1
 125 348 l 1
 100 452 l 1
453 800 m 5
 483 800 l 5
 521 728 l 5
 521 800 l 5
 547 800 l 5
 547 695 l 5
 517 695 l 5
 479 767 l 5
 479 695 l 5
 453 695 l 5
 453 800 l 5
825 452 m 1
 898 452 l 1
 898 432 l 1
 852 432 l 1
 852 412 l 1
 896 412 l 1
 896 392 l 1
 852 392 l 1
 852 368 l 1
 900 368 l 1
 900 348 l 1
 825 348 l 1
 825 452 l 1
EndSplineSet
Validated: 1
EndChar

StartChar: L
Encoding: 76 76 34
Width: 1000
VWidth: 0
Flags: MW
LayerCount: 2
Fore
SplineSet
438 375 m 1
 438 375 534 407 609 429 c 1
 617 430 624 430 630 430 c 0
 662 430 679 424 736 421 c 1
 646 405 596 395 546 379 c 0
 487 359 458 349 402 330 c 17
 477 267 l 1
 292 314 l 1
 389 479 l 1
 381 381 l 25
 434 408 462 420 517 449 c 0
 564 472 606 501 681 552 c 1
 635 501 634 489 597 457 c 1
 528 420 438 375 438 375 c 1
743 666 m 1
 783 683 l 1
 766 643 l 1
 726 626 l 1
 743 666 l 1
234 157 m 1
 274 174 l 1
 257 134 l 1
 217 117 l 1
 234 157 l 1
234 643 m 1
 217 683 l 1
 257 666 l 1
 274 626 l 1
 234 643 l 1
743 134 m 1
 726 174 l 1
 766 157 l 1
 783 117 l 1
 743 134 l 1
650 714 m 0
 650 702 640 694 630 694 c 0
 618 694 610 704 610 714 c 0
 610 726 620 734 630 734 c 0
 642 734 650 724 650 714 c 0
390 86 m 0
 390 74 380 66 370 66 c 0
 358 66 350 76 350 86 c 0
 350 98 360 106 370 106 c 0
 382 106 390 96 390 86 c 0
834 270 m 0
 834 258 824 250 814 250 c 0
 802 250 794 260 794 270 c 0
 794 282 804 290 814 290 c 0
 826 290 834 280 834 270 c 0
206 530 m 0
 206 518 196 510 186 510 c 0
 174 510 166 520 166 530 c 0
 166 542 176 550 186 550 c 0
 198 550 206 540 206 530 c 0
370 734 m 0
 380 734 390 726 390 714 c 0
 390 704 382 694 370 694 c 0
 360 694 350 702 350 714 c 0
 350 724 358 734 370 734 c 0
630 106 m 0
 640 106 650 98 650 86 c 0
 650 76 642 66 630 66 c 0
 620 66 610 74 610 86 c 0
 610 96 618 106 630 106 c 0
814 550 m 0
 824 550 834 542 834 530 c 0
 834 520 826 510 814 510 c 0
 804 510 794 518 794 530 c 0
 794 540 802 550 814 550 c 0
186 290 m 0
 196 290 206 282 206 270 c 0
 206 260 198 250 186 250 c 0
 176 250 166 258 166 270 c 0
 166 280 174 290 186 290 c 0
498 109 m 0
 513 109 527 106 535 104 c 1
 535 81 l 1
 520 88 509 89 502 89 c 0
 492 89 483 87 483 78 c 0
 483 72 488 70 498 68 c 2
 509 65 l 2
 531 61 541 53 541 34 c 0
 541 10 526 0 500 0 c 0
 488 0 475 2 459 8 c 1
 459 30 l 1
 467 26 474 24 479 22 c 0
 488 20 495 20 497 20 c 0
 513 20 515 26 515 31 c 0
 515 38 510 41 499 43 c 2
 489 46 l 2
 471 50 459 58 459 76 c 0
 459 99 474 109 498 109 c 0
100 452 m 1
 126 452 l 1
 144 376 l 1
 162 452 l 1
 188 452 l 1
 206 376 l 1
 224 452 l 1
 250 452 l 1
 225 348 l 1
 194 348 l 1
 175 427 l 1
 156 348 l 1
 125 348 l 1
 100 452 l 1
453 800 m 5
 483 800 l 5
 521 728 l 5
 521 800 l 5
 547 800 l 5
 547 695 l 5
 517 695 l 5
 479 767 l 5
 479 695 l 5
 453 695 l 5
 453 800 l 5
825 452 m 1
 898 452 l 1
 898 432 l 1
 852 432 l 1
 852 412 l 1
 896 412 l 1
 896 392 l 1
 852 392 l 1
 852 368 l 1
 900 368 l 1
 900 348 l 1
 825 348 l 1
 825 452 l 1
EndSplineSet
Validated: 1
EndChar

StartChar: M
Encoding: 77 77 35
Width: 1000
VWidth: 0
Flags: MW
LayerCount: 2
Fore
SplineSet
432 400 m 5
 432 400 534 394 612 386 c 5
 658 370 664 360 726 330 c 5
 636 348 586 358 534 362 c 4
 472 368 442 368 382 372 c 21
 428 286 l 5
 274 400 l 5
 428 516 l 5
 382 428 l 29
 442 432 472 434 534 438 c 4
 586 442 636 452 726 472 c 5
 664 442 658 432 612 416 c 5
 534 408 432 400 432 400 c 5
743 666 m 1
 783 683 l 1
 766 643 l 1
 726 626 l 1
 743 666 l 1
234 157 m 1
 274 174 l 1
 257 134 l 1
 217 117 l 1
 234 157 l 1
234 643 m 1
 217 683 l 1
 257 666 l 1
 274 626 l 1
 234 643 l 1
743 134 m 1
 726 174 l 1
 766 157 l 1
 783 117 l 1
 743 134 l 1
650 714 m 0
 650 702 640 694 630 694 c 0
 618 694 610 704 610 714 c 0
 610 726 620 734 630 734 c 0
 642 734 650 724 650 714 c 0
390 86 m 0
 390 74 380 66 370 66 c 0
 358 66 350 76 350 86 c 0
 350 98 360 106 370 106 c 0
 382 106 390 96 390 86 c 0
834 270 m 0
 834 258 824 250 814 250 c 0
 802 250 794 260 794 270 c 0
 794 282 804 290 814 290 c 0
 826 290 834 280 834 270 c 0
206 530 m 0
 206 518 196 510 186 510 c 0
 174 510 166 520 166 530 c 0
 166 542 176 550 186 550 c 0
 198 550 206 540 206 530 c 0
370 734 m 0
 380 734 390 726 390 714 c 0
 390 704 382 694 370 694 c 0
 360 694 350 702 350 714 c 0
 350 724 358 734 370 734 c 0
630 106 m 0
 640 106 650 98 650 86 c 0
 650 76 642 66 630 66 c 0
 620 66 610 74 610 86 c 0
 610 96 618 106 630 106 c 0
814 550 m 0
 824 550 834 542 834 530 c 0
 834 520 826 510 814 510 c 0
 804 510 794 518 794 530 c 0
 794 540 802 550 814 550 c 0
186 290 m 0
 196 290 206 282 206 270 c 0
 206 260 198 250 186 250 c 0
 176 250 166 258 166 270 c 0
 166 280 174 290 186 290 c 0
498 109 m 0
 513 109 527 106 535 104 c 1
 535 81 l 1
 520 88 509 89 502 89 c 0
 492 89 483 87 483 78 c 0
 483 72 488 70 498 68 c 2
 509 65 l 2
 531 61 541 53 541 34 c 0
 541 10 526 0 500 0 c 0
 488 0 475 2 459 8 c 1
 459 30 l 1
 467 26 474 24 479 22 c 0
 488 20 495 20 497 20 c 0
 513 20 515 26 515 31 c 0
 515 38 510 41 499 43 c 2
 489 46 l 2
 471 50 459 58 459 76 c 0
 459 99 474 109 498 109 c 0
100 452 m 1
 126 452 l 1
 144 376 l 1
 162 452 l 1
 188 452 l 1
 206 376 l 1
 224 452 l 1
 250 452 l 1
 225 348 l 1
 194 348 l 1
 175 427 l 1
 156 348 l 1
 125 348 l 1
 100 452 l 1
453 800 m 5
 483 800 l 5
 521 728 l 5
 521 800 l 5
 547 800 l 5
 547 695 l 5
 517 695 l 5
 479 767 l 5
 479 695 l 5
 453 695 l 5
 453 800 l 5
825 452 m 1
 898 452 l 1
 898 432 l 1
 852 432 l 1
 852 412 l 1
 896 412 l 1
 896 392 l 1
 852 392 l 1
 852 368 l 1
 900 368 l 1
 900 348 l 1
 825 348 l 1
 825 452 l 1
EndSplineSet
Validated: 1
EndChar

StartChar: N
Encoding: 78 78 36
Width: 1000
VWidth: 0
Flags: MW
LayerCount: 2
Fore
SplineSet
438 426 m 1
 438 426 528 381 597 344 c 1
 634 312 635 300 681 249 c 1
 606 300 564 329 517 352 c 0
 462 381 434 393 381 420 c 17
 389 322 l 1
 292 487 l 1
 477 534 l 1
 402 471 l 25
 458 452 487 442 546 422 c 0
 596 406 646 396 736 380 c 1
 679 377 662 371 630 371 c 0
 624 371 617 371 609 372 c 1
 534 394 438 426 438 426 c 1
743 666 m 1
 783 683 l 1
 766 643 l 1
 726 626 l 1
 743 666 l 1
234 157 m 1
 274 174 l 1
 257 134 l 1
 217 117 l 1
 234 157 l 1
234 643 m 1
 217 683 l 1
 257 666 l 1
 274 626 l 1
 234 643 l 1
743 134 m 1
 726 174 l 1
 766 157 l 1
 783 117 l 1
 743 134 l 1
650 714 m 0
 650 702 640 694 630 694 c 0
 618 694 610 704 610 714 c 0
 610 726 620 734 630 734 c 0
 642 734 650 724 650 714 c 0
390 86 m 0
 390 74 380 66 370 66 c 0
 358 66 350 76 350 86 c 0
 350 98 360 106 370 106 c 0
 382 106 390 96 390 86 c 0
834 270 m 0
 834 258 824 250 814 250 c 0
 802 250 794 260 794 270 c 0
 794 282 804 290 814 290 c 0
 826 290 834 280 834 270 c 0
206 530 m 0
 206 518 196 510 186 510 c 0
 174 510 166 520 166 530 c 0
 166 542 176 550 186 550 c 0
 198 550 206 540 206 530 c 0
370 734 m 0
 380 734 390 726 390 714 c 0
 390 704 382 694 370 694 c 0
 360 694 350 702 350 714 c 0
 350 724 358 734 370 734 c 0
630 106 m 0
 640 106 650 98 650 86 c 0
 650 76 642 66 630 66 c 0
 620 66 610 74 610 86 c 0
 610 96 618 106 630 106 c 0
814 550 m 0
 824 550 834 542 834 530 c 0
 834 520 826 510 814 510 c 0
 804 510 794 518 794 530 c 0
 794 540 802 550 814 550 c 0
186 290 m 0
 196 290 206 282 206 270 c 0
 206 260 198 250 186 250 c 0
 176 250 166 258 166 270 c 0
 166 280 174 290 186 290 c 0
498 109 m 0
 513 109 527 106 535 104 c 1
 535 81 l 1
 520 88 509 89 502 89 c 0
 492 89 483 87 483 78 c 0
 483 72 488 70 498 68 c 2
 509 65 l 2
 531 61 541 53 541 34 c 0
 541 10 526 0 500 0 c 0
 488 0 475 2 459 8 c 1
 459 30 l 1
 467 26 474 24 479 22 c 0
 488 20 495 20 497 20 c 0
 513 20 515 26 515 31 c 0
 515 38 510 41 499 43 c 2
 489 46 l 2
 471 50 459 58 459 76 c 0
 459 99 474 109 498 109 c 0
100 452 m 1
 126 452 l 1
 144 376 l 1
 162 452 l 1
 188 452 l 1
 206 376 l 1
 224 452 l 1
 250 452 l 1
 225 348 l 1
 194 348 l 1
 175 427 l 1
 156 348 l 1
 125 348 l 1
 100 452 l 1
453 800 m 5
 483 800 l 5
 521 728 l 5
 521 800 l 5
 547 800 l 5
 547 695 l 5
 517 695 l 5
 479 767 l 5
 479 695 l 5
 453 695 l 5
 453 800 l 5
825 452 m 1
 898 452 l 1
 898 432 l 1
 852 432 l 1
 852 412 l 1
 896 412 l 1
 896 392 l 1
 852 392 l 1
 852 368 l 1
 900 368 l 1
 900 348 l 1
 825 348 l 1
 825 452 l 1
EndSplineSet
Validated: 1
EndChar

StartChar: O
Encoding: 79 79 37
Width: 1000
VWidth: 0
Flags: MW
LayerCount: 2
Fore
SplineSet
452 448 m 5
 452 448 519 372 568 311 c 5
 589 267 587 256 609 191 c 5
 560 267 531 310 498 349 c 4
 457 397 436 419 397 464 c 21
 367 370 l 5
 341 560 l 5
 530 533 l 5
 437 503 l 29
 481 464 504 443 551 403 c 4
 591 369 633 341 710 291 c 5
 645 314 633 311 589 332 c 5
 529 382 452 448 452 448 c 5
743 666 m 1
 783 683 l 1
 766 643 l 1
 726 626 l 1
 743 666 l 1
234 157 m 1
 274 174 l 1
 257 134 l 1
 217 117 l 1
 234 157 l 1
234 643 m 1
 217 683 l 1
 257 666 l 1
 274 626 l 1
 234 643 l 1
743 134 m 1
 726 174 l 1
 766 157 l 1
 783 117 l 1
 743 134 l 1
650 714 m 0
 650 702 640 694 630 694 c 0
 618 694 610 704 610 714 c 0
 610 726 620 734 630 734 c 0
 642 734 650 724 650 714 c 0
390 86 m 0
 390 74 380 66 370 66 c 0
 358 66 350 76 350 86 c 0
 350 98 360 106 370 106 c 0
 382 106 390 96 390 86 c 0
834 270 m 0
 834 258 824 250 814 250 c 0
 802 250 794 260 794 270 c 0
 794 282 804 290 814 290 c 0
 826 290 834 280 834 270 c 0
206 530 m 0
 206 518 196 510 186 510 c 0
 174 510 166 520 166 530 c 0
 166 542 176 550 186 550 c 0
 198 550 206 540 206 530 c 0
370 734 m 0
 380 734 390 726 390 714 c 0
 390 704 382 694 370 694 c 0
 360 694 350 702 350 714 c 0
 350 724 358 734 370 734 c 0
630 106 m 0
 640 106 650 98 650 86 c 0
 650 76 642 66 630 66 c 0
 620 66 610 74 610 86 c 0
 610 96 618 106 630 106 c 0
814 550 m 0
 824 550 834 542 834 530 c 0
 834 520 826 510 814 510 c 0
 804 510 794 518 794 530 c 0
 794 540 802 550 814 550 c 0
186 290 m 0
 196 290 206 282 206 270 c 0
 206 260 198 250 186 250 c 0
 176 250 166 258 166 270 c 0
 166 280 174 290 186 290 c 0
498 109 m 0
 513 109 527 106 535 104 c 1
 535 81 l 1
 520 88 509 89 502 89 c 0
 492 89 483 87 483 78 c 0
 483 72 488 70 498 68 c 2
 509 65 l 2
 531 61 541 53 541 34 c 0
 541 10 526 0 500 0 c 0
 488 0 475 2 459 8 c 1
 459 30 l 1
 467 26 474 24 479 22 c 0
 488 20 495 20 497 20 c 0
 513 20 515 26 515 31 c 0
 515 38 510 41 499 43 c 2
 489 46 l 2
 471 50 459 58 459 76 c 0
 459 99 474 109 498 109 c 0
100 452 m 1
 126 452 l 1
 144 376 l 1
 162 452 l 1
 188 452 l 1
 206 376 l 1
 224 452 l 1
 250 452 l 1
 225 348 l 1
 194 348 l 1
 175 427 l 1
 156 348 l 1
 125 348 l 1
 100 452 l 1
453 800 m 5
 483 800 l 5
 521 728 l 5
 521 800 l 5
 547 800 l 5
 547 695 l 5
 517 695 l 5
 479 767 l 5
 479 695 l 5
 453 695 l 5
 453 800 l 5
825 452 m 1
 898 452 l 1
 898 432 l 1
 852 432 l 1
 852 412 l 1
 896 412 l 1
 896 392 l 1
 852 392 l 1
 852 368 l 1
 900 368 l 1
 900 348 l 1
 825 348 l 1
 825 452 l 1
EndSplineSet
Validated: 1
EndChar

StartChar: P
Encoding: 80 80 38
Width: 1000
VWidth: 0
Flags: MW
LayerCount: 2
Fore
SplineSet
474 463 m 1
 474 463 506 367 529 292 c 1
 530 284 530 277 530 270 c 0
 530 238 524 222 521 165 c 1
 504 254 494 305 478 354 c 0
 459 413 448 442 429 498 c 17
 366 423 l 1
 414 609 l 1
 579 511 l 1
 481 520 l 25
 507 467 520 439 548 383 c 0
 572 337 600 294 652 219 c 1
 600 265 589 267 557 303 c 1
 519 372 474 463 474 463 c 1
743 666 m 1
 783 683 l 1
 766 643 l 1
 726 626 l 1
 743 666 l 1
234 157 m 1
 274 174 l 1
 257 134 l 1
 217 117 l 1
 234 157 l 1
234 643 m 1
 217 683 l 1
 257 666 l 1
 274 626 l 1
 234 643 l 1
743 134 m 1
 726 174 l 1
 766 157 l 1
 783 117 l 1
 743 134 l 1
650 714 m 0
 650 702 640 694 630 694 c 0
 618 694 610 704 610 714 c 0
 610 726 620 734 630 734 c 0
 642 734 650 724 650 714 c 0
390 86 m 0
 390 74 380 66 370 66 c 0
 358 66 350 76 350 86 c 0
 350 98 360 106 370 106 c 0
 382 106 390 96 390 86 c 0
834 270 m 0
 834 258 824 250 814 250 c 0
 802 250 794 260 794 270 c 0
 794 282 804 290 814 290 c 0
 826 290 834 280 834 270 c 0
206 530 m 0
 206 518 196 510 186 510 c 0
 174 510 166 520 166 530 c 0
 166 542 176 550 186 550 c 0
 198 550 206 540 206 530 c 0
370 734 m 0
 380 734 390 726 390 714 c 0
 390 704 382 694 370 694 c 0
 360 694 350 702 350 714 c 0
 350 724 358 734 370 734 c 0
630 106 m 0
 640 106 650 98 650 86 c 0
 650 76 642 66 630 66 c 0
 620 66 610 74 610 86 c 0
 610 96 618 106 630 106 c 0
814 550 m 0
 824 550 834 542 834 530 c 0
 834 520 826 510 814 510 c 0
 804 510 794 518 794 530 c 0
 794 540 802 550 814 550 c 0
186 290 m 0
 196 290 206 282 206 270 c 0
 206 260 198 250 186 250 c 0
 176 250 166 258 166 270 c 0
 166 280 174 290 186 290 c 0
498 109 m 0
 513 109 527 106 535 104 c 1
 535 81 l 1
 520 88 509 89 502 89 c 0
 492 89 483 87 483 78 c 0
 483 72 488 70 498 68 c 2
 509 65 l 2
 531 61 541 53 541 34 c 0
 541 10 526 0 500 0 c 0
 488 0 475 2 459 8 c 1
 459 30 l 1
 467 26 474 24 479 22 c 0
 488 20 495 20 497 20 c 0
 513 20 515 26 515 31 c 0
 515 38 510 41 499 43 c 2
 489 46 l 2
 471 50 459 58 459 76 c 0
 459 99 474 109 498 109 c 0
100 452 m 1
 126 452 l 1
 144 376 l 1
 162 452 l 1
 188 452 l 1
 206 376 l 1
 224 452 l 1
 250 452 l 1
 225 348 l 1
 194 348 l 1
 175 427 l 1
 156 348 l 1
 125 348 l 1
 100 452 l 1
453 800 m 5
 483 800 l 5
 521 728 l 5
 521 800 l 5
 547 800 l 5
 547 695 l 5
 517 695 l 5
 479 767 l 5
 479 695 l 5
 453 695 l 5
 453 800 l 5
825 452 m 1
 898 452 l 1
 898 432 l 1
 852 432 l 1
 852 412 l 1
 896 412 l 1
 896 392 l 1
 852 392 l 1
 852 368 l 1
 900 368 l 1
 900 348 l 1
 825 348 l 1
 825 452 l 1
EndSplineSet
Validated: 1
EndChar

StartChar: Q
Encoding: 81 81 39
Width: 1000
VWidth: 0
Flags: MW
LayerCount: 2
Fore
SplineSet
500 645 m 1
 574 572 l 1
 536 581 l 1
 625 477 l 1
 540 521 l 25
 548 459 550 429 560 361 c 0
 569 299 584 239 610 155 c 1
 576 213 563 216 540 265 c 1
 528 317 514 440 514 440 c 13
 514 404 514 403 514 347 c 0
 514 295 519 261 538 172 c 9
 500 246 l 1
 462 172 l 17
 481 261 486 295 486 347 c 0
 486 401 486 404 486 440 c 17
 486 440 472 317 460 265 c 1
 437 216 424 213 390 155 c 1
 416 239 431 299 440 361 c 0
 450 429 452 459 460 521 c 25
 375 477 l 1
 464 581 l 1
 426 572 l 1
 500 645 l 1
743 666 m 1
 783 683 l 1
 766 643 l 1
 726 626 l 1
 743 666 l 1
234 157 m 1
 274 174 l 1
 257 134 l 1
 217 117 l 1
 234 157 l 1
234 643 m 1
 217 683 l 1
 257 666 l 1
 274 626 l 1
 234 643 l 1
743 134 m 1
 726 174 l 1
 766 157 l 1
 783 117 l 1
 743 134 l 1
650 714 m 0
 650 702 640 694 630 694 c 0
 618 694 610 704 610 714 c 0
 610 726 620 734 630 734 c 0
 642 734 650 724 650 714 c 0
390 86 m 0
 390 74 380 66 370 66 c 0
 358 66 350 76 350 86 c 0
 350 98 360 106 370 106 c 0
 382 106 390 96 390 86 c 0
834 270 m 0
 834 258 824 250 814 250 c 0
 802 250 794 260 794 270 c 0
 794 282 804 290 814 290 c 0
 826 290 834 280 834 270 c 0
206 530 m 0
 206 518 196 510 186 510 c 0
 174 510 166 520 166 530 c 0
 166 542 176 550 186 550 c 0
 198 550 206 540 206 530 c 0
370 734 m 0
 380 734 390 726 390 714 c 0
 390 704 382 694 370 694 c 0
 360 694 350 702 350 714 c 0
 350 724 358 734 370 734 c 0
630 106 m 0
 640 106 650 98 650 86 c 0
 650 76 642 66 630 66 c 0
 620 66 610 74 610 86 c 0
 610 96 618 106 630 106 c 0
814 550 m 0
 824 550 834 542 834 530 c 0
 834 520 826 510 814 510 c 0
 804 510 794 518 794 530 c 0
 794 540 802 550 814 550 c 0
186 290 m 0
 196 290 206 282 206 270 c 0
 206 260 198 250 186 250 c 0
 176 250 166 258 166 270 c 0
 166 280 174 290 186 290 c 0
498 109 m 0
 513 109 527 106 535 104 c 1
 535 81 l 1
 520 88 509 89 502 89 c 0
 492 89 483 87 483 78 c 0
 483 72 488 70 498 68 c 2
 509 65 l 2
 531 61 541 53 541 34 c 0
 541 10 526 0 500 0 c 0
 488 0 475 2 459 8 c 1
 459 30 l 1
 467 26 474 24 479 22 c 0
 488 20 495 20 497 20 c 0
 513 20 515 26 515 31 c 0
 515 38 510 41 499 43 c 2
 489 46 l 2
 471 50 459 58 459 76 c 0
 459 99 474 109 498 109 c 0
100 452 m 1
 126 452 l 1
 144 376 l 1
 162 452 l 1
 188 452 l 1
 206 376 l 1
 224 452 l 1
 250 452 l 1
 225 348 l 1
 194 348 l 1
 175 427 l 1
 156 348 l 1
 125 348 l 1
 100 452 l 1
453 800 m 5
 483 800 l 5
 521 728 l 5
 521 800 l 5
 547 800 l 5
 547 695 l 5
 517 695 l 5
 479 767 l 5
 479 695 l 5
 453 695 l 5
 453 800 l 5
825 452 m 1
 898 452 l 1
 898 432 l 1
 852 432 l 1
 852 412 l 1
 896 412 l 1
 896 392 l 1
 852 392 l 1
 852 368 l 1
 900 368 l 1
 900 348 l 1
 825 348 l 1
 825 452 l 1
EndSplineSet
Validated: 1
EndChar

StartChar: R
Encoding: 82 82 40
Width: 1000
VWidth: 0
Flags: MW
LayerCount: 2
Fore
SplineSet
594 626 m 1
 634 531 l 1
 603 553 l 1
 645 423 l 1
 583 496 l 25
 567 436 557 408 541 341 c 0
 525 280 516 219 508 132 c 1
 499 198 488 206 485 260 c 1
 494 313 528 432 528 432 c 9
 514 398 514 397 493 346 c 0
 473 298 464 264 448 175 c 9
 441 258 l 1
 378 204 l 17
 429 279 447 308 467 356 c 0
 487 406 489 409 502 442 c 17
 502 442 442 334 411 291 c 1
 371 254 358 256 305 216 c 1
 361 283 398 333 430 387 c 0
 465 446 478 473 509 527 c 25
 414 519 l 1
 536 581 l 1
 497 587 l 1
 594 626 l 1
743 666 m 1
 783 683 l 1
 766 643 l 1
 726 626 l 1
 743 666 l 1
234 157 m 1
 274 174 l 1
 257 134 l 1
 217 117 l 1
 234 157 l 1
234 643 m 1
 217 683 l 1
 257 666 l 1
 274 626 l 1
 234 643 l 1
743 134 m 1
 726 174 l 1
 766 157 l 1
 783 117 l 1
 743 134 l 1
650 714 m 0
 650 702 640 694 630 694 c 0
 618 694 610 704 610 714 c 0
 610 726 620 734 630 734 c 0
 642 734 650 724 650 714 c 0
390 86 m 0
 390 74 380 66 370 66 c 0
 358 66 350 76 350 86 c 0
 350 98 360 106 370 106 c 0
 382 106 390 96 390 86 c 0
834 270 m 0
 834 258 824 250 814 250 c 0
 802 250 794 260 794 270 c 0
 794 282 804 290 814 290 c 0
 826 290 834 280 834 270 c 0
206 530 m 0
 206 518 196 510 186 510 c 0
 174 510 166 520 166 530 c 0
 166 542 176 550 186 550 c 0
 198 550 206 540 206 530 c 0
370 734 m 0
 380 734 390 726 390 714 c 0
 390 704 382 694 370 694 c 0
 360 694 350 702 350 714 c 0
 350 724 358 734 370 734 c 0
630 106 m 0
 640 106 650 98 650 86 c 0
 650 76 642 66 630 66 c 0
 620 66 610 74 610 86 c 0
 610 96 618 106 630 106 c 0
814 550 m 0
 824 550 834 542 834 530 c 0
 834 520 826 510 814 510 c 0
 804 510 794 518 794 530 c 0
 794 540 802 550 814 550 c 0
186 290 m 0
 196 290 206 282 206 270 c 0
 206 260 198 250 186 250 c 0
 176 250 166 258 166 270 c 0
 166 280 174 290 186 290 c 0
498 109 m 0
 513 109 527 106 535 104 c 1
 535 81 l 1
 520 88 509 89 502 89 c 0
 492 89 483 87 483 78 c 0
 483 72 488 70 498 68 c 2
 509 65 l 2
 531 61 541 53 541 34 c 0
 541 10 526 0 500 0 c 0
 488 0 475 2 459 8 c 1
 459 30 l 1
 467 26 474 24 479 22 c 0
 488 20 495 20 497 20 c 0
 513 20 515 26 515 31 c 0
 515 38 510 41 499 43 c 2
 489 46 l 2
 471 50 459 58 459 76 c 0
 459 99 474 109 498 109 c 0
100 452 m 1
 126 452 l 1
 144 376 l 1
 162 452 l 1
 188 452 l 1
 206 376 l 1
 224 452 l 1
 250 452 l 1
 225 348 l 1
 194 348 l 1
 175 427 l 1
 156 348 l 1
 125 348 l 1
 100 452 l 1
453 800 m 5
 483 800 l 5
 521 728 l 5
 521 800 l 5
 547 800 l 5
 547 695 l 5
 517 695 l 5
 479 767 l 5
 479 695 l 5
 453 695 l 5
 453 800 l 5
825 452 m 1
 898 452 l 1
 898 432 l 1
 852 432 l 1
 852 412 l 1
 896 412 l 1
 896 392 l 1
 852 392 l 1
 852 368 l 1
 900 368 l 1
 900 348 l 1
 825 348 l 1
 825 452 l 1
EndSplineSet
Validated: 1
EndChar

StartChar: S
Encoding: 83 83 41
Width: 1000
VWidth: 0
Flags: MW
LayerCount: 2
Fore
SplineSet
673 573 m 1
 674 469 l 1
 653 503 l 1
 643 366 l 1
 614 457 l 25
 576 408 556 385 515 330 c 0
 477 280 446 227 405 149 c 1
 422 214 414 225 433 276 c 1
 461 322 538 418 538 418 c 9
 513 393 512 392 472 353 c 0
 436 316 415 288 366 212 c 9
 391 291 l 1
 312 266 l 17
 388 315 416 336 453 372 c 0
 491 411 493 413 518 438 c 17
 518 438 422 361 376 333 c 1
 325 314 314 322 249 305 c 1
 327 346 380 377 430 415 c 0
 485 456 508 476 557 514 c 25
 466 543 l 1
 603 553 l 1
 569 574 l 1
 673 573 l 1
743 666 m 1
 783 683 l 1
 766 643 l 1
 726 626 l 1
 743 666 l 1
234 157 m 1
 274 174 l 1
 257 134 l 1
 217 117 l 1
 234 157 l 1
234 643 m 1
 217 683 l 1
 257 666 l 1
 274 626 l 1
 234 643 l 1
743 134 m 1
 726 174 l 1
 766 157 l 1
 783 117 l 1
 743 134 l 1
650 714 m 0
 650 702 640 694 630 694 c 0
 618 694 610 704 610 714 c 0
 610 726 620 734 630 734 c 0
 642 734 650 724 650 714 c 0
390 86 m 0
 390 74 380 66 370 66 c 0
 358 66 350 76 350 86 c 0
 350 98 360 106 370 106 c 0
 382 106 390 96 390 86 c 0
834 270 m 0
 834 258 824 250 814 250 c 0
 802 250 794 260 794 270 c 0
 794 282 804 290 814 290 c 0
 826 290 834 280 834 270 c 0
206 530 m 0
 206 518 196 510 186 510 c 0
 174 510 166 520 166 530 c 0
 166 542 176 550 186 550 c 0
 198 550 206 540 206 530 c 0
370 734 m 0
 380 734 390 726 390 714 c 0
 390 704 382 694 370 694 c 0
 360 694 350 702 350 714 c 0
 350 724 358 734 370 734 c 0
630 106 m 0
 640 106 650 98 650 86 c 0
 650 76 642 66 630 66 c 0
 620 66 610 74 610 86 c 0
 610 96 618 106 630 106 c 0
814 550 m 0
 824 550 834 542 834 530 c 0
 834 520 826 510 814 510 c 0
 804 510 794 518 794 530 c 0
 794 540 802 550 814 550 c 0
186 290 m 0
 196 290 206 282 206 270 c 0
 206 260 198 250 186 250 c 0
 176 250 166 258 166 270 c 0
 166 280 174 290 186 290 c 0
498 109 m 0
 513 109 527 106 535 104 c 1
 535 81 l 1
 520 88 509 89 502 89 c 0
 492 89 483 87 483 78 c 0
 483 72 488 70 498 68 c 2
 509 65 l 2
 531 61 541 53 541 34 c 0
 541 10 526 0 500 0 c 0
 488 0 475 2 459 8 c 1
 459 30 l 1
 467 26 474 24 479 22 c 0
 488 20 495 20 497 20 c 0
 513 20 515 26 515 31 c 0
 515 38 510 41 499 43 c 2
 489 46 l 2
 471 50 459 58 459 76 c 0
 459 99 474 109 498 109 c 0
100 452 m 1
 126 452 l 1
 144 376 l 1
 162 452 l 1
 188 452 l 1
 206 376 l 1
 224 452 l 1
 250 452 l 1
 225 348 l 1
 194 348 l 1
 175 427 l 1
 156 348 l 1
 125 348 l 1
 100 452 l 1
453 800 m 5
 483 800 l 5
 521 728 l 5
 521 800 l 5
 547 800 l 5
 547 695 l 5
 517 695 l 5
 479 767 l 5
 479 695 l 5
 453 695 l 5
 453 800 l 5
825 452 m 1
 898 452 l 1
 898 432 l 1
 852 432 l 1
 852 412 l 1
 896 412 l 1
 896 392 l 1
 852 392 l 1
 852 368 l 1
 900 368 l 1
 900 348 l 1
 825 348 l 1
 825 452 l 1
EndSplineSet
Validated: 1
EndChar

StartChar: T
Encoding: 84 84 42
Width: 1000
VWidth: 0
Flags: MW
LayerCount: 2
Fore
SplineSet
825 452 m 1
 898 452 l 1
 898 432 l 1
 852 432 l 1
 852 412 l 1
 896 412 l 1
 896 392 l 1
 852 392 l 1
 852 368 l 1
 900 368 l 1
 900 348 l 1
 825 348 l 1
 825 452 l 1
453 800 m 1
 483 800 l 1
 521 728 l 1
 521 800 l 1
 547 800 l 1
 547 695 l 1
 517 695 l 1
 479 767 l 1
 479 695 l 1
 453 695 l 1
 453 800 l 1
498 109 m 0
 513 109 527 106 535 104 c 1
 535 81 l 1
 520 88 509 89 502 89 c 0
 492 89 483 87 483 78 c 0
 483 72 488 70 498 68 c 2
 509 65 l 2
 531 61 541 53 541 34 c 0
 541 10 526 0 500 0 c 0
 488 0 475 2 459 8 c 1
 459 30 l 1
 467 26 474 24 479 22 c 0
 488 20 495 20 497 20 c 0
 513 20 515 26 515 31 c 0
 515 38 510 41 499 43 c 2
 489 46 l 2
 471 50 459 58 459 76 c 0
 459 99 474 109 498 109 c 0
186 290 m 0
 196 290 206 282 206 270 c 0
 206 260 198 250 186 250 c 0
 176 250 166 258 166 270 c 0
 166 280 174 290 186 290 c 0
814 550 m 0
 824 550 834 542 834 530 c 0
 834 520 826 510 814 510 c 0
 804 510 794 518 794 530 c 0
 794 540 802 550 814 550 c 0
630 106 m 0
 640 106 650 98 650 86 c 0
 650 76 642 66 630 66 c 0
 620 66 610 74 610 86 c 0
 610 96 618 106 630 106 c 0
370 734 m 0
 380 734 390 726 390 714 c 0
 390 704 382 694 370 694 c 0
 360 694 350 702 350 714 c 0
 350 724 358 734 370 734 c 0
206 530 m 0
 206 518 196 510 186 510 c 0
 174 510 166 520 166 530 c 0
 166 542 176 550 186 550 c 0
 198 550 206 540 206 530 c 0
834 270 m 0
 834 258 824 250 814 250 c 0
 802 250 794 260 794 270 c 0
 794 282 804 290 814 290 c 0
 826 290 834 280 834 270 c 0
390 86 m 0
 390 74 380 66 370 66 c 0
 358 66 350 76 350 86 c 0
 350 98 360 106 370 106 c 0
 382 106 390 96 390 86 c 0
650 714 m 0
 650 702 640 694 630 694 c 0
 618 694 610 704 610 714 c 0
 610 726 620 734 630 734 c 0
 642 734 650 724 650 714 c 0
743 134 m 1
 726 174 l 1
 766 157 l 1
 783 117 l 1
 743 134 l 1
234 643 m 1
 217 683 l 1
 257 666 l 1
 274 626 l 1
 234 643 l 1
234 157 m 1
 274 174 l 1
 257 134 l 1
 217 117 l 1
 234 157 l 1
743 666 m 1
 783 683 l 1
 766 643 l 1
 726 626 l 1
 743 666 l 1
100 452 m 1
 126 452 l 1
 144 376 l 1
 162 452 l 1
 188 452 l 1
 206 376 l 1
 224 452 l 1
 250 452 l 1
 239.593 408.707 l 1
 322.58 416.534 381.79 425.47 441 441 c 0
 508 457 536 467 596 483 c 1
 523 545 l 1
 653 503 l 1
 631 534 l 1
 726 494 l 1
 687 397 l 1
 681 436 l 1
 619 314 l 1
 627 409 l 1
 573 378 546.008 364.986 487 330 c 0
 433.007 297.987 383 261 316 205 c 1
 356 258 354 271 391 311 c 1
 434 342 542 402 542 402 c 1
 509 389 508 388 456 367 c 0
 408 347 379 329 304 278 c 1
 358 341 l 1
 275 348 l 1
 364 364 398 373 446 393 c 0
 496 413 498 414 532 428 c 1
 532 428 413 394 360 385 c 1
 308.023 387.888 298.664 398.187 239.178 406.981 c 1
 225 348 l 1
 194 348 l 1
 175 427 l 1
 156 348 l 1
 125 348 l 1
 100 452 l 1
EndSplineSet
Validated: 524289
EndChar

StartChar: U
Encoding: 85 85 43
Width: 1000
VWidth: 0
Flags: MW
LayerCount: 2
Fore
SplineSet
745 400 m 1
 672 326 l 1
 681 364 l 1
 577 275 l 1
 621 360 l 25
 559 352 529 350 461 340 c 0
 399 331 339 316 255 290 c 1
 313 324 316 337 365 360 c 1
 417 372 540 386 540 386 c 9
 504 386 503 386 447 386 c 0
 395 386 361 381 272 362 c 9
 346 400 l 1
 272 438 l 17
 361 419 395 414 447 414 c 0
 501 414 504 414 540 414 c 17
 540 414 417 428 365 440 c 1
 316 463 313 476 255 510 c 1
 339 484 399 469 461 460 c 0
 529 450 559 448 621 440 c 25
 577 525 l 1
 681 436 l 1
 672 474 l 1
 745 400 l 1
743 666 m 1
 783 683 l 1
 766 643 l 1
 726 626 l 1
 743 666 l 1
234 157 m 1
 274 174 l 1
 257 134 l 1
 217 117 l 1
 234 157 l 1
234 643 m 1
 217 683 l 1
 257 666 l 1
 274 626 l 1
 234 643 l 1
743 134 m 1
 726 174 l 1
 766 157 l 1
 783 117 l 1
 743 134 l 1
650 714 m 0
 650 702 640 694 630 694 c 0
 618 694 610 704 610 714 c 0
 610 726 620 734 630 734 c 0
 642 734 650 724 650 714 c 0
390 86 m 0
 390 74 380 66 370 66 c 0
 358 66 350 76 350 86 c 0
 350 98 360 106 370 106 c 0
 382 106 390 96 390 86 c 0
834 270 m 0
 834 258 824 250 814 250 c 0
 802 250 794 260 794 270 c 0
 794 282 804 290 814 290 c 0
 826 290 834 280 834 270 c 0
206 530 m 0
 206 518 196 510 186 510 c 0
 174 510 166 520 166 530 c 0
 166 542 176 550 186 550 c 0
 198 550 206 540 206 530 c 0
370 734 m 0
 380 734 390 726 390 714 c 0
 390 704 382 694 370 694 c 0
 360 694 350 702 350 714 c 0
 350 724 358 734 370 734 c 0
630 106 m 0
 640 106 650 98 650 86 c 0
 650 76 642 66 630 66 c 0
 620 66 610 74 610 86 c 0
 610 96 618 106 630 106 c 0
814 550 m 0
 824 550 834 542 834 530 c 0
 834 520 826 510 814 510 c 0
 804 510 794 518 794 530 c 0
 794 540 802 550 814 550 c 0
186 290 m 0
 196 290 206 282 206 270 c 0
 206 260 198 250 186 250 c 0
 176 250 166 258 166 270 c 0
 166 280 174 290 186 290 c 0
498 109 m 0
 513 109 527 106 535 104 c 1
 535 81 l 1
 520 88 509 89 502 89 c 0
 492 89 483 87 483 78 c 0
 483 72 488 70 498 68 c 2
 509 65 l 2
 531 61 541 53 541 34 c 0
 541 10 526 0 500 0 c 0
 488 0 475 2 459 8 c 1
 459 30 l 1
 467 26 474 24 479 22 c 0
 488 20 495 20 497 20 c 0
 513 20 515 26 515 31 c 0
 515 38 510 41 499 43 c 2
 489 46 l 2
 471 50 459 58 459 76 c 0
 459 99 474 109 498 109 c 0
100 452 m 1
 126 452 l 1
 144 376 l 1
 162 452 l 1
 188 452 l 1
 206 376 l 1
 224 452 l 1
 250 452 l 1
 225 348 l 1
 194 348 l 1
 175 427 l 1
 156 348 l 1
 125 348 l 1
 100 452 l 1
453 800 m 5
 483 800 l 5
 521 728 l 5
 521 800 l 5
 547 800 l 5
 547 695 l 5
 517 695 l 5
 479 767 l 5
 479 695 l 5
 453 695 l 5
 453 800 l 5
825 452 m 1
 898 452 l 1
 898 432 l 1
 852 432 l 1
 852 412 l 1
 896 412 l 1
 896 392 l 1
 852 392 l 1
 852 368 l 1
 900 368 l 1
 900 348 l 1
 825 348 l 1
 825 452 l 1
EndSplineSet
Validated: 1
EndChar

StartChar: V
Encoding: 86 86 44
Width: 1000
VWidth: 0
Flags: MW
LayerCount: 2
Fore
SplineSet
825 452 m 1
 898 452 l 1
 898 432 l 1
 852 432 l 1
 852 412 l 1
 896 412 l 1
 896 392 l 1
 852 392 l 1
 852 368 l 1
 900 368 l 1
 900 348 l 1
 825 348 l 1
 825 452 l 1
453 800 m 1
 483 800 l 1
 521 728 l 1
 521 800 l 1
 547 800 l 1
 547 695 l 1
 517 695 l 1
 479 767 l 1
 479 695 l 1
 453 695 l 1
 453 800 l 1
498 109 m 0
 513 109 527 106 535 104 c 1
 535 81 l 1
 520 88 509 89 502 89 c 0
 492 89 483 87 483 78 c 0
 483 72 488 70 498 68 c 2
 509 65 l 2
 531 61 541 53 541 34 c 0
 541 10 526 0 500 0 c 0
 488 0 475 2 459 8 c 1
 459 30 l 1
 467 26 474 24 479 22 c 0
 488 20 495 20 497 20 c 0
 513 20 515 26 515 31 c 0
 515 38 510 41 499 43 c 2
 489 46 l 2
 471 50 459 58 459 76 c 0
 459 99 474 109 498 109 c 0
186 290 m 0
 196 290 206 282 206 270 c 0
 206 260 198 250 186 250 c 0
 176 250 166 258 166 270 c 0
 166 280 174 290 186 290 c 0
814 550 m 0
 824 550 834 542 834 530 c 0
 834 520 826 510 814 510 c 0
 804 510 794 518 794 530 c 0
 794 540 802 550 814 550 c 0
630 106 m 0
 640 106 650 98 650 86 c 0
 650 76 642 66 630 66 c 0
 620 66 610 74 610 86 c 0
 610 96 618 106 630 106 c 0
370 734 m 0
 380 734 390 726 390 714 c 0
 390 704 382 694 370 694 c 0
 360 694 350 702 350 714 c 0
 350 724 358 734 370 734 c 0
206 530 m 0
 206 518 196 510 186 510 c 0
 174 510 166 520 166 530 c 0
 166 542 176 550 186 550 c 0
 198 550 206 540 206 530 c 0
834 270 m 0
 834 258 824 250 814 250 c 0
 802 250 794 260 794 270 c 0
 794 282 804 290 814 290 c 0
 826 290 834 280 834 270 c 0
390 86 m 0
 390 74 380 66 370 66 c 0
 358 66 350 76 350 86 c 0
 350 98 360 106 370 106 c 0
 382 106 390 96 390 86 c 0
650 714 m 0
 650 702 640 694 630 694 c 0
 618 694 610 704 610 714 c 0
 610 726 620 734 630 734 c 0
 642 734 650 724 650 714 c 0
743 134 m 1
 726 174 l 1
 766 157 l 1
 783 117 l 1
 743 134 l 1
234 643 m 1
 217 683 l 1
 257 666 l 1
 274 626 l 1
 234 643 l 1
234 157 m 1
 274 174 l 1
 257 134 l 1
 217 117 l 1
 234 157 l 1
743 666 m 1
 783 683 l 1
 766 643 l 1
 726 626 l 1
 743 666 l 1
100 452 m 1
 126 452 l 1
 144 376 l 1
 162 452 l 1
 188 452 l 1
 206 376 l 1
 224 452 l 1
 250 452 l 1
 235.701 392.515 l 1
 298.321 401.415 307.026 412.057 360 415 c 1
 413 406 532 372 532 372 c 1
 498 386 497 386 446 407 c 0
 397.917 426.799 364 436 275 452 c 1
 358 459 l 1
 304 522 l 1
 379 471 408 453 456 433 c 0
 506 413 509 411 542 398 c 1
 542 398 434 458 391 489 c 1
 354 529 356 542 316 595 c 1
 383 539 433.007 502.013 487 470 c 0
 546.008 435.014 573 422 627 391 c 1
 619 486 l 1
 681 364 l 1
 687 403 l 1
 726 306 l 1
 631 266 l 1
 653 297 l 1
 523 255 l 1
 596 317 l 1
 536 333 508 343 441 359 c 0
 380.821 374.785 320.642 383.756 235.499 391.676 c 1
 225 348 l 1
 194 348 l 1
 175 427 l 1
 156 348 l 1
 125 348 l 1
 100 452 l 1
EndSplineSet
Validated: 524289
EndChar

StartChar: W
Encoding: 87 87 45
Width: 1000
VWidth: 0
Flags: MW
LayerCount: 2
Fore
SplineSet
673 227 m 1
 569 226 l 1
 603 247 l 1
 466 257 l 1
 557 286 l 25
 508 324 485 344 430 385 c 0
 380 423 327 454 249 495 c 1
 314 478 325 486 376 467 c 1
 422 439 518 362 518 362 c 9
 493 387 492 388 453 428 c 0
 416 464 388 485 312 534 c 9
 391 509 l 1
 366 588 l 17
 415 512 436 484 472 447 c 0
 511 409 513 407 538 382 c 17
 538 382 461 478 433 524 c 1
 414 575 422 586 405 651 c 1
 446 573 477 520 515 470 c 0
 556 415 576 392 614 343 c 25
 643 434 l 1
 653 297 l 1
 674 331 l 1
 673 227 l 1
743 666 m 1
 783 683 l 1
 766 643 l 1
 726 626 l 1
 743 666 l 1
234 157 m 1
 274 174 l 1
 257 134 l 1
 217 117 l 1
 234 157 l 1
234 643 m 1
 217 683 l 1
 257 666 l 1
 274 626 l 1
 234 643 l 1
743 134 m 1
 726 174 l 1
 766 157 l 1
 783 117 l 1
 743 134 l 1
650 714 m 0
 650 702 640 694 630 694 c 0
 618 694 610 704 610 714 c 0
 610 726 620 734 630 734 c 0
 642 734 650 724 650 714 c 0
390 86 m 0
 390 74 380 66 370 66 c 0
 358 66 350 76 350 86 c 0
 350 98 360 106 370 106 c 0
 382 106 390 96 390 86 c 0
834 270 m 0
 834 258 824 250 814 250 c 0
 802 250 794 260 794 270 c 0
 794 282 804 290 814 290 c 0
 826 290 834 280 834 270 c 0
206 530 m 0
 206 518 196 510 186 510 c 0
 174 510 166 520 166 530 c 0
 166 542 176 550 186 550 c 0
 198 550 206 540 206 530 c 0
370 734 m 0
 380 734 390 726 390 714 c 0
 390 704 382 694 370 694 c 0
 360 694 350 702 350 714 c 0
 350 724 358 734 370 734 c 0
630 106 m 0
 640 106 650 98 650 86 c 0
 650 76 642 66 630 66 c 0
 620 66 610 74 610 86 c 0
 610 96 618 106 630 106 c 0
814 550 m 0
 824 550 834 542 834 530 c 0
 834 520 826 510 814 510 c 0
 804 510 794 518 794 530 c 0
 794 540 802 550 814 550 c 0
186 290 m 0
 196 290 206 282 206 270 c 0
 206 260 198 250 186 250 c 0
 176 250 166 258 166 270 c 0
 166 280 174 290 186 290 c 0
498 109 m 0
 513 109 527 106 535 104 c 1
 535 81 l 1
 520 88 509 89 502 89 c 0
 492 89 483 87 483 78 c 0
 483 72 488 70 498 68 c 2
 509 65 l 2
 531 61 541 53 541 34 c 0
 541 10 526 0 500 0 c 0
 488 0 475 2 459 8 c 1
 459 30 l 1
 467 26 474 24 479 22 c 0
 488 20 495 20 497 20 c 0
 513 20 515 26 515 31 c 0
 515 38 510 41 499 43 c 2
 489 46 l 2
 471 50 459 58 459 76 c 0
 459 99 474 109 498 109 c 0
100 452 m 1
 126 452 l 1
 144 376 l 1
 162 452 l 1
 188 452 l 1
 206 376 l 1
 224 452 l 1
 250 452 l 1
 225 348 l 1
 194 348 l 1
 175 427 l 1
 156 348 l 1
 125 348 l 1
 100 452 l 1
453 800 m 5
 483 800 l 5
 521 728 l 5
 521 800 l 5
 547 800 l 5
 547 695 l 5
 517 695 l 5
 479 767 l 5
 479 695 l 5
 453 695 l 5
 453 800 l 5
825 452 m 1
 898 452 l 1
 898 432 l 1
 852 432 l 1
 852 412 l 1
 896 412 l 1
 896 392 l 1
 852 392 l 1
 852 368 l 1
 900 368 l 1
 900 348 l 1
 825 348 l 1
 825 452 l 1
EndSplineSet
Validated: 1
EndChar

StartChar: X
Encoding: 88 88 46
Width: 1000
VWidth: 0
Flags: MW
LayerCount: 2
Fore
SplineSet
594 174 m 1
 497 213 l 1
 536 219 l 1
 414 281 l 1
 509 273 l 25
 478 327 465 354 430 413 c 0
 398 467 361 517 305 584 c 1
 358 544 371 546 411 509 c 1
 442 466 502 358 502 358 c 9
 489 391 488 392 467 444 c 0
 447 492 429 521 378 596 c 9
 441 542 l 1
 448 625 l 17
 464 536 473 502 493 454 c 0
 513 404 514 402 528 368 c 17
 528 368 494 487 485 540 c 1
 488 594 499 602 508 668 c 1
 516 581 525 520 541 459 c 0
 557 392 567 364 583 304 c 25
 645 377 l 1
 603 247 l 1
 634 269 l 1
 594 174 l 1
743 666 m 1
 783 683 l 1
 766 643 l 1
 726 626 l 1
 743 666 l 1
234 157 m 1
 274 174 l 1
 257 134 l 1
 217 117 l 1
 234 157 l 1
234 643 m 1
 217 683 l 1
 257 666 l 1
 274 626 l 1
 234 643 l 1
743 134 m 1
 726 174 l 1
 766 157 l 1
 783 117 l 1
 743 134 l 1
650 714 m 0
 650 702 640 694 630 694 c 0
 618 694 610 704 610 714 c 0
 610 726 620 734 630 734 c 0
 642 734 650 724 650 714 c 0
390 86 m 0
 390 74 380 66 370 66 c 0
 358 66 350 76 350 86 c 0
 350 98 360 106 370 106 c 0
 382 106 390 96 390 86 c 0
834 270 m 0
 834 258 824 250 814 250 c 0
 802 250 794 260 794 270 c 0
 794 282 804 290 814 290 c 0
 826 290 834 280 834 270 c 0
206 530 m 0
 206 518 196 510 186 510 c 0
 174 510 166 520 166 530 c 0
 166 542 176 550 186 550 c 0
 198 550 206 540 206 530 c 0
370 734 m 0
 380 734 390 726 390 714 c 0
 390 704 382 694 370 694 c 0
 360 694 350 702 350 714 c 0
 350 724 358 734 370 734 c 0
630 106 m 0
 640 106 650 98 650 86 c 0
 650 76 642 66 630 66 c 0
 620 66 610 74 610 86 c 0
 610 96 618 106 630 106 c 0
814 550 m 0
 824 550 834 542 834 530 c 0
 834 520 826 510 814 510 c 0
 804 510 794 518 794 530 c 0
 794 540 802 550 814 550 c 0
186 290 m 0
 196 290 206 282 206 270 c 0
 206 260 198 250 186 250 c 0
 176 250 166 258 166 270 c 0
 166 280 174 290 186 290 c 0
498 109 m 0
 513 109 527 106 535 104 c 1
 535 81 l 1
 520 88 509 89 502 89 c 0
 492 89 483 87 483 78 c 0
 483 72 488 70 498 68 c 2
 509 65 l 2
 531 61 541 53 541 34 c 0
 541 10 526 0 500 0 c 0
 488 0 475 2 459 8 c 1
 459 30 l 1
 467 26 474 24 479 22 c 0
 488 20 495 20 497 20 c 0
 513 20 515 26 515 31 c 0
 515 38 510 41 499 43 c 2
 489 46 l 2
 471 50 459 58 459 76 c 0
 459 99 474 109 498 109 c 0
100 452 m 1
 126 452 l 1
 144 376 l 1
 162 452 l 1
 188 452 l 1
 206 376 l 1
 224 452 l 1
 250 452 l 1
 225 348 l 1
 194 348 l 1
 175 427 l 1
 156 348 l 1
 125 348 l 1
 100 452 l 1
453 800 m 5
 483 800 l 5
 521 728 l 5
 521 800 l 5
 547 800 l 5
 547 695 l 5
 517 695 l 5
 479 767 l 5
 479 695 l 5
 453 695 l 5
 453 800 l 5
825 452 m 1
 898 452 l 1
 898 432 l 1
 852 432 l 1
 852 412 l 1
 896 412 l 1
 896 392 l 1
 852 392 l 1
 852 368 l 1
 900 368 l 1
 900 348 l 1
 825 348 l 1
 825 452 l 1
EndSplineSet
Validated: 1
EndChar

StartChar: Y
Encoding: 89 89 47
Width: 1000
VWidth: 0
Flags: MW
LayerCount: 2
Fore
SplineSet
500 155 m 1
 426 228 l 1
 464 219 l 1
 375 323 l 1
 460 279 l 25
 452 341 450 371 440 439 c 0
 431 501 416 561 390 645 c 1
 424 587 437 584 460 535 c 1
 472 483 486 360 486 360 c 9
 486 396 486 397 486 453 c 0
 486 505 481 539 462 628 c 9
 500 554 l 1
 538 628 l 17
 519 539 514 505 514 453 c 0
 514 399 514 396 514 360 c 17
 514 360 528 483 540 535 c 1
 563 584 576 587 610 645 c 1
 584 561 569 501 560 439 c 0
 550 371 548 341 540 279 c 25
 625 323 l 1
 536 219 l 1
 574 228 l 1
 500 155 l 1
743 666 m 1
 783 683 l 1
 766 643 l 1
 726 626 l 1
 743 666 l 1
234 157 m 1
 274 174 l 1
 257 134 l 1
 217 117 l 1
 234 157 l 1
234 643 m 1
 217 683 l 1
 257 666 l 1
 274 626 l 1
 234 643 l 1
743 134 m 1
 726 174 l 1
 766 157 l 1
 783 117 l 1
 743 134 l 1
650 714 m 0
 650 702 640 694 630 694 c 0
 618 694 610 704 610 714 c 0
 610 726 620 734 630 734 c 0
 642 734 650 724 650 714 c 0
390 86 m 0
 390 74 380 66 370 66 c 0
 358 66 350 76 350 86 c 0
 350 98 360 106 370 106 c 0
 382 106 390 96 390 86 c 0
834 270 m 0
 834 258 824 250 814 250 c 0
 802 250 794 260 794 270 c 0
 794 282 804 290 814 290 c 0
 826 290 834 280 834 270 c 0
206 530 m 0
 206 518 196 510 186 510 c 0
 174 510 166 520 166 530 c 0
 166 542 176 550 186 550 c 0
 198 550 206 540 206 530 c 0
370 734 m 0
 380 734 390 726 390 714 c 0
 390 704 382 694 370 694 c 0
 360 694 350 702 350 714 c 0
 350 724 358 734 370 734 c 0
630 106 m 0
 640 106 650 98 650 86 c 0
 650 76 642 66 630 66 c 0
 620 66 610 74 610 86 c 0
 610 96 618 106 630 106 c 0
814 550 m 0
 824 550 834 542 834 530 c 0
 834 520 826 510 814 510 c 0
 804 510 794 518 794 530 c 0
 794 540 802 550 814 550 c 0
186 290 m 0
 196 290 206 282 206 270 c 0
 206 260 198 250 186 250 c 0
 176 250 166 258 166 270 c 0
 166 280 174 290 186 290 c 0
498 109 m 0
 513 109 527 106 535 104 c 1
 535 81 l 1
 520 88 509 89 502 89 c 0
 492 89 483 87 483 78 c 0
 483 72 488 70 498 68 c 2
 509 65 l 2
 531 61 541 53 541 34 c 0
 541 10 526 0 500 0 c 0
 488 0 475 2 459 8 c 1
 459 30 l 1
 467 26 474 24 479 22 c 0
 488 20 495 20 497 20 c 0
 513 20 515 26 515 31 c 0
 515 38 510 41 499 43 c 2
 489 46 l 2
 471 50 459 58 459 76 c 0
 459 99 474 109 498 109 c 0
100 452 m 1
 126 452 l 1
 144 376 l 1
 162 452 l 1
 188 452 l 1
 206 376 l 1
 224 452 l 1
 250 452 l 1
 225 348 l 1
 194 348 l 1
 175 427 l 1
 156 348 l 1
 125 348 l 1
 100 452 l 1
453 800 m 5
 483 800 l 5
 521 728 l 5
 521 800 l 5
 547 800 l 5
 547 695 l 5
 517 695 l 5
 479 767 l 5
 479 695 l 5
 453 695 l 5
 453 800 l 5
825 452 m 1
 898 452 l 1
 898 432 l 1
 852 432 l 1
 852 412 l 1
 896 412 l 1
 896 392 l 1
 852 392 l 1
 852 368 l 1
 900 368 l 1
 900 348 l 1
 825 348 l 1
 825 452 l 1
EndSplineSet
Validated: 1
EndChar

StartChar: Z
Encoding: 90 90 48
Width: 1000
VWidth: 0
Flags: MW
LayerCount: 2
Fore
SplineSet
406 174 m 1
 366 269 l 1
 397 247 l 1
 355 377 l 1
 417 304 l 25
 433 364 443 392 459 459 c 0
 475 520 484 581 492 668 c 1
 501 602 512 594 515 540 c 1
 506 487 472 368 472 368 c 9
 486 402 486 403 507 454 c 0
 527 502 536 536 552 625 c 9
 559 542 l 1
 622 596 l 17
 571 521 553 492 533 444 c 0
 513 394 511 391 498 358 c 17
 498 358 558 466 589 509 c 1
 629 546 642 544 695 584 c 1
 639 517 602 467 570 413 c 0
 535 354 522 327 491 273 c 25
 586 281 l 1
 464 219 l 1
 503 213 l 1
 406 174 l 1
743 666 m 1
 783 683 l 1
 766 643 l 1
 726 626 l 1
 743 666 l 1
234 157 m 1
 274 174 l 1
 257 134 l 1
 217 117 l 1
 234 157 l 1
234 643 m 1
 217 683 l 1
 257 666 l 1
 274 626 l 1
 234 643 l 1
743 134 m 1
 726 174 l 1
 766 157 l 1
 783 117 l 1
 743 134 l 1
650 714 m 0
 650 702 640 694 630 694 c 0
 618 694 610 704 610 714 c 0
 610 726 620 734 630 734 c 0
 642 734 650 724 650 714 c 0
390 86 m 0
 390 74 380 66 370 66 c 0
 358 66 350 76 350 86 c 0
 350 98 360 106 370 106 c 0
 382 106 390 96 390 86 c 0
834 270 m 0
 834 258 824 250 814 250 c 0
 802 250 794 260 794 270 c 0
 794 282 804 290 814 290 c 0
 826 290 834 280 834 270 c 0
206 530 m 0
 206 518 196 510 186 510 c 0
 174 510 166 520 166 530 c 0
 166 542 176 550 186 550 c 0
 198 550 206 540 206 530 c 0
370 734 m 0
 380 734 390 726 390 714 c 0
 390 704 382 694 370 694 c 0
 360 694 350 702 350 714 c 0
 350 724 358 734 370 734 c 0
630 106 m 0
 640 106 650 98 650 86 c 0
 650 76 642 66 630 66 c 0
 620 66 610 74 610 86 c 0
 610 96 618 106 630 106 c 0
814 550 m 0
 824 550 834 542 834 530 c 0
 834 520 826 510 814 510 c 0
 804 510 794 518 794 530 c 0
 794 540 802 550 814 550 c 0
186 290 m 0
 196 290 206 282 206 270 c 0
 206 260 198 250 186 250 c 0
 176 250 166 258 166 270 c 0
 166 280 174 290 186 290 c 0
498 109 m 0
 513 109 527 106 535 104 c 1
 535 81 l 1
 520 88 509 89 502 89 c 0
 492 89 483 87 483 78 c 0
 483 72 488 70 498 68 c 2
 509 65 l 2
 531 61 541 53 541 34 c 0
 541 10 526 0 500 0 c 0
 488 0 475 2 459 8 c 1
 459 30 l 1
 467 26 474 24 479 22 c 0
 488 20 495 20 497 20 c 0
 513 20 515 26 515 31 c 0
 515 38 510 41 499 43 c 2
 489 46 l 2
 471 50 459 58 459 76 c 0
 459 99 474 109 498 109 c 0
100 452 m 1
 126 452 l 1
 144 376 l 1
 162 452 l 1
 188 452 l 1
 206 376 l 1
 224 452 l 1
 250 452 l 1
 225 348 l 1
 194 348 l 1
 175 427 l 1
 156 348 l 1
 125 348 l 1
 100 452 l 1
453 800 m 5
 483 800 l 5
 521 728 l 5
 521 800 l 5
 547 800 l 5
 547 695 l 5
 517 695 l 5
 479 767 l 5
 479 695 l 5
 453 695 l 5
 453 800 l 5
825 452 m 1
 898 452 l 1
 898 432 l 1
 852 432 l 1
 852 412 l 1
 896 412 l 1
 896 392 l 1
 852 392 l 1
 852 368 l 1
 900 368 l 1
 900 348 l 1
 825 348 l 1
 825 452 l 1
EndSplineSet
Validated: 1
EndChar

StartChar: bracketleft
Encoding: 91 91 49
Width: 1000
VWidth: 0
Flags: MW
LayerCount: 2
Fore
SplineSet
327 227 m 1
 326 331 l 1
 347 297 l 1
 357 434 l 1
 386 343 l 25
 424 392 444 415 485 470 c 0
 523 520 554 573 595 651 c 1
 578 586 586 575 567 524 c 1
 539 478 462 382 462 382 c 9
 487 407 488 408 528 447 c 0
 564 484 585 512 634 588 c 9
 609 509 l 1
 688 534 l 17
 612 485 584 464 547 428 c 0
 509 389 507 387 482 362 c 17
 482 362 578 439 624 467 c 1
 675 486 686 478 751 495 c 1
 673 454 620 423 570 385 c 0
 515 344 492 324 443 286 c 25
 534 257 l 1
 397 247 l 1
 431 226 l 1
 327 227 l 1
743 666 m 1
 783 683 l 1
 766 643 l 1
 726 626 l 1
 743 666 l 1
234 157 m 1
 274 174 l 1
 257 134 l 1
 217 117 l 1
 234 157 l 1
234 643 m 1
 217 683 l 1
 257 666 l 1
 274 626 l 1
 234 643 l 1
743 134 m 1
 726 174 l 1
 766 157 l 1
 783 117 l 1
 743 134 l 1
650 714 m 0
 650 702 640 694 630 694 c 0
 618 694 610 704 610 714 c 0
 610 726 620 734 630 734 c 0
 642 734 650 724 650 714 c 0
390 86 m 0
 390 74 380 66 370 66 c 0
 358 66 350 76 350 86 c 0
 350 98 360 106 370 106 c 0
 382 106 390 96 390 86 c 0
834 270 m 0
 834 258 824 250 814 250 c 0
 802 250 794 260 794 270 c 0
 794 282 804 290 814 290 c 0
 826 290 834 280 834 270 c 0
206 530 m 0
 206 518 196 510 186 510 c 0
 174 510 166 520 166 530 c 0
 166 542 176 550 186 550 c 0
 198 550 206 540 206 530 c 0
370 734 m 0
 380 734 390 726 390 714 c 0
 390 704 382 694 370 694 c 0
 360 694 350 702 350 714 c 0
 350 724 358 734 370 734 c 0
630 106 m 0
 640 106 650 98 650 86 c 0
 650 76 642 66 630 66 c 0
 620 66 610 74 610 86 c 0
 610 96 618 106 630 106 c 0
814 550 m 0
 824 550 834 542 834 530 c 0
 834 520 826 510 814 510 c 0
 804 510 794 518 794 530 c 0
 794 540 802 550 814 550 c 0
186 290 m 0
 196 290 206 282 206 270 c 0
 206 260 198 250 186 250 c 0
 176 250 166 258 166 270 c 0
 166 280 174 290 186 290 c 0
498 109 m 0
 513 109 527 106 535 104 c 1
 535 81 l 1
 520 88 509 89 502 89 c 0
 492 89 483 87 483 78 c 0
 483 72 488 70 498 68 c 2
 509 65 l 2
 531 61 541 53 541 34 c 0
 541 10 526 0 500 0 c 0
 488 0 475 2 459 8 c 1
 459 30 l 1
 467 26 474 24 479 22 c 0
 488 20 495 20 497 20 c 0
 513 20 515 26 515 31 c 0
 515 38 510 41 499 43 c 2
 489 46 l 2
 471 50 459 58 459 76 c 0
 459 99 474 109 498 109 c 0
100 452 m 1
 126 452 l 1
 144 376 l 1
 162 452 l 1
 188 452 l 1
 206 376 l 1
 224 452 l 1
 250 452 l 1
 225 348 l 1
 194 348 l 1
 175 427 l 1
 156 348 l 1
 125 348 l 1
 100 452 l 1
453 800 m 5
 483 800 l 5
 521 728 l 5
 521 800 l 5
 547 800 l 5
 547 695 l 5
 517 695 l 5
 479 767 l 5
 479 695 l 5
 453 695 l 5
 453 800 l 5
825 452 m 1
 898 452 l 1
 898 432 l 1
 852 432 l 1
 852 412 l 1
 896 412 l 1
 896 392 l 1
 852 392 l 1
 852 368 l 1
 900 368 l 1
 900 348 l 1
 825 348 l 1
 825 452 l 1
EndSplineSet
Validated: 1
EndChar

StartChar: backslash
Encoding: 92 92 50
Width: 1000
VWidth: 0
Flags: MW
LayerCount: 2
Fore
SplineSet
274 306 m 1
 313 403 l 1
 319 364 l 1
 381 486 l 1
 373 391 l 25
 427 422 454 435 513 470 c 0
 567 502 617 539 684 595 c 1
 644 542 646 529 609 489 c 1
 566 458 458 398 458 398 c 9
 491 411 492 412 544 433 c 0
 592 453 621 471 696 522 c 9
 642 459 l 1
 725 452 l 17
 636 436 602 427 554 407 c 0
 504 387 502 386 468 372 c 17
 468 372 587 406 640 415 c 1
 694 412 702 401 768 392 c 1
 681 384 620 375 559 359 c 0
 492 343 464 333 404 317 c 25
 477 255 l 1
 347 297 l 1
 369 266 l 1
 274 306 l 1
743 666 m 1
 783 683 l 1
 766 643 l 1
 726 626 l 1
 743 666 l 1
234 157 m 1
 274 174 l 1
 257 134 l 1
 217 117 l 1
 234 157 l 1
234 643 m 1
 217 683 l 1
 257 666 l 1
 274 626 l 1
 234 643 l 1
743 134 m 1
 726 174 l 1
 766 157 l 1
 783 117 l 1
 743 134 l 1
650 714 m 0
 650 702 640 694 630 694 c 0
 618 694 610 704 610 714 c 0
 610 726 620 734 630 734 c 0
 642 734 650 724 650 714 c 0
390 86 m 0
 390 74 380 66 370 66 c 0
 358 66 350 76 350 86 c 0
 350 98 360 106 370 106 c 0
 382 106 390 96 390 86 c 0
834 270 m 0
 834 258 824 250 814 250 c 0
 802 250 794 260 794 270 c 0
 794 282 804 290 814 290 c 0
 826 290 834 280 834 270 c 0
206 530 m 0
 206 518 196 510 186 510 c 0
 174 510 166 520 166 530 c 0
 166 542 176 550 186 550 c 0
 198 550 206 540 206 530 c 0
370 734 m 0
 380 734 390 726 390 714 c 0
 390 704 382 694 370 694 c 0
 360 694 350 702 350 714 c 0
 350 724 358 734 370 734 c 0
630 106 m 0
 640 106 650 98 650 86 c 0
 650 76 642 66 630 66 c 0
 620 66 610 74 610 86 c 0
 610 96 618 106 630 106 c 0
814 550 m 0
 824 550 834 542 834 530 c 0
 834 520 826 510 814 510 c 0
 804 510 794 518 794 530 c 0
 794 540 802 550 814 550 c 0
186 290 m 0
 196 290 206 282 206 270 c 0
 206 260 198 250 186 250 c 0
 176 250 166 258 166 270 c 0
 166 280 174 290 186 290 c 0
498 109 m 0
 513 109 527 106 535 104 c 1
 535 81 l 1
 520 88 509 89 502 89 c 0
 492 89 483 87 483 78 c 0
 483 72 488 70 498 68 c 2
 509 65 l 2
 531 61 541 53 541 34 c 0
 541 10 526 0 500 0 c 0
 488 0 475 2 459 8 c 1
 459 30 l 1
 467 26 474 24 479 22 c 0
 488 20 495 20 497 20 c 0
 513 20 515 26 515 31 c 0
 515 38 510 41 499 43 c 2
 489 46 l 2
 471 50 459 58 459 76 c 0
 459 99 474 109 498 109 c 0
100 452 m 1
 126 452 l 1
 144 376 l 1
 162 452 l 1
 188 452 l 1
 206 376 l 1
 224 452 l 1
 250 452 l 1
 225 348 l 1
 194 348 l 1
 175 427 l 1
 156 348 l 1
 125 348 l 1
 100 452 l 1
453 800 m 5
 483 800 l 5
 521 728 l 5
 521 800 l 5
 547 800 l 5
 547 695 l 5
 517 695 l 5
 479 767 l 5
 479 695 l 5
 453 695 l 5
 453 800 l 5
825 452 m 1
 898 452 l 1
 898 432 l 1
 852 432 l 1
 852 412 l 1
 896 412 l 1
 896 392 l 1
 852 392 l 1
 852 368 l 1
 900 368 l 1
 900 348 l 1
 825 348 l 1
 825 452 l 1
EndSplineSet
Validated: 1
EndChar

StartChar: bracketright
Encoding: 93 93 51
Width: 1000
VWidth: 0
Flags: MW
LayerCount: 2
Fore
SplineSet
255 400 m 1
 328 474 l 1
 319 436 l 1
 423 525 l 1
 379 440 l 25
 441 448 471 450 539 460 c 0
 601 469 661 484 745 510 c 1
 687 476 684 463 635 440 c 1
 583 428 460 414 460 414 c 9
 496 414 497 414 553 414 c 0
 605 414 639 419 728 438 c 9
 654 400 l 1
 728 362 l 17
 639 381 605 386 553 386 c 0
 499 386 496 386 460 386 c 17
 460 386 583 372 635 360 c 1
 684 337 687 324 745 290 c 1
 661 316 601 331 539 340 c 0
 471 350 441 352 379 360 c 25
 423 275 l 1
 319 364 l 1
 328 326 l 1
 255 400 l 1
743 666 m 1
 783 683 l 1
 766 643 l 1
 726 626 l 1
 743 666 l 1
234 157 m 1
 274 174 l 1
 257 134 l 1
 217 117 l 1
 234 157 l 1
234 643 m 1
 217 683 l 1
 257 666 l 1
 274 626 l 1
 234 643 l 1
743 134 m 1
 726 174 l 1
 766 157 l 1
 783 117 l 1
 743 134 l 1
650 714 m 0
 650 702 640 694 630 694 c 0
 618 694 610 704 610 714 c 0
 610 726 620 734 630 734 c 0
 642 734 650 724 650 714 c 0
390 86 m 0
 390 74 380 66 370 66 c 0
 358 66 350 76 350 86 c 0
 350 98 360 106 370 106 c 0
 382 106 390 96 390 86 c 0
834 270 m 0
 834 258 824 250 814 250 c 0
 802 250 794 260 794 270 c 0
 794 282 804 290 814 290 c 0
 826 290 834 280 834 270 c 0
206 530 m 0
 206 518 196 510 186 510 c 0
 174 510 166 520 166 530 c 0
 166 542 176 550 186 550 c 0
 198 550 206 540 206 530 c 0
370 734 m 0
 380 734 390 726 390 714 c 0
 390 704 382 694 370 694 c 0
 360 694 350 702 350 714 c 0
 350 724 358 734 370 734 c 0
630 106 m 0
 640 106 650 98 650 86 c 0
 650 76 642 66 630 66 c 0
 620 66 610 74 610 86 c 0
 610 96 618 106 630 106 c 0
814 550 m 0
 824 550 834 542 834 530 c 0
 834 520 826 510 814 510 c 0
 804 510 794 518 794 530 c 0
 794 540 802 550 814 550 c 0
186 290 m 0
 196 290 206 282 206 270 c 0
 206 260 198 250 186 250 c 0
 176 250 166 258 166 270 c 0
 166 280 174 290 186 290 c 0
498 109 m 0
 513 109 527 106 535 104 c 1
 535 81 l 1
 520 88 509 89 502 89 c 0
 492 89 483 87 483 78 c 0
 483 72 488 70 498 68 c 2
 509 65 l 2
 531 61 541 53 541 34 c 0
 541 10 526 0 500 0 c 0
 488 0 475 2 459 8 c 1
 459 30 l 1
 467 26 474 24 479 22 c 0
 488 20 495 20 497 20 c 0
 513 20 515 26 515 31 c 0
 515 38 510 41 499 43 c 2
 489 46 l 2
 471 50 459 58 459 76 c 0
 459 99 474 109 498 109 c 0
100 452 m 1
 126 452 l 1
 144 376 l 1
 162 452 l 1
 188 452 l 1
 206 376 l 1
 224 452 l 1
 250 452 l 1
 225 348 l 1
 194 348 l 1
 175 427 l 1
 156 348 l 1
 125 348 l 1
 100 452 l 1
453 800 m 5
 483 800 l 5
 521 728 l 5
 521 800 l 5
 547 800 l 5
 547 695 l 5
 517 695 l 5
 479 767 l 5
 479 695 l 5
 453 695 l 5
 453 800 l 5
825 452 m 1
 898 452 l 1
 898 432 l 1
 852 432 l 1
 852 412 l 1
 896 412 l 1
 896 392 l 1
 852 392 l 1
 852 368 l 1
 900 368 l 1
 900 348 l 1
 825 348 l 1
 825 452 l 1
EndSplineSet
Validated: 1
EndChar

StartChar: asciicircum
Encoding: 94 94 52
Width: 1000
VWidth: 0
Flags: MW
LayerCount: 2
Fore
SplineSet
274 494 m 1
 369 534 l 1
 347 503 l 1
 477 545 l 1
 404 483 l 25
 464 467 492 457 559 441 c 0
 620 425 681 416 768 408 c 1
 702 399 694 388 640 385 c 1
 587 394 468 428 468 428 c 9
 502 414 503 414 554 393 c 0
 602 373 636 364 725 348 c 9
 642 341 l 1
 696 278 l 17
 621 329 592 347 544 367 c 0
 494 387 491 389 458 402 c 17
 458 402 566 342 609 311 c 1
 646 271 644 258 684 205 c 1
 617 261 567 298 513 330 c 0
 454 365 427 378 373 409 c 25
 381 314 l 1
 319 436 l 1
 313 397 l 1
 274 494 l 1
743 666 m 1
 783 683 l 1
 766 643 l 1
 726 626 l 1
 743 666 l 1
234 157 m 1
 274 174 l 1
 257 134 l 1
 217 117 l 1
 234 157 l 1
234 643 m 1
 217 683 l 1
 257 666 l 1
 274 626 l 1
 234 643 l 1
743 134 m 1
 726 174 l 1
 766 157 l 1
 783 117 l 1
 743 134 l 1
650 714 m 0
 650 702 640 694 630 694 c 0
 618 694 610 704 610 714 c 0
 610 726 620 734 630 734 c 0
 642 734 650 724 650 714 c 0
390 86 m 0
 390 74 380 66 370 66 c 0
 358 66 350 76 350 86 c 0
 350 98 360 106 370 106 c 0
 382 106 390 96 390 86 c 0
834 270 m 0
 834 258 824 250 814 250 c 0
 802 250 794 260 794 270 c 0
 794 282 804 290 814 290 c 0
 826 290 834 280 834 270 c 0
206 530 m 0
 206 518 196 510 186 510 c 0
 174 510 166 520 166 530 c 0
 166 542 176 550 186 550 c 0
 198 550 206 540 206 530 c 0
370 734 m 0
 380 734 390 726 390 714 c 0
 390 704 382 694 370 694 c 0
 360 694 350 702 350 714 c 0
 350 724 358 734 370 734 c 0
630 106 m 0
 640 106 650 98 650 86 c 0
 650 76 642 66 630 66 c 0
 620 66 610 74 610 86 c 0
 610 96 618 106 630 106 c 0
814 550 m 0
 824 550 834 542 834 530 c 0
 834 520 826 510 814 510 c 0
 804 510 794 518 794 530 c 0
 794 540 802 550 814 550 c 0
186 290 m 0
 196 290 206 282 206 270 c 0
 206 260 198 250 186 250 c 0
 176 250 166 258 166 270 c 0
 166 280 174 290 186 290 c 0
498 109 m 0
 513 109 527 106 535 104 c 1
 535 81 l 1
 520 88 509 89 502 89 c 0
 492 89 483 87 483 78 c 0
 483 72 488 70 498 68 c 2
 509 65 l 2
 531 61 541 53 541 34 c 0
 541 10 526 0 500 0 c 0
 488 0 475 2 459 8 c 1
 459 30 l 1
 467 26 474 24 479 22 c 0
 488 20 495 20 497 20 c 0
 513 20 515 26 515 31 c 0
 515 38 510 41 499 43 c 2
 489 46 l 2
 471 50 459 58 459 76 c 0
 459 99 474 109 498 109 c 0
100 452 m 1
 126 452 l 1
 144 376 l 1
 162 452 l 1
 188 452 l 1
 206 376 l 1
 224 452 l 1
 250 452 l 1
 225 348 l 1
 194 348 l 1
 175 427 l 1
 156 348 l 1
 125 348 l 1
 100 452 l 1
453 800 m 5
 483 800 l 5
 521 728 l 5
 521 800 l 5
 547 800 l 5
 547 695 l 5
 517 695 l 5
 479 767 l 5
 479 695 l 5
 453 695 l 5
 453 800 l 5
825 452 m 1
 898 452 l 1
 898 432 l 1
 852 432 l 1
 852 412 l 1
 896 412 l 1
 896 392 l 1
 852 392 l 1
 852 368 l 1
 900 368 l 1
 900 348 l 1
 825 348 l 1
 825 452 l 1
EndSplineSet
Validated: 1
EndChar

StartChar: underscore
Encoding: 95 95 53
Width: 1000
VWidth: 0
Flags: MW
LayerCount: 2
Fore
SplineSet
327 573 m 1
 431 574 l 1
 397 553 l 1
 534 543 l 1
 443 514 l 25
 492 476 515 456 570 415 c 0
 620 377 673 346 751 305 c 1
 686 322 675 314 624 333 c 1
 578 361 482 438 482 438 c 9
 507 413 508 412 547 372 c 0
 584 336 612 315 688 266 c 9
 609 291 l 1
 634 212 l 17
 585 288 564 316 528 353 c 0
 489 391 487 393 462 418 c 17
 462 418 539 322 567 276 c 1
 586 225 578 214 595 149 c 1
 554 227 523 280 485 330 c 0
 444 385 424 408 386 457 c 25
 357 366 l 1
 347 503 l 1
 326 469 l 1
 327 573 l 1
743 666 m 1
 783 683 l 1
 766 643 l 1
 726 626 l 1
 743 666 l 1
234 157 m 1
 274 174 l 1
 257 134 l 1
 217 117 l 1
 234 157 l 1
234 643 m 1
 217 683 l 1
 257 666 l 1
 274 626 l 1
 234 643 l 1
743 134 m 1
 726 174 l 1
 766 157 l 1
 783 117 l 1
 743 134 l 1
650 714 m 0
 650 702 640 694 630 694 c 0
 618 694 610 704 610 714 c 0
 610 726 620 734 630 734 c 0
 642 734 650 724 650 714 c 0
390 86 m 0
 390 74 380 66 370 66 c 0
 358 66 350 76 350 86 c 0
 350 98 360 106 370 106 c 0
 382 106 390 96 390 86 c 0
834 270 m 0
 834 258 824 250 814 250 c 0
 802 250 794 260 794 270 c 0
 794 282 804 290 814 290 c 0
 826 290 834 280 834 270 c 0
206 530 m 0
 206 518 196 510 186 510 c 0
 174 510 166 520 166 530 c 0
 166 542 176 550 186 550 c 0
 198 550 206 540 206 530 c 0
370 734 m 0
 380 734 390 726 390 714 c 0
 390 704 382 694 370 694 c 0
 360 694 350 702 350 714 c 0
 350 724 358 734 370 734 c 0
630 106 m 0
 640 106 650 98 650 86 c 0
 650 76 642 66 630 66 c 0
 620 66 610 74 610 86 c 0
 610 96 618 106 630 106 c 0
814 550 m 0
 824 550 834 542 834 530 c 0
 834 520 826 510 814 510 c 0
 804 510 794 518 794 530 c 0
 794 540 802 550 814 550 c 0
186 290 m 0
 196 290 206 282 206 270 c 0
 206 260 198 250 186 250 c 0
 176 250 166 258 166 270 c 0
 166 280 174 290 186 290 c 0
498 109 m 0
 513 109 527 106 535 104 c 1
 535 81 l 1
 520 88 509 89 502 89 c 0
 492 89 483 87 483 78 c 0
 483 72 488 70 498 68 c 2
 509 65 l 2
 531 61 541 53 541 34 c 0
 541 10 526 0 500 0 c 0
 488 0 475 2 459 8 c 1
 459 30 l 1
 467 26 474 24 479 22 c 0
 488 20 495 20 497 20 c 0
 513 20 515 26 515 31 c 0
 515 38 510 41 499 43 c 2
 489 46 l 2
 471 50 459 58 459 76 c 0
 459 99 474 109 498 109 c 0
100 452 m 1
 126 452 l 1
 144 376 l 1
 162 452 l 1
 188 452 l 1
 206 376 l 1
 224 452 l 1
 250 452 l 1
 225 348 l 1
 194 348 l 1
 175 427 l 1
 156 348 l 1
 125 348 l 1
 100 452 l 1
453 800 m 5
 483 800 l 5
 521 728 l 5
 521 800 l 5
 547 800 l 5
 547 695 l 5
 517 695 l 5
 479 767 l 5
 479 695 l 5
 453 695 l 5
 453 800 l 5
825 452 m 1
 898 452 l 1
 898 432 l 1
 852 432 l 1
 852 412 l 1
 896 412 l 1
 896 392 l 1
 852 392 l 1
 852 368 l 1
 900 368 l 1
 900 348 l 1
 825 348 l 1
 825 452 l 1
EndSplineSet
Validated: 1
EndChar

StartChar: grave
Encoding: 96 96 54
Width: 1000
VWidth: 0
Flags: MW
LayerCount: 2
Fore
SplineSet
406 626 m 1
 503 587 l 1
 464 581 l 1
 586 519 l 1
 491 527 l 25
 522 473 535 446 570 387 c 0
 602 333 639 283 695 216 c 1
 642 256 629 254 589 291 c 1
 558 334 498 442 498 442 c 9
 511 409 512 408 533 356 c 0
 553 308 571 279 622 204 c 9
 559 258 l 1
 552 175 l 17
 536 264 527 298 507 346 c 0
 487 396 486 398 472 432 c 17
 472 432 506 313 515 260 c 1
 512 206 501 198 492 132 c 1
 484 219 475 280 459 341 c 0
 443 408 433 436 417 496 c 25
 355 423 l 1
 397 553 l 1
 366 531 l 1
 406 626 l 1
743 666 m 1
 783 683 l 1
 766 643 l 1
 726 626 l 1
 743 666 l 1
234 157 m 1
 274 174 l 1
 257 134 l 1
 217 117 l 1
 234 157 l 1
234 643 m 1
 217 683 l 1
 257 666 l 1
 274 626 l 1
 234 643 l 1
743 134 m 1
 726 174 l 1
 766 157 l 1
 783 117 l 1
 743 134 l 1
650 714 m 0
 650 702 640 694 630 694 c 0
 618 694 610 704 610 714 c 0
 610 726 620 734 630 734 c 0
 642 734 650 724 650 714 c 0
390 86 m 0
 390 74 380 66 370 66 c 0
 358 66 350 76 350 86 c 0
 350 98 360 106 370 106 c 0
 382 106 390 96 390 86 c 0
834 270 m 0
 834 258 824 250 814 250 c 0
 802 250 794 260 794 270 c 0
 794 282 804 290 814 290 c 0
 826 290 834 280 834 270 c 0
206 530 m 0
 206 518 196 510 186 510 c 0
 174 510 166 520 166 530 c 0
 166 542 176 550 186 550 c 0
 198 550 206 540 206 530 c 0
370 734 m 0
 380 734 390 726 390 714 c 0
 390 704 382 694 370 694 c 0
 360 694 350 702 350 714 c 0
 350 724 358 734 370 734 c 0
630 106 m 0
 640 106 650 98 650 86 c 0
 650 76 642 66 630 66 c 0
 620 66 610 74 610 86 c 0
 610 96 618 106 630 106 c 0
814 550 m 0
 824 550 834 542 834 530 c 0
 834 520 826 510 814 510 c 0
 804 510 794 518 794 530 c 0
 794 540 802 550 814 550 c 0
186 290 m 0
 196 290 206 282 206 270 c 0
 206 260 198 250 186 250 c 0
 176 250 166 258 166 270 c 0
 166 280 174 290 186 290 c 0
498 109 m 0
 513 109 527 106 535 104 c 1
 535 81 l 1
 520 88 509 89 502 89 c 0
 492 89 483 87 483 78 c 0
 483 72 488 70 498 68 c 2
 509 65 l 2
 531 61 541 53 541 34 c 0
 541 10 526 0 500 0 c 0
 488 0 475 2 459 8 c 1
 459 30 l 1
 467 26 474 24 479 22 c 0
 488 20 495 20 497 20 c 0
 513 20 515 26 515 31 c 0
 515 38 510 41 499 43 c 2
 489 46 l 2
 471 50 459 58 459 76 c 0
 459 99 474 109 498 109 c 0
100 452 m 1
 126 452 l 1
 144 376 l 1
 162 452 l 1
 188 452 l 1
 206 376 l 1
 224 452 l 1
 250 452 l 1
 225 348 l 1
 194 348 l 1
 175 427 l 1
 156 348 l 1
 125 348 l 1
 100 452 l 1
453 800 m 5
 483 800 l 5
 521 728 l 5
 521 800 l 5
 547 800 l 5
 547 695 l 5
 517 695 l 5
 479 767 l 5
 479 695 l 5
 453 695 l 5
 453 800 l 5
825 452 m 1
 898 452 l 1
 898 432 l 1
 852 432 l 1
 852 412 l 1
 896 412 l 1
 896 392 l 1
 852 392 l 1
 852 368 l 1
 900 368 l 1
 900 348 l 1
 825 348 l 1
 825 452 l 1
EndSplineSet
Validated: 1
EndChar

StartChar: a
Encoding: 97 97 55
Width: 1000
VWidth: 0
Flags: MW
LayerCount: 2
Fore
SplineSet
500 645 m 1
 630 539 l 1
 553 553 l 1
 660 448 l 1
 559 488 l 25
 567 437 570 426 580 358 c 0
 589 296 602 239 628 155 c 1
 593 209 588 206 565 255 c 1
 553 307 529 429 529 429 c 9
 531 392 531 391 535 335 c 0
 539 288 544 244 555 163 c 1
 526 218 519 219 511 266 c 1
 505 336 500 382 500 382 c 1
 500 382 495 336 489 266 c 1
 481 219 474 218 445 163 c 1
 456 244 461 288 465 335 c 0
 469 391 469 392 471 429 c 17
 471 429 447 307 435 255 c 1
 412 206 407 209 372 155 c 1
 398 239 411 296 420 358 c 0
 430 426 433 437 441 488 c 25
 340 448 l 1
 447 553 l 1
 370 539 l 1
 500 645 l 1
743 666 m 1
 783 683 l 1
 766 643 l 1
 726 626 l 1
 743 666 l 1
234 157 m 1
 274 174 l 1
 257 134 l 1
 217 117 l 1
 234 157 l 1
234 643 m 1
 217 683 l 1
 257 666 l 1
 274 626 l 1
 234 643 l 1
743 134 m 1
 726 174 l 1
 766 157 l 1
 783 117 l 1
 743 134 l 1
650 714 m 0
 650 702 640 694 630 694 c 0
 618 694 610 704 610 714 c 0
 610 726 620 734 630 734 c 0
 642 734 650 724 650 714 c 0
390 86 m 0
 390 74 380 66 370 66 c 0
 358 66 350 76 350 86 c 0
 350 98 360 106 370 106 c 0
 382 106 390 96 390 86 c 0
834 270 m 0
 834 258 824 250 814 250 c 0
 802 250 794 260 794 270 c 0
 794 282 804 290 814 290 c 0
 826 290 834 280 834 270 c 0
206 530 m 0
 206 518 196 510 186 510 c 0
 174 510 166 520 166 530 c 0
 166 542 176 550 186 550 c 0
 198 550 206 540 206 530 c 0
370 734 m 0
 380 734 390 726 390 714 c 0
 390 704 382 694 370 694 c 0
 360 694 350 702 350 714 c 0
 350 724 358 734 370 734 c 0
630 106 m 0
 640 106 650 98 650 86 c 0
 650 76 642 66 630 66 c 0
 620 66 610 74 610 86 c 0
 610 96 618 106 630 106 c 0
814 550 m 0
 824 550 834 542 834 530 c 0
 834 520 826 510 814 510 c 0
 804 510 794 518 794 530 c 0
 794 540 802 550 814 550 c 0
186 290 m 0
 196 290 206 282 206 270 c 0
 206 260 198 250 186 250 c 0
 176 250 166 258 166 270 c 0
 166 280 174 290 186 290 c 0
498 109 m 0
 513 109 527 106 535 104 c 1
 535 81 l 1
 520 88 509 89 502 89 c 0
 492 89 483 87 483 78 c 0
 483 72 488 70 498 68 c 2
 509 65 l 2
 531 61 541 53 541 34 c 0
 541 10 526 0 500 0 c 0
 488 0 475 2 459 8 c 1
 459 30 l 1
 467 26 474 24 479 22 c 0
 488 20 495 20 497 20 c 0
 513 20 515 26 515 31 c 0
 515 38 510 41 499 43 c 2
 489 46 l 2
 471 50 459 58 459 76 c 0
 459 99 474 109 498 109 c 0
100 452 m 1
 126 452 l 1
 144 376 l 1
 162 452 l 1
 188 452 l 1
 206 376 l 1
 224 452 l 1
 250 452 l 1
 225 348 l 1
 194 348 l 1
 175 427 l 1
 156 348 l 1
 125 348 l 1
 100 452 l 1
453 800 m 5
 483 800 l 5
 521 728 l 5
 521 800 l 5
 547 800 l 5
 547 695 l 5
 517 695 l 5
 479 767 l 5
 479 695 l 5
 453 695 l 5
 453 800 l 5
825 452 m 1
 898 452 l 1
 898 432 l 1
 852 432 l 1
 852 412 l 1
 896 412 l 1
 896 392 l 1
 852 392 l 1
 852 368 l 1
 900 368 l 1
 900 348 l 1
 825 348 l 1
 825 452 l 1
EndSplineSet
Validated: 1
EndChar

StartChar: b
Encoding: 98 98 56
Width: 1000
VWidth: 0
Flags: MW
LayerCount: 2
Fore
SplineSet
594 626 m 1
 673 479 l 1
 608 521 l 1
 666 383 l 1
 588 459 l 25
 576 409 575 397 558 331 c 0
 542 270 533 212 524 125 c 1
 513 188 507 187 505 241 c 1
 513 294 538 416 538 416 c 9
 526 381 525 380 507 327 c 0
 493 282 481 239 460 160 c 1
 456 197 453 213 453 230 c 0
 453 242 455 253 459 272 c 1
 480 339 493 383 493 383 c 1
 493 383 471 343 439 280 c 1
 413 240 406 242 358 202 c 1
 400 273 421 311 443 353 c 0
 468 404 468 404 484 438 c 17
 484 438 415 334 384 291 c 1
 344 254 341 259 288 223 c 1
 344 290 378 338 410 392 c 0
 445 451 452 460 479 504 c 25
 371 506 l 1
 510 562 l 1
 433 578 l 1
 594 626 l 1
743 666 m 1
 783 683 l 1
 766 643 l 1
 726 626 l 1
 743 666 l 1
234 157 m 1
 274 174 l 1
 257 134 l 1
 217 117 l 1
 234 157 l 1
234 643 m 1
 217 683 l 1
 257 666 l 1
 274 626 l 1
 234 643 l 1
743 134 m 1
 726 174 l 1
 766 157 l 1
 783 117 l 1
 743 134 l 1
650 714 m 0
 650 702 640 694 630 694 c 0
 618 694 610 704 610 714 c 0
 610 726 620 734 630 734 c 0
 642 734 650 724 650 714 c 0
390 86 m 0
 390 74 380 66 370 66 c 0
 358 66 350 76 350 86 c 0
 350 98 360 106 370 106 c 0
 382 106 390 96 390 86 c 0
834 270 m 0
 834 258 824 250 814 250 c 0
 802 250 794 260 794 270 c 0
 794 282 804 290 814 290 c 0
 826 290 834 280 834 270 c 0
206 530 m 0
 206 518 196 510 186 510 c 0
 174 510 166 520 166 530 c 0
 166 542 176 550 186 550 c 0
 198 550 206 540 206 530 c 0
370 734 m 0
 380 734 390 726 390 714 c 0
 390 704 382 694 370 694 c 0
 360 694 350 702 350 714 c 0
 350 724 358 734 370 734 c 0
630 106 m 0
 640 106 650 98 650 86 c 0
 650 76 642 66 630 66 c 0
 620 66 610 74 610 86 c 0
 610 96 618 106 630 106 c 0
814 550 m 0
 824 550 834 542 834 530 c 0
 834 520 826 510 814 510 c 0
 804 510 794 518 794 530 c 0
 794 540 802 550 814 550 c 0
186 290 m 0
 196 290 206 282 206 270 c 0
 206 260 198 250 186 250 c 0
 176 250 166 258 166 270 c 0
 166 280 174 290 186 290 c 0
498 109 m 0
 513 109 527 106 535 104 c 1
 535 81 l 1
 520 88 509 89 502 89 c 0
 492 89 483 87 483 78 c 0
 483 72 488 70 498 68 c 2
 509 65 l 2
 531 61 541 53 541 34 c 0
 541 10 526 0 500 0 c 0
 488 0 475 2 459 8 c 1
 459 30 l 1
 467 26 474 24 479 22 c 0
 488 20 495 20 497 20 c 0
 513 20 515 26 515 31 c 0
 515 38 510 41 499 43 c 2
 489 46 l 2
 471 50 459 58 459 76 c 0
 459 99 474 109 498 109 c 0
100 452 m 1
 126 452 l 1
 144 376 l 1
 162 452 l 1
 188 452 l 1
 206 376 l 1
 224 452 l 1
 250 452 l 1
 225 348 l 1
 194 348 l 1
 175 427 l 1
 156 348 l 1
 125 348 l 1
 100 452 l 1
453 800 m 5
 483 800 l 5
 521 728 l 5
 521 800 l 5
 547 800 l 5
 547 695 l 5
 517 695 l 5
 479 767 l 5
 479 695 l 5
 453 695 l 5
 453 800 l 5
825 452 m 1
 898 452 l 1
 898 432 l 1
 852 432 l 1
 852 412 l 1
 896 412 l 1
 896 392 l 1
 852 392 l 1
 852 368 l 1
 900 368 l 1
 900 348 l 1
 825 348 l 1
 825 452 l 1
EndSplineSet
Validated: 1
EndChar

StartChar: c
Encoding: 99 99 57
Width: 1000
VWidth: 0
Flags: MW
LayerCount: 2
Fore
SplineSet
673 573 m 5
 690 406 l 5
 646 471 l 5
 647 321 l 5
 604 421 l 29
 574 379 568 369 527 314 c 4
 489 264 458 214 417 136 c 5
 431 199 425 201 443 252 c 5
 472 297 541 400 541 400 c 13
 516 372 516 372 479 329 c 4
 448 293 421 259 371 194 c 5
 390 253 385 259 413 297 c 5
 458 351 487 387 487 387 c 5
 487 387 451 358 397 313 c 5
 359 285 353 290 294 271 c 5
 359 321 393 348 429 379 c 4
 472 416 472 416 500 441 c 21
 500 441 397 372 352 343 c 5
 301 325 299 331 236 317 c 5
 314 358 364 389 414 427 c 4
 469 468 479 474 521 504 c 29
 421 547 l 5
 571 546 l 5
 506 590 l 5
 673 573 l 5
743 666 m 1
 783 683 l 1
 766 643 l 1
 726 626 l 1
 743 666 l 1
234 157 m 1
 274 174 l 1
 257 134 l 1
 217 117 l 1
 234 157 l 1
234 643 m 1
 217 683 l 1
 257 666 l 1
 274 626 l 1
 234 643 l 1
743 134 m 1
 726 174 l 1
 766 157 l 1
 783 117 l 1
 743 134 l 1
650 714 m 0
 650 702 640 694 630 694 c 0
 618 694 610 704 610 714 c 0
 610 726 620 734 630 734 c 0
 642 734 650 724 650 714 c 0
390 86 m 0
 390 74 380 66 370 66 c 0
 358 66 350 76 350 86 c 0
 350 98 360 106 370 106 c 0
 382 106 390 96 390 86 c 0
834 270 m 0
 834 258 824 250 814 250 c 0
 802 250 794 260 794 270 c 0
 794 282 804 290 814 290 c 0
 826 290 834 280 834 270 c 0
206 530 m 0
 206 518 196 510 186 510 c 0
 174 510 166 520 166 530 c 0
 166 542 176 550 186 550 c 0
 198 550 206 540 206 530 c 0
370 734 m 0
 380 734 390 726 390 714 c 0
 390 704 382 694 370 694 c 0
 360 694 350 702 350 714 c 0
 350 724 358 734 370 734 c 0
630 106 m 0
 640 106 650 98 650 86 c 0
 650 76 642 66 630 66 c 0
 620 66 610 74 610 86 c 0
 610 96 618 106 630 106 c 0
814 550 m 0
 824 550 834 542 834 530 c 0
 834 520 826 510 814 510 c 0
 804 510 794 518 794 530 c 0
 794 540 802 550 814 550 c 0
186 290 m 0
 196 290 206 282 206 270 c 0
 206 260 198 250 186 250 c 0
 176 250 166 258 166 270 c 0
 166 280 174 290 186 290 c 0
498 109 m 0
 513 109 527 106 535 104 c 1
 535 81 l 1
 520 88 509 89 502 89 c 0
 492 89 483 87 483 78 c 0
 483 72 488 70 498 68 c 2
 509 65 l 2
 531 61 541 53 541 34 c 0
 541 10 526 0 500 0 c 0
 488 0 475 2 459 8 c 1
 459 30 l 1
 467 26 474 24 479 22 c 0
 488 20 495 20 497 20 c 0
 513 20 515 26 515 31 c 0
 515 38 510 41 499 43 c 2
 489 46 l 2
 471 50 459 58 459 76 c 0
 459 99 474 109 498 109 c 0
100 452 m 1
 126 452 l 1
 144 376 l 1
 162 452 l 1
 188 452 l 1
 206 376 l 1
 224 452 l 1
 250 452 l 1
 225 348 l 1
 194 348 l 1
 175 427 l 1
 156 348 l 1
 125 348 l 1
 100 452 l 1
453 800 m 5
 483 800 l 5
 521 728 l 5
 521 800 l 5
 547 800 l 5
 547 695 l 5
 517 695 l 5
 479 767 l 5
 479 695 l 5
 453 695 l 5
 453 800 l 5
825 452 m 1
 898 452 l 1
 898 432 l 1
 852 432 l 1
 852 412 l 1
 896 412 l 1
 896 392 l 1
 852 392 l 1
 852 368 l 1
 900 368 l 1
 900 348 l 1
 825 348 l 1
 825 452 l 1
EndSplineSet
Validated: 1
EndChar

StartChar: d
Encoding: 100 100 58
Width: 1000
VWidth: 0
Flags: MW
LayerCount: 2
Fore
SplineSet
825 452 m 1
 898 452 l 1
 898 432 l 1
 852 432 l 1
 852 412 l 1
 896 412 l 1
 896 392 l 1
 852 392 l 1
 852 368 l 1
 900 368 l 1
 900 348 l 1
 825 348 l 1
 825 452 l 1
453 800 m 1
 483 800 l 1
 521 728 l 1
 521 800 l 1
 547 800 l 1
 547 695 l 1
 517 695 l 1
 479 767 l 1
 479 695 l 1
 453 695 l 1
 453 800 l 1
498 109 m 0
 513 109 527 106 535 104 c 1
 535 81 l 1
 520 88 509 89 502 89 c 0
 492 89 483 87 483 78 c 0
 483 72 488 70 498 68 c 2
 509 65 l 2
 531 61 541 53 541 34 c 0
 541 10 526 0 500 0 c 0
 488 0 475 2 459 8 c 1
 459 30 l 1
 467 26 474 24 479 22 c 0
 488 20 495 20 497 20 c 0
 513 20 515 26 515 31 c 0
 515 38 510 41 499 43 c 2
 489 46 l 2
 471 50 459 58 459 76 c 0
 459 99 474 109 498 109 c 0
186 290 m 0
 196 290 206 282 206 270 c 0
 206 260 198 250 186 250 c 0
 176 250 166 258 166 270 c 0
 166 280 174 290 186 290 c 0
814 550 m 0
 824 550 834 542 834 530 c 0
 834 520 826 510 814 510 c 0
 804 510 794 518 794 530 c 0
 794 540 802 550 814 550 c 0
630 106 m 0
 640 106 650 98 650 86 c 0
 650 76 642 66 630 66 c 0
 620 66 610 74 610 86 c 0
 610 96 618 106 630 106 c 0
370 734 m 0
 380 734 390 726 390 714 c 0
 390 704 382 694 370 694 c 0
 360 694 350 702 350 714 c 0
 350 724 358 734 370 734 c 0
206 530 m 0
 206 518 196 510 186 510 c 0
 174 510 166 520 166 530 c 0
 166 542 176 550 186 550 c 0
 198 550 206 540 206 530 c 0
834 270 m 0
 834 258 824 250 814 250 c 0
 802 250 794 260 794 270 c 0
 794 282 804 290 814 290 c 0
 826 290 834 280 834 270 c 0
390 86 m 0
 390 74 380 66 370 66 c 0
 358 66 350 76 350 86 c 0
 350 98 360 106 370 106 c 0
 382 106 390 96 390 86 c 0
650 714 m 0
 650 702 640 694 630 694 c 0
 618 694 610 704 610 714 c 0
 610 726 620 734 630 734 c 0
 642 734 650 724 650 714 c 0
743 134 m 1
 726 174 l 1
 766 157 l 1
 783 117 l 1
 743 134 l 1
234 643 m 1
 217 683 l 1
 257 666 l 1
 274 626 l 1
 234 643 l 1
234 157 m 1
 274 174 l 1
 257 134 l 1
 217 117 l 1
 234 157 l 1
743 666 m 1
 783 683 l 1
 766 643 l 1
 726 626 l 1
 743 666 l 1
100 452 m 1
 126 452 l 1
 144 376 l 1
 162 452 l 1
 188 452 l 1
 206 376 l 1
 224 452 l 1
 250 452 l 1
 243.749 425.994 l 1
 320.544 434.399 374.424 443.427 431 458 c 0
 497 475 509 476 559 488 c 1
 483 566 l 1
 621 508 l 1
 579 573 l 1
 726 494 l 1
 678 333 l 1
 662 410 l 1
 606 271 l 1
 604 379 l 1
 560 352 551 345 492 310 c 0
 438.015 277.975 390 244 323 188 c 1
 359 241 354 244 391 284 c 1
 434 315 538 384 538 384 c 1
 504 368 504 368 453 343 c 0
 411 321 373 300 302 258 c 1
 342 306 340 313 380 339 c 0
 443 371 483 393 483 393 c 1
 483 393 439 380 372 359 c 0
 353 355 342 353 330 353 c 0
 313 353 297 356 260 360 c 1
 339 381 382 393 427 407 c 0
 480 425 481 426 516 438 c 1
 516 438 394 413 341 405 c 1
 292.538 406.795 288.373 411.811 242.493 420.772 c 1
 225 348 l 1
 194 348 l 1
 175 427 l 1
 156 348 l 1
 125 348 l 1
 100 452 l 1
EndSplineSet
Validated: 524289
EndChar

StartChar: e
Encoding: 101 101 59
Width: 1000
VWidth: 0
Flags: MW
LayerCount: 2
Fore
SplineSet
745 400 m 5
 639 270 l 5
 653 347 l 5
 548 240 l 5
 588 341 l 29
 537 333 526 330 458 320 c 4
 396 311 339 298 255 272 c 5
 309 307 306 312 355 335 c 5
 407 347 529 371 529 371 c 13
 492 369 491 369 435 365 c 4
 388 361 344 356 263 345 c 5
 318 374 319 381 366 389 c 5
 436 395 482 400 482 400 c 5
 482 400 436 405 366 411 c 5
 319 419 318 426 263 455 c 5
 344 444 388 439 435 435 c 4
 491 431 492 431 529 429 c 21
 529 429 407 453 355 465 c 5
 306 488 309 493 255 528 c 5
 339 502 396 489 458 480 c 4
 526 470 537 467 588 459 c 29
 548 560 l 5
 653 453 l 5
 639 530 l 5
 745 400 l 5
743 666 m 1
 783 683 l 1
 766 643 l 1
 726 626 l 1
 743 666 l 1
234 157 m 1
 274 174 l 1
 257 134 l 1
 217 117 l 1
 234 157 l 1
234 643 m 1
 217 683 l 1
 257 666 l 1
 274 626 l 1
 234 643 l 1
743 134 m 1
 726 174 l 1
 766 157 l 1
 783 117 l 1
 743 134 l 1
650 714 m 0
 650 702 640 694 630 694 c 0
 618 694 610 704 610 714 c 0
 610 726 620 734 630 734 c 0
 642 734 650 724 650 714 c 0
390 86 m 0
 390 74 380 66 370 66 c 0
 358 66 350 76 350 86 c 0
 350 98 360 106 370 106 c 0
 382 106 390 96 390 86 c 0
834 270 m 0
 834 258 824 250 814 250 c 0
 802 250 794 260 794 270 c 0
 794 282 804 290 814 290 c 0
 826 290 834 280 834 270 c 0
206 530 m 0
 206 518 196 510 186 510 c 0
 174 510 166 520 166 530 c 0
 166 542 176 550 186 550 c 0
 198 550 206 540 206 530 c 0
370 734 m 0
 380 734 390 726 390 714 c 0
 390 704 382 694 370 694 c 0
 360 694 350 702 350 714 c 0
 350 724 358 734 370 734 c 0
630 106 m 0
 640 106 650 98 650 86 c 0
 650 76 642 66 630 66 c 0
 620 66 610 74 610 86 c 0
 610 96 618 106 630 106 c 0
814 550 m 0
 824 550 834 542 834 530 c 0
 834 520 826 510 814 510 c 0
 804 510 794 518 794 530 c 0
 794 540 802 550 814 550 c 0
186 290 m 0
 196 290 206 282 206 270 c 0
 206 260 198 250 186 250 c 0
 176 250 166 258 166 270 c 0
 166 280 174 290 186 290 c 0
498 109 m 0
 513 109 527 106 535 104 c 1
 535 81 l 1
 520 88 509 89 502 89 c 0
 492 89 483 87 483 78 c 0
 483 72 488 70 498 68 c 2
 509 65 l 2
 531 61 541 53 541 34 c 0
 541 10 526 0 500 0 c 0
 488 0 475 2 459 8 c 1
 459 30 l 1
 467 26 474 24 479 22 c 0
 488 20 495 20 497 20 c 0
 513 20 515 26 515 31 c 0
 515 38 510 41 499 43 c 2
 489 46 l 2
 471 50 459 58 459 76 c 0
 459 99 474 109 498 109 c 0
100 452 m 1
 126 452 l 1
 144 376 l 1
 162 452 l 1
 188 452 l 1
 206 376 l 1
 224 452 l 1
 250 452 l 1
 225 348 l 1
 194 348 l 1
 175 427 l 1
 156 348 l 1
 125 348 l 1
 100 452 l 1
453 800 m 5
 483 800 l 5
 521 728 l 5
 521 800 l 5
 547 800 l 5
 547 695 l 5
 517 695 l 5
 479 767 l 5
 479 695 l 5
 453 695 l 5
 453 800 l 5
825 452 m 1
 898 452 l 1
 898 432 l 1
 852 432 l 1
 852 412 l 1
 896 412 l 1
 896 392 l 1
 852 392 l 1
 852 368 l 1
 900 368 l 1
 900 348 l 1
 825 348 l 1
 825 452 l 1
EndSplineSet
Validated: 1
EndChar

StartChar: f
Encoding: 102 102 60
Width: 1000
VWidth: 0
Flags: MW
LayerCount: 2
Fore
SplineSet
825 452 m 1
 898 452 l 1
 898 432 l 1
 852 432 l 1
 852 412 l 1
 896 412 l 1
 896 392 l 1
 852 392 l 1
 852 368 l 1
 900 368 l 1
 900 348 l 1
 825 348 l 1
 825 452 l 1
453 800 m 1
 483 800 l 1
 521 728 l 1
 521 800 l 1
 547 800 l 1
 547 695 l 1
 517 695 l 1
 479 767 l 1
 479 695 l 1
 453 695 l 1
 453 800 l 1
498 109 m 0
 513 109 527 106 535 104 c 1
 535 81 l 1
 520 88 509 89 502 89 c 0
 492 89 483 87 483 78 c 0
 483 72 488 70 498 68 c 2
 509 65 l 2
 531 61 541 53 541 34 c 0
 541 10 526 0 500 0 c 0
 488 0 475 2 459 8 c 1
 459 30 l 1
 467 26 474 24 479 22 c 0
 488 20 495 20 497 20 c 0
 513 20 515 26 515 31 c 0
 515 38 510 41 499 43 c 2
 489 46 l 2
 471 50 459 58 459 76 c 0
 459 99 474 109 498 109 c 0
186 290 m 0
 196 290 206 282 206 270 c 0
 206 260 198 250 186 250 c 0
 176 250 166 258 166 270 c 0
 166 280 174 290 186 290 c 0
814 550 m 0
 824 550 834 542 834 530 c 0
 834 520 826 510 814 510 c 0
 804 510 794 518 794 530 c 0
 794 540 802 550 814 550 c 0
630 106 m 0
 640 106 650 98 650 86 c 0
 650 76 642 66 630 66 c 0
 620 66 610 74 610 86 c 0
 610 96 618 106 630 106 c 0
370 734 m 0
 380 734 390 726 390 714 c 0
 390 704 382 694 370 694 c 0
 360 694 350 702 350 714 c 0
 350 724 358 734 370 734 c 0
206 530 m 0
 206 518 196 510 186 510 c 0
 174 510 166 520 166 530 c 0
 166 542 176 550 186 550 c 0
 198 550 206 540 206 530 c 0
834 270 m 0
 834 258 824 250 814 250 c 0
 802 250 794 260 794 270 c 0
 794 282 804 290 814 290 c 0
 826 290 834 280 834 270 c 0
390 86 m 0
 390 74 380 66 370 66 c 0
 358 66 350 76 350 86 c 0
 350 98 360 106 370 106 c 0
 382 106 390 96 390 86 c 0
650 714 m 0
 650 702 640 694 630 694 c 0
 618 694 610 704 610 714 c 0
 610 726 620 734 630 734 c 0
 642 734 650 724 650 714 c 0
743 134 m 1
 726 174 l 1
 766 157 l 1
 783 117 l 1
 743 134 l 1
234 643 m 1
 217 683 l 1
 257 666 l 1
 274 626 l 1
 234 643 l 1
234 157 m 1
 274 174 l 1
 257 134 l 1
 217 117 l 1
 234 157 l 1
743 666 m 1
 783 683 l 1
 766 643 l 1
 726 626 l 1
 743 666 l 1
100 452 m 1
 126 452 l 1
 144 376 l 1
 162 452 l 1
 188 452 l 1
 206 376 l 1
 224 452 l 1
 250 452 l 1
 232.032 377.254 l 1
 288.005 387.458 289.089 393.077 341 395 c 1
 394 387 516 362 516 362 c 1
 481 374 480 375 427 393 c 0
 382 407 339 419 260 440 c 1
 297 444 313 447 330 447 c 0
 342 447 353 445 372 441 c 0
 439 420 483 407 483 407 c 1
 483 407 443 429 380 461 c 0
 340 487 342 494 302 542 c 1
 373 500 411 479 453 457 c 0
 504 432 504 432 538 416 c 1
 538 416 434 485 391 516 c 1
 354 556 359 559 323 612 c 1
 390 556 438.015 522.025 492 490 c 0
 551 455 560 448 604 421 c 1
 606 529 l 1
 662 390 l 1
 678 467 l 1
 726 306 l 1
 579 227 l 1
 621 292 l 1
 483 234 l 1
 559 312 l 1
 509 324 497 325 431 342 c 0
 371.479 357.331 314.941 366.525 231.566 375.314 c 1
 225 348 l 1
 194 348 l 1
 175 427 l 1
 156 348 l 1
 125 348 l 1
 100 452 l 1
EndSplineSet
Validated: 524289
EndChar

StartChar: g
Encoding: 103 103 61
Width: 1000
VWidth: 0
Flags: MW
LayerCount: 2
Fore
SplineSet
673 227 m 5
 506 210 l 5
 571 254 l 5
 421 253 l 5
 521 296 l 29
 479 326 469 332 414 373 c 4
 364 411 314 442 236 483 c 5
 299 469 301 475 352 457 c 5
 397 428 500 359 500 359 c 13
 472 384 472 384 429 421 c 4
 393 452 359 479 294 529 c 5
 353 510 359 515 397 487 c 5
 451 442 487 413 487 413 c 5
 487 413 458 449 413 503 c 5
 385 541 390 547 371 606 c 5
 421 541 448 507 479 471 c 4
 516 428 516 428 541 400 c 21
 541 400 472 503 443 548 c 5
 425 599 431 601 417 664 c 5
 458 586 489 536 527 486 c 4
 568 431 574 421 604 379 c 29
 647 479 l 5
 646 329 l 5
 690 394 l 5
 673 227 l 5
743 666 m 1
 783 683 l 1
 766 643 l 1
 726 626 l 1
 743 666 l 1
234 157 m 1
 274 174 l 1
 257 134 l 1
 217 117 l 1
 234 157 l 1
234 643 m 1
 217 683 l 1
 257 666 l 1
 274 626 l 1
 234 643 l 1
743 134 m 1
 726 174 l 1
 766 157 l 1
 783 117 l 1
 743 134 l 1
650 714 m 0
 650 702 640 694 630 694 c 0
 618 694 610 704 610 714 c 0
 610 726 620 734 630 734 c 0
 642 734 650 724 650 714 c 0
390 86 m 0
 390 74 380 66 370 66 c 0
 358 66 350 76 350 86 c 0
 350 98 360 106 370 106 c 0
 382 106 390 96 390 86 c 0
834 270 m 0
 834 258 824 250 814 250 c 0
 802 250 794 260 794 270 c 0
 794 282 804 290 814 290 c 0
 826 290 834 280 834 270 c 0
206 530 m 0
 206 518 196 510 186 510 c 0
 174 510 166 520 166 530 c 0
 166 542 176 550 186 550 c 0
 198 550 206 540 206 530 c 0
370 734 m 0
 380 734 390 726 390 714 c 0
 390 704 382 694 370 694 c 0
 360 694 350 702 350 714 c 0
 350 724 358 734 370 734 c 0
630 106 m 0
 640 106 650 98 650 86 c 0
 650 76 642 66 630 66 c 0
 620 66 610 74 610 86 c 0
 610 96 618 106 630 106 c 0
814 550 m 0
 824 550 834 542 834 530 c 0
 834 520 826 510 814 510 c 0
 804 510 794 518 794 530 c 0
 794 540 802 550 814 550 c 0
186 290 m 0
 196 290 206 282 206 270 c 0
 206 260 198 250 186 250 c 0
 176 250 166 258 166 270 c 0
 166 280 174 290 186 290 c 0
498 109 m 0
 513 109 527 106 535 104 c 1
 535 81 l 1
 520 88 509 89 502 89 c 0
 492 89 483 87 483 78 c 0
 483 72 488 70 498 68 c 2
 509 65 l 2
 531 61 541 53 541 34 c 0
 541 10 526 0 500 0 c 0
 488 0 475 2 459 8 c 1
 459 30 l 1
 467 26 474 24 479 22 c 0
 488 20 495 20 497 20 c 0
 513 20 515 26 515 31 c 0
 515 38 510 41 499 43 c 2
 489 46 l 2
 471 50 459 58 459 76 c 0
 459 99 474 109 498 109 c 0
100 452 m 1
 126 452 l 1
 144 376 l 1
 162 452 l 1
 188 452 l 1
 206 376 l 1
 224 452 l 1
 250 452 l 1
 225 348 l 1
 194 348 l 1
 175 427 l 1
 156 348 l 1
 125 348 l 1
 100 452 l 1
453 800 m 5
 483 800 l 5
 521 728 l 5
 521 800 l 5
 547 800 l 5
 547 695 l 5
 517 695 l 5
 479 767 l 5
 479 695 l 5
 453 695 l 5
 453 800 l 5
825 452 m 1
 898 452 l 1
 898 432 l 1
 852 432 l 1
 852 412 l 1
 896 412 l 1
 896 392 l 1
 852 392 l 1
 852 368 l 1
 900 368 l 1
 900 348 l 1
 825 348 l 1
 825 452 l 1
EndSplineSet
Validated: 1
EndChar

StartChar: h
Encoding: 104 104 62
Width: 1000
VWidth: 0
Flags: MW
LayerCount: 2
Fore
SplineSet
594 174 m 1
 433 222 l 1
 510 238 l 1
 371 294 l 1
 479 296 l 25
 452 340 445 349 410 408 c 0
 378 462 344 510 288 577 c 1
 341 541 344 546 384 509 c 1
 415 466 484 362 484 362 c 9
 468 396 468 396 443 447 c 0
 421 489 400 527 358 598 c 1
 406 558 413 560 439 520 c 1
 471 457 493 417 493 417 c 1
 493 417 480 461 459 528 c 1
 455 547 453 558 453 570 c 0
 453 587 456 603 460 640 c 1
 481 561 493 518 507 473 c 0
 525 420 526 419 538 384 c 17
 538 384 513 506 505 559 c 1
 507 613 513 612 524 675 c 1
 533 588 542 530 558 469 c 0
 575 403 576 391 588 341 c 25
 666 417 l 1
 608 279 l 1
 673 321 l 1
 594 174 l 1
743 666 m 1
 783 683 l 1
 766 643 l 1
 726 626 l 1
 743 666 l 1
234 157 m 1
 274 174 l 1
 257 134 l 1
 217 117 l 1
 234 157 l 1
234 643 m 1
 217 683 l 1
 257 666 l 1
 274 626 l 1
 234 643 l 1
743 134 m 1
 726 174 l 1
 766 157 l 1
 783 117 l 1
 743 134 l 1
650 714 m 0
 650 702 640 694 630 694 c 0
 618 694 610 704 610 714 c 0
 610 726 620 734 630 734 c 0
 642 734 650 724 650 714 c 0
390 86 m 0
 390 74 380 66 370 66 c 0
 358 66 350 76 350 86 c 0
 350 98 360 106 370 106 c 0
 382 106 390 96 390 86 c 0
834 270 m 0
 834 258 824 250 814 250 c 0
 802 250 794 260 794 270 c 0
 794 282 804 290 814 290 c 0
 826 290 834 280 834 270 c 0
206 530 m 0
 206 518 196 510 186 510 c 0
 174 510 166 520 166 530 c 0
 166 542 176 550 186 550 c 0
 198 550 206 540 206 530 c 0
370 734 m 0
 380 734 390 726 390 714 c 0
 390 704 382 694 370 694 c 0
 360 694 350 702 350 714 c 0
 350 724 358 734 370 734 c 0
630 106 m 0
 640 106 650 98 650 86 c 0
 650 76 642 66 630 66 c 0
 620 66 610 74 610 86 c 0
 610 96 618 106 630 106 c 0
814 550 m 0
 824 550 834 542 834 530 c 0
 834 520 826 510 814 510 c 0
 804 510 794 518 794 530 c 0
 794 540 802 550 814 550 c 0
186 290 m 0
 196 290 206 282 206 270 c 0
 206 260 198 250 186 250 c 0
 176 250 166 258 166 270 c 0
 166 280 174 290 186 290 c 0
498 109 m 0
 513 109 527 106 535 104 c 1
 535 81 l 1
 520 88 509 89 502 89 c 0
 492 89 483 87 483 78 c 0
 483 72 488 70 498 68 c 2
 509 65 l 2
 531 61 541 53 541 34 c 0
 541 10 526 0 500 0 c 0
 488 0 475 2 459 8 c 1
 459 30 l 1
 467 26 474 24 479 22 c 0
 488 20 495 20 497 20 c 0
 513 20 515 26 515 31 c 0
 515 38 510 41 499 43 c 2
 489 46 l 2
 471 50 459 58 459 76 c 0
 459 99 474 109 498 109 c 0
100 452 m 1
 126 452 l 1
 144 376 l 1
 162 452 l 1
 188 452 l 1
 206 376 l 1
 224 452 l 1
 250 452 l 1
 225 348 l 1
 194 348 l 1
 175 427 l 1
 156 348 l 1
 125 348 l 1
 100 452 l 1
453 800 m 5
 483 800 l 5
 521 728 l 5
 521 800 l 5
 547 800 l 5
 547 695 l 5
 517 695 l 5
 479 767 l 5
 479 695 l 5
 453 695 l 5
 453 800 l 5
825 452 m 1
 898 452 l 1
 898 432 l 1
 852 432 l 1
 852 412 l 1
 896 412 l 1
 896 392 l 1
 852 392 l 1
 852 368 l 1
 900 368 l 1
 900 348 l 1
 825 348 l 1
 825 452 l 1
EndSplineSet
Validated: 1
EndChar

StartChar: i
Encoding: 105 105 63
Width: 1000
VWidth: 0
Flags: MW
LayerCount: 2
Fore
SplineSet
500 155 m 5
 370 261 l 5
 447 247 l 5
 340 352 l 5
 441 312 l 29
 433 363 430 374 420 442 c 4
 411 504 398 561 372 645 c 5
 407 591 412 594 435 545 c 5
 447 493 471 371 471 371 c 13
 469 408 469 409 465 465 c 4
 461 512 456 556 445 637 c 5
 474 582 481 581 489 534 c 5
 495 464 500 418 500 418 c 5
 500 418 505 464 511 534 c 5
 519 581 526 582 555 637 c 5
 544 556 539 512 535 465 c 4
 531 409 531 408 529 371 c 21
 529 371 553 493 565 545 c 5
 588 594 593 591 628 645 c 5
 602 561 589 504 580 442 c 4
 570 374 567 363 559 312 c 29
 660 352 l 5
 553 247 l 5
 630 261 l 5
 500 155 l 5
743 666 m 1
 783 683 l 1
 766 643 l 1
 726 626 l 1
 743 666 l 1
234 157 m 1
 274 174 l 1
 257 134 l 1
 217 117 l 1
 234 157 l 1
234 643 m 1
 217 683 l 1
 257 666 l 1
 274 626 l 1
 234 643 l 1
743 134 m 1
 726 174 l 1
 766 157 l 1
 783 117 l 1
 743 134 l 1
650 714 m 0
 650 702 640 694 630 694 c 0
 618 694 610 704 610 714 c 0
 610 726 620 734 630 734 c 0
 642 734 650 724 650 714 c 0
390 86 m 0
 390 74 380 66 370 66 c 0
 358 66 350 76 350 86 c 0
 350 98 360 106 370 106 c 0
 382 106 390 96 390 86 c 0
834 270 m 0
 834 258 824 250 814 250 c 0
 802 250 794 260 794 270 c 0
 794 282 804 290 814 290 c 0
 826 290 834 280 834 270 c 0
206 530 m 0
 206 518 196 510 186 510 c 0
 174 510 166 520 166 530 c 0
 166 542 176 550 186 550 c 0
 198 550 206 540 206 530 c 0
370 734 m 0
 380 734 390 726 390 714 c 0
 390 704 382 694 370 694 c 0
 360 694 350 702 350 714 c 0
 350 724 358 734 370 734 c 0
630 106 m 0
 640 106 650 98 650 86 c 0
 650 76 642 66 630 66 c 0
 620 66 610 74 610 86 c 0
 610 96 618 106 630 106 c 0
814 550 m 0
 824 550 834 542 834 530 c 0
 834 520 826 510 814 510 c 0
 804 510 794 518 794 530 c 0
 794 540 802 550 814 550 c 0
186 290 m 0
 196 290 206 282 206 270 c 0
 206 260 198 250 186 250 c 0
 176 250 166 258 166 270 c 0
 166 280 174 290 186 290 c 0
498 109 m 0
 513 109 527 106 535 104 c 1
 535 81 l 1
 520 88 509 89 502 89 c 0
 492 89 483 87 483 78 c 0
 483 72 488 70 498 68 c 2
 509 65 l 2
 531 61 541 53 541 34 c 0
 541 10 526 0 500 0 c 0
 488 0 475 2 459 8 c 1
 459 30 l 1
 467 26 474 24 479 22 c 0
 488 20 495 20 497 20 c 0
 513 20 515 26 515 31 c 0
 515 38 510 41 499 43 c 2
 489 46 l 2
 471 50 459 58 459 76 c 0
 459 99 474 109 498 109 c 0
100 452 m 1
 126 452 l 1
 144 376 l 1
 162 452 l 1
 188 452 l 1
 206 376 l 1
 224 452 l 1
 250 452 l 1
 225 348 l 1
 194 348 l 1
 175 427 l 1
 156 348 l 1
 125 348 l 1
 100 452 l 1
453 800 m 5
 483 800 l 5
 521 728 l 5
 521 800 l 5
 547 800 l 5
 547 695 l 5
 517 695 l 5
 479 767 l 5
 479 695 l 5
 453 695 l 5
 453 800 l 5
825 452 m 1
 898 452 l 1
 898 432 l 1
 852 432 l 1
 852 412 l 1
 896 412 l 1
 896 392 l 1
 852 392 l 1
 852 368 l 1
 900 368 l 1
 900 348 l 1
 825 348 l 1
 825 452 l 1
EndSplineSet
Validated: 1
EndChar

StartChar: j
Encoding: 106 106 64
Width: 1000
VWidth: 0
Flags: MW
LayerCount: 2
Fore
SplineSet
406 174 m 1
 327 321 l 1
 392 279 l 1
 334 417 l 1
 412 341 l 25
 424 391 425 403 442 469 c 0
 458 530 467 588 476 675 c 1
 487 612 493 613 495 559 c 1
 487 506 462 384 462 384 c 9
 474 419 475 420 493 473 c 0
 507 518 519 561 540 640 c 1
 544 603 547 587 547 570 c 0
 547 558 545 547 541 528 c 1
 520 461 507 417 507 417 c 1
 507 417 529 457 561 520 c 1
 587 560 594 558 642 598 c 1
 600 527 579 489 557 447 c 0
 532 396 532 396 516 362 c 17
 516 362 585 466 616 509 c 1
 656 546 659 541 712 577 c 1
 656 510 622 462 590 408 c 0
 555 349 548 340 521 296 c 25
 629 294 l 1
 490 238 l 1
 567 222 l 1
 406 174 l 1
743 666 m 1
 783 683 l 1
 766 643 l 1
 726 626 l 1
 743 666 l 1
234 157 m 1
 274 174 l 1
 257 134 l 1
 217 117 l 1
 234 157 l 1
234 643 m 1
 217 683 l 1
 257 666 l 1
 274 626 l 1
 234 643 l 1
743 134 m 1
 726 174 l 1
 766 157 l 1
 783 117 l 1
 743 134 l 1
650 714 m 0
 650 702 640 694 630 694 c 0
 618 694 610 704 610 714 c 0
 610 726 620 734 630 734 c 0
 642 734 650 724 650 714 c 0
390 86 m 0
 390 74 380 66 370 66 c 0
 358 66 350 76 350 86 c 0
 350 98 360 106 370 106 c 0
 382 106 390 96 390 86 c 0
834 270 m 0
 834 258 824 250 814 250 c 0
 802 250 794 260 794 270 c 0
 794 282 804 290 814 290 c 0
 826 290 834 280 834 270 c 0
206 530 m 0
 206 518 196 510 186 510 c 0
 174 510 166 520 166 530 c 0
 166 542 176 550 186 550 c 0
 198 550 206 540 206 530 c 0
370 734 m 0
 380 734 390 726 390 714 c 0
 390 704 382 694 370 694 c 0
 360 694 350 702 350 714 c 0
 350 724 358 734 370 734 c 0
630 106 m 0
 640 106 650 98 650 86 c 0
 650 76 642 66 630 66 c 0
 620 66 610 74 610 86 c 0
 610 96 618 106 630 106 c 0
814 550 m 0
 824 550 834 542 834 530 c 0
 834 520 826 510 814 510 c 0
 804 510 794 518 794 530 c 0
 794 540 802 550 814 550 c 0
186 290 m 0
 196 290 206 282 206 270 c 0
 206 260 198 250 186 250 c 0
 176 250 166 258 166 270 c 0
 166 280 174 290 186 290 c 0
498 109 m 0
 513 109 527 106 535 104 c 1
 535 81 l 1
 520 88 509 89 502 89 c 0
 492 89 483 87 483 78 c 0
 483 72 488 70 498 68 c 2
 509 65 l 2
 531 61 541 53 541 34 c 0
 541 10 526 0 500 0 c 0
 488 0 475 2 459 8 c 1
 459 30 l 1
 467 26 474 24 479 22 c 0
 488 20 495 20 497 20 c 0
 513 20 515 26 515 31 c 0
 515 38 510 41 499 43 c 2
 489 46 l 2
 471 50 459 58 459 76 c 0
 459 99 474 109 498 109 c 0
100 452 m 1
 126 452 l 1
 144 376 l 1
 162 452 l 1
 188 452 l 1
 206 376 l 1
 224 452 l 1
 250 452 l 1
 225 348 l 1
 194 348 l 1
 175 427 l 1
 156 348 l 1
 125 348 l 1
 100 452 l 1
453 800 m 5
 483 800 l 5
 521 728 l 5
 521 800 l 5
 547 800 l 5
 547 695 l 5
 517 695 l 5
 479 767 l 5
 479 695 l 5
 453 695 l 5
 453 800 l 5
825 452 m 1
 898 452 l 1
 898 432 l 1
 852 432 l 1
 852 412 l 1
 896 412 l 1
 896 392 l 1
 852 392 l 1
 852 368 l 1
 900 368 l 1
 900 348 l 1
 825 348 l 1
 825 452 l 1
EndSplineSet
Validated: 1
EndChar

StartChar: k
Encoding: 107 107 65
Width: 1000
VWidth: 0
Flags: MW
LayerCount: 2
Fore
SplineSet
327 227 m 5
 310 394 l 5
 354 329 l 5
 353 479 l 5
 396 379 l 29
 426 421 432 431 473 486 c 4
 511 536 542 586 583 664 c 5
 569 601 575 599 557 548 c 5
 528 503 459 400 459 400 c 13
 484 428 484 428 521 471 c 4
 552 507 579 541 629 606 c 5
 610 547 615 541 587 503 c 5
 542 449 513 413 513 413 c 5
 513 413 549 442 603 487 c 5
 641 515 647 510 706 529 c 5
 641 479 607 452 571 421 c 4
 528 384 528 384 500 359 c 21
 500 359 603 428 648 457 c 5
 699 475 701 469 764 483 c 5
 686 442 636 411 586 373 c 4
 531 332 521 326 479 296 c 29
 579 253 l 5
 429 254 l 5
 494 210 l 5
 327 227 l 5
743 666 m 1
 783 683 l 1
 766 643 l 1
 726 626 l 1
 743 666 l 1
234 157 m 1
 274 174 l 1
 257 134 l 1
 217 117 l 1
 234 157 l 1
234 643 m 1
 217 683 l 1
 257 666 l 1
 274 626 l 1
 234 643 l 1
743 134 m 1
 726 174 l 1
 766 157 l 1
 783 117 l 1
 743 134 l 1
650 714 m 0
 650 702 640 694 630 694 c 0
 618 694 610 704 610 714 c 0
 610 726 620 734 630 734 c 0
 642 734 650 724 650 714 c 0
390 86 m 0
 390 74 380 66 370 66 c 0
 358 66 350 76 350 86 c 0
 350 98 360 106 370 106 c 0
 382 106 390 96 390 86 c 0
834 270 m 0
 834 258 824 250 814 250 c 0
 802 250 794 260 794 270 c 0
 794 282 804 290 814 290 c 0
 826 290 834 280 834 270 c 0
206 530 m 0
 206 518 196 510 186 510 c 0
 174 510 166 520 166 530 c 0
 166 542 176 550 186 550 c 0
 198 550 206 540 206 530 c 0
370 734 m 0
 380 734 390 726 390 714 c 0
 390 704 382 694 370 694 c 0
 360 694 350 702 350 714 c 0
 350 724 358 734 370 734 c 0
630 106 m 0
 640 106 650 98 650 86 c 0
 650 76 642 66 630 66 c 0
 620 66 610 74 610 86 c 0
 610 96 618 106 630 106 c 0
814 550 m 0
 824 550 834 542 834 530 c 0
 834 520 826 510 814 510 c 0
 804 510 794 518 794 530 c 0
 794 540 802 550 814 550 c 0
186 290 m 0
 196 290 206 282 206 270 c 0
 206 260 198 250 186 250 c 0
 176 250 166 258 166 270 c 0
 166 280 174 290 186 290 c 0
498 109 m 0
 513 109 527 106 535 104 c 1
 535 81 l 1
 520 88 509 89 502 89 c 0
 492 89 483 87 483 78 c 0
 483 72 488 70 498 68 c 2
 509 65 l 2
 531 61 541 53 541 34 c 0
 541 10 526 0 500 0 c 0
 488 0 475 2 459 8 c 1
 459 30 l 1
 467 26 474 24 479 22 c 0
 488 20 495 20 497 20 c 0
 513 20 515 26 515 31 c 0
 515 38 510 41 499 43 c 2
 489 46 l 2
 471 50 459 58 459 76 c 0
 459 99 474 109 498 109 c 0
100 452 m 1
 126 452 l 1
 144 376 l 1
 162 452 l 1
 188 452 l 1
 206 376 l 1
 224 452 l 1
 250 452 l 1
 225 348 l 1
 194 348 l 1
 175 427 l 1
 156 348 l 1
 125 348 l 1
 100 452 l 1
453 800 m 5
 483 800 l 5
 521 728 l 5
 521 800 l 5
 547 800 l 5
 547 695 l 5
 517 695 l 5
 479 767 l 5
 479 695 l 5
 453 695 l 5
 453 800 l 5
825 452 m 1
 898 452 l 1
 898 432 l 1
 852 432 l 1
 852 412 l 1
 896 412 l 1
 896 392 l 1
 852 392 l 1
 852 368 l 1
 900 368 l 1
 900 348 l 1
 825 348 l 1
 825 452 l 1
EndSplineSet
Validated: 1
EndChar

StartChar: l
Encoding: 108 108 66
Width: 1000
VWidth: 0
Flags: MW
LayerCount: 2
Fore
SplineSet
274 306 m 1
 322 467 l 1
 338 390 l 1
 394 529 l 1
 396 421 l 25
 440 448 449 455 508 490 c 0
 562 522 610 556 677 612 c 1
 641 559 646 556 609 516 c 1
 566 485 462 416 462 416 c 9
 496 432 496 432 547 457 c 0
 589 479 627 500 698 542 c 1
 658 494 660 487 620 461 c 1
 557 429 517 407 517 407 c 1
 517 407 561 420 628 441 c 1
 647 445 658 447 670 447 c 0
 687 447 703 444 740 440 c 1
 661 419 618 407 573 393 c 0
 520 375 519 374 484 362 c 17
 484 362 606 387 659 395 c 1
 713 393 712 387 775 376 c 1
 688 367 630 358 569 342 c 0
 503 325 491 324 441 312 c 25
 517 234 l 1
 379 292 l 1
 421 227 l 1
 274 306 l 1
743 666 m 1
 783 683 l 1
 766 643 l 1
 726 626 l 1
 743 666 l 1
234 157 m 1
 274 174 l 1
 257 134 l 1
 217 117 l 1
 234 157 l 1
234 643 m 1
 217 683 l 1
 257 666 l 1
 274 626 l 1
 234 643 l 1
743 134 m 1
 726 174 l 1
 766 157 l 1
 783 117 l 1
 743 134 l 1
650 714 m 0
 650 702 640 694 630 694 c 0
 618 694 610 704 610 714 c 0
 610 726 620 734 630 734 c 0
 642 734 650 724 650 714 c 0
390 86 m 0
 390 74 380 66 370 66 c 0
 358 66 350 76 350 86 c 0
 350 98 360 106 370 106 c 0
 382 106 390 96 390 86 c 0
834 270 m 0
 834 258 824 250 814 250 c 0
 802 250 794 260 794 270 c 0
 794 282 804 290 814 290 c 0
 826 290 834 280 834 270 c 0
206 530 m 0
 206 518 196 510 186 510 c 0
 174 510 166 520 166 530 c 0
 166 542 176 550 186 550 c 0
 198 550 206 540 206 530 c 0
370 734 m 0
 380 734 390 726 390 714 c 0
 390 704 382 694 370 694 c 0
 360 694 350 702 350 714 c 0
 350 724 358 734 370 734 c 0
630 106 m 0
 640 106 650 98 650 86 c 0
 650 76 642 66 630 66 c 0
 620 66 610 74 610 86 c 0
 610 96 618 106 630 106 c 0
814 550 m 0
 824 550 834 542 834 530 c 0
 834 520 826 510 814 510 c 0
 804 510 794 518 794 530 c 0
 794 540 802 550 814 550 c 0
186 290 m 0
 196 290 206 282 206 270 c 0
 206 260 198 250 186 250 c 0
 176 250 166 258 166 270 c 0
 166 280 174 290 186 290 c 0
498 109 m 0
 513 109 527 106 535 104 c 1
 535 81 l 1
 520 88 509 89 502 89 c 0
 492 89 483 87 483 78 c 0
 483 72 488 70 498 68 c 2
 509 65 l 2
 531 61 541 53 541 34 c 0
 541 10 526 0 500 0 c 0
 488 0 475 2 459 8 c 1
 459 30 l 1
 467 26 474 24 479 22 c 0
 488 20 495 20 497 20 c 0
 513 20 515 26 515 31 c 0
 515 38 510 41 499 43 c 2
 489 46 l 2
 471 50 459 58 459 76 c 0
 459 99 474 109 498 109 c 0
100 452 m 1
 126 452 l 1
 144 376 l 1
 162 452 l 1
 188 452 l 1
 206 376 l 1
 224 452 l 1
 250 452 l 1
 225 348 l 1
 194 348 l 1
 175 427 l 1
 156 348 l 1
 125 348 l 1
 100 452 l 1
453 800 m 5
 483 800 l 5
 521 728 l 5
 521 800 l 5
 547 800 l 5
 547 695 l 5
 517 695 l 5
 479 767 l 5
 479 695 l 5
 453 695 l 5
 453 800 l 5
825 452 m 1
 898 452 l 1
 898 432 l 1
 852 432 l 1
 852 412 l 1
 896 412 l 1
 896 392 l 1
 852 392 l 1
 852 368 l 1
 900 368 l 1
 900 348 l 1
 825 348 l 1
 825 452 l 1
EndSplineSet
Validated: 1
EndChar

StartChar: m
Encoding: 109 109 67
Width: 1000
VWidth: 0
Flags: MW
LayerCount: 2
Fore
SplineSet
255 400 m 5
 361 530 l 5
 347 453 l 5
 452 560 l 5
 412 459 l 29
 463 467 474 470 542 480 c 4
 604 489 661 502 745 528 c 5
 691 493 694 488 645 465 c 5
 593 453 471 429 471 429 c 13
 508 431 509 431 565 435 c 4
 612 439 656 444 737 455 c 5
 682 426 681 419 634 411 c 5
 564 405 518 400 518 400 c 5
 518 400 564 395 634 389 c 5
 681 381 682 374 737 345 c 5
 656 356 612 361 565 365 c 4
 509 369 508 369 471 371 c 21
 471 371 593 347 645 335 c 5
 694 312 691 307 745 272 c 5
 661 298 604 311 542 320 c 4
 474 330 463 333 412 341 c 29
 452 240 l 5
 347 347 l 5
 361 270 l 5
 255 400 l 5
743 666 m 1
 783 683 l 1
 766 643 l 1
 726 626 l 1
 743 666 l 1
234 157 m 1
 274 174 l 1
 257 134 l 1
 217 117 l 1
 234 157 l 1
234 643 m 1
 217 683 l 1
 257 666 l 1
 274 626 l 1
 234 643 l 1
743 134 m 1
 726 174 l 1
 766 157 l 1
 783 117 l 1
 743 134 l 1
650 714 m 0
 650 702 640 694 630 694 c 0
 618 694 610 704 610 714 c 0
 610 726 620 734 630 734 c 0
 642 734 650 724 650 714 c 0
390 86 m 0
 390 74 380 66 370 66 c 0
 358 66 350 76 350 86 c 0
 350 98 360 106 370 106 c 0
 382 106 390 96 390 86 c 0
834 270 m 0
 834 258 824 250 814 250 c 0
 802 250 794 260 794 270 c 0
 794 282 804 290 814 290 c 0
 826 290 834 280 834 270 c 0
206 530 m 0
 206 518 196 510 186 510 c 0
 174 510 166 520 166 530 c 0
 166 542 176 550 186 550 c 0
 198 550 206 540 206 530 c 0
370 734 m 0
 380 734 390 726 390 714 c 0
 390 704 382 694 370 694 c 0
 360 694 350 702 350 714 c 0
 350 724 358 734 370 734 c 0
630 106 m 0
 640 106 650 98 650 86 c 0
 650 76 642 66 630 66 c 0
 620 66 610 74 610 86 c 0
 610 96 618 106 630 106 c 0
814 550 m 0
 824 550 834 542 834 530 c 0
 834 520 826 510 814 510 c 0
 804 510 794 518 794 530 c 0
 794 540 802 550 814 550 c 0
186 290 m 0
 196 290 206 282 206 270 c 0
 206 260 198 250 186 250 c 0
 176 250 166 258 166 270 c 0
 166 280 174 290 186 290 c 0
498 109 m 0
 513 109 527 106 535 104 c 1
 535 81 l 1
 520 88 509 89 502 89 c 0
 492 89 483 87 483 78 c 0
 483 72 488 70 498 68 c 2
 509 65 l 2
 531 61 541 53 541 34 c 0
 541 10 526 0 500 0 c 0
 488 0 475 2 459 8 c 1
 459 30 l 1
 467 26 474 24 479 22 c 0
 488 20 495 20 497 20 c 0
 513 20 515 26 515 31 c 0
 515 38 510 41 499 43 c 2
 489 46 l 2
 471 50 459 58 459 76 c 0
 459 99 474 109 498 109 c 0
100 452 m 1
 126 452 l 1
 144 376 l 1
 162 452 l 1
 188 452 l 1
 206 376 l 1
 224 452 l 1
 250 452 l 1
 225 348 l 1
 194 348 l 1
 175 427 l 1
 156 348 l 1
 125 348 l 1
 100 452 l 1
453 800 m 5
 483 800 l 5
 521 728 l 5
 521 800 l 5
 547 800 l 5
 547 695 l 5
 517 695 l 5
 479 767 l 5
 479 695 l 5
 453 695 l 5
 453 800 l 5
825 452 m 1
 898 452 l 1
 898 432 l 1
 852 432 l 1
 852 412 l 1
 896 412 l 1
 896 392 l 1
 852 392 l 1
 852 368 l 1
 900 368 l 1
 900 348 l 1
 825 348 l 1
 825 452 l 1
EndSplineSet
Validated: 1
EndChar

StartChar: n
Encoding: 110 110 68
Width: 1000
VWidth: 0
Flags: MW
LayerCount: 2
Fore
SplineSet
274 494 m 1
 421 573 l 1
 379 508 l 1
 517 566 l 1
 441 488 l 25
 491 476 503 475 569 458 c 0
 630 442 688 433 775 424 c 1
 712 413 713 407 659 405 c 1
 606 413 484 438 484 438 c 9
 519 426 520 425 573 407 c 0
 618 393 661 381 740 360 c 1
 703 356 687 353 670 353 c 0
 658 353 647 355 628 359 c 1
 561 380 517 393 517 393 c 1
 517 393 557 371 620 339 c 1
 660 313 658 306 698 258 c 1
 627 300 589 321 547 343 c 0
 496 368 496 368 462 384 c 17
 462 384 566 315 609 284 c 1
 646 244 641 241 677 188 c 1
 610 244 562 278 508 310 c 0
 449 345 440 352 396 379 c 25
 394 271 l 1
 338 410 l 1
 322 333 l 1
 274 494 l 1
743 666 m 1
 783 683 l 1
 766 643 l 1
 726 626 l 1
 743 666 l 1
234 157 m 1
 274 174 l 1
 257 134 l 1
 217 117 l 1
 234 157 l 1
234 643 m 1
 217 683 l 1
 257 666 l 1
 274 626 l 1
 234 643 l 1
743 134 m 1
 726 174 l 1
 766 157 l 1
 783 117 l 1
 743 134 l 1
650 714 m 0
 650 702 640 694 630 694 c 0
 618 694 610 704 610 714 c 0
 610 726 620 734 630 734 c 0
 642 734 650 724 650 714 c 0
390 86 m 0
 390 74 380 66 370 66 c 0
 358 66 350 76 350 86 c 0
 350 98 360 106 370 106 c 0
 382 106 390 96 390 86 c 0
834 270 m 0
 834 258 824 250 814 250 c 0
 802 250 794 260 794 270 c 0
 794 282 804 290 814 290 c 0
 826 290 834 280 834 270 c 0
206 530 m 0
 206 518 196 510 186 510 c 0
 174 510 166 520 166 530 c 0
 166 542 176 550 186 550 c 0
 198 550 206 540 206 530 c 0
370 734 m 0
 380 734 390 726 390 714 c 0
 390 704 382 694 370 694 c 0
 360 694 350 702 350 714 c 0
 350 724 358 734 370 734 c 0
630 106 m 0
 640 106 650 98 650 86 c 0
 650 76 642 66 630 66 c 0
 620 66 610 74 610 86 c 0
 610 96 618 106 630 106 c 0
814 550 m 0
 824 550 834 542 834 530 c 0
 834 520 826 510 814 510 c 0
 804 510 794 518 794 530 c 0
 794 540 802 550 814 550 c 0
186 290 m 0
 196 290 206 282 206 270 c 0
 206 260 198 250 186 250 c 0
 176 250 166 258 166 270 c 0
 166 280 174 290 186 290 c 0
498 109 m 0
 513 109 527 106 535 104 c 1
 535 81 l 1
 520 88 509 89 502 89 c 0
 492 89 483 87 483 78 c 0
 483 72 488 70 498 68 c 2
 509 65 l 2
 531 61 541 53 541 34 c 0
 541 10 526 0 500 0 c 0
 488 0 475 2 459 8 c 1
 459 30 l 1
 467 26 474 24 479 22 c 0
 488 20 495 20 497 20 c 0
 513 20 515 26 515 31 c 0
 515 38 510 41 499 43 c 2
 489 46 l 2
 471 50 459 58 459 76 c 0
 459 99 474 109 498 109 c 0
100 452 m 1
 126 452 l 1
 144 376 l 1
 162 452 l 1
 188 452 l 1
 206 376 l 1
 224 452 l 1
 250 452 l 1
 225 348 l 1
 194 348 l 1
 175 427 l 1
 156 348 l 1
 125 348 l 1
 100 452 l 1
453 800 m 5
 483 800 l 5
 521 728 l 5
 521 800 l 5
 547 800 l 5
 547 695 l 5
 517 695 l 5
 479 767 l 5
 479 695 l 5
 453 695 l 5
 453 800 l 5
825 452 m 1
 898 452 l 1
 898 432 l 1
 852 432 l 1
 852 412 l 1
 896 412 l 1
 896 392 l 1
 852 392 l 1
 852 368 l 1
 900 368 l 1
 900 348 l 1
 825 348 l 1
 825 452 l 1
EndSplineSet
Validated: 1
EndChar

StartChar: o
Encoding: 111 111 69
Width: 1000
VWidth: 0
Flags: MW
LayerCount: 2
Fore
SplineSet
327 573 m 5
 494 590 l 5
 429 546 l 5
 579 547 l 5
 479 504 l 29
 521 474 531 468 586 427 c 4
 636 389 686 358 764 317 c 5
 701 331 699 325 648 343 c 5
 603 372 500 441 500 441 c 13
 528 416 528 416 571 379 c 4
 607 348 641 321 706 271 c 5
 647 290 641 285 603 313 c 5
 549 358 513 387 513 387 c 5
 513 387 542 351 587 297 c 5
 615 259 610 253 629 194 c 5
 579 259 552 293 521 329 c 4
 484 372 484 372 459 400 c 21
 459 400 528 297 557 252 c 5
 575 201 569 199 583 136 c 5
 542 214 511 264 473 314 c 4
 432 369 426 379 396 421 c 29
 353 321 l 5
 354 471 l 5
 310 406 l 5
 327 573 l 5
743 666 m 1
 783 683 l 1
 766 643 l 1
 726 626 l 1
 743 666 l 1
234 157 m 1
 274 174 l 1
 257 134 l 1
 217 117 l 1
 234 157 l 1
234 643 m 1
 217 683 l 1
 257 666 l 1
 274 626 l 1
 234 643 l 1
743 134 m 1
 726 174 l 1
 766 157 l 1
 783 117 l 1
 743 134 l 1
650 714 m 0
 650 702 640 694 630 694 c 0
 618 694 610 704 610 714 c 0
 610 726 620 734 630 734 c 0
 642 734 650 724 650 714 c 0
390 86 m 0
 390 74 380 66 370 66 c 0
 358 66 350 76 350 86 c 0
 350 98 360 106 370 106 c 0
 382 106 390 96 390 86 c 0
834 270 m 0
 834 258 824 250 814 250 c 0
 802 250 794 260 794 270 c 0
 794 282 804 290 814 290 c 0
 826 290 834 280 834 270 c 0
206 530 m 0
 206 518 196 510 186 510 c 0
 174 510 166 520 166 530 c 0
 166 542 176 550 186 550 c 0
 198 550 206 540 206 530 c 0
370 734 m 0
 380 734 390 726 390 714 c 0
 390 704 382 694 370 694 c 0
 360 694 350 702 350 714 c 0
 350 724 358 734 370 734 c 0
630 106 m 0
 640 106 650 98 650 86 c 0
 650 76 642 66 630 66 c 0
 620 66 610 74 610 86 c 0
 610 96 618 106 630 106 c 0
814 550 m 0
 824 550 834 542 834 530 c 0
 834 520 826 510 814 510 c 0
 804 510 794 518 794 530 c 0
 794 540 802 550 814 550 c 0
186 290 m 0
 196 290 206 282 206 270 c 0
 206 260 198 250 186 250 c 0
 176 250 166 258 166 270 c 0
 166 280 174 290 186 290 c 0
498 109 m 0
 513 109 527 106 535 104 c 1
 535 81 l 1
 520 88 509 89 502 89 c 0
 492 89 483 87 483 78 c 0
 483 72 488 70 498 68 c 2
 509 65 l 2
 531 61 541 53 541 34 c 0
 541 10 526 0 500 0 c 0
 488 0 475 2 459 8 c 1
 459 30 l 1
 467 26 474 24 479 22 c 0
 488 20 495 20 497 20 c 0
 513 20 515 26 515 31 c 0
 515 38 510 41 499 43 c 2
 489 46 l 2
 471 50 459 58 459 76 c 0
 459 99 474 109 498 109 c 0
100 452 m 1
 126 452 l 1
 144 376 l 1
 162 452 l 1
 188 452 l 1
 206 376 l 1
 224 452 l 1
 250 452 l 1
 225 348 l 1
 194 348 l 1
 175 427 l 1
 156 348 l 1
 125 348 l 1
 100 452 l 1
453 800 m 5
 483 800 l 5
 521 728 l 5
 521 800 l 5
 547 800 l 5
 547 695 l 5
 517 695 l 5
 479 767 l 5
 479 695 l 5
 453 695 l 5
 453 800 l 5
825 452 m 1
 898 452 l 1
 898 432 l 1
 852 432 l 1
 852 412 l 1
 896 412 l 1
 896 392 l 1
 852 392 l 1
 852 368 l 1
 900 368 l 1
 900 348 l 1
 825 348 l 1
 825 452 l 1
EndSplineSet
Validated: 1
EndChar

StartChar: p
Encoding: 112 112 70
Width: 1000
VWidth: 0
Flags: MW
LayerCount: 2
Fore
SplineSet
406 626 m 1
 567 578 l 1
 490 562 l 1
 629 506 l 1
 521 504 l 25
 548 460 555 451 590 392 c 0
 622 338 656 290 712 223 c 1
 659 259 656 254 616 291 c 1
 585 334 516 438 516 438 c 9
 532 404 532 404 557 353 c 0
 579 311 600 273 642 202 c 1
 594 242 587 240 561 280 c 1
 529 343 507 383 507 383 c 1
 507 383 520 339 541 272 c 1
 545 253 547 242 547 230 c 0
 547 213 544 197 540 160 c 1
 519 239 507 282 493 327 c 0
 475 380 474 381 462 416 c 17
 462 416 487 294 495 241 c 1
 493 187 487 188 476 125 c 1
 467 212 458 270 442 331 c 0
 425 397 424 409 412 459 c 25
 334 383 l 1
 392 521 l 1
 327 479 l 1
 406 626 l 1
743 666 m 1
 783 683 l 1
 766 643 l 1
 726 626 l 1
 743 666 l 1
234 157 m 1
 274 174 l 1
 257 134 l 1
 217 117 l 1
 234 157 l 1
234 643 m 1
 217 683 l 1
 257 666 l 1
 274 626 l 1
 234 643 l 1
743 134 m 1
 726 174 l 1
 766 157 l 1
 783 117 l 1
 743 134 l 1
650 714 m 0
 650 702 640 694 630 694 c 0
 618 694 610 704 610 714 c 0
 610 726 620 734 630 734 c 0
 642 734 650 724 650 714 c 0
390 86 m 0
 390 74 380 66 370 66 c 0
 358 66 350 76 350 86 c 0
 350 98 360 106 370 106 c 0
 382 106 390 96 390 86 c 0
834 270 m 0
 834 258 824 250 814 250 c 0
 802 250 794 260 794 270 c 0
 794 282 804 290 814 290 c 0
 826 290 834 280 834 270 c 0
206 530 m 0
 206 518 196 510 186 510 c 0
 174 510 166 520 166 530 c 0
 166 542 176 550 186 550 c 0
 198 550 206 540 206 530 c 0
370 734 m 0
 380 734 390 726 390 714 c 0
 390 704 382 694 370 694 c 0
 360 694 350 702 350 714 c 0
 350 724 358 734 370 734 c 0
630 106 m 0
 640 106 650 98 650 86 c 0
 650 76 642 66 630 66 c 0
 620 66 610 74 610 86 c 0
 610 96 618 106 630 106 c 0
814 550 m 0
 824 550 834 542 834 530 c 0
 834 520 826 510 814 510 c 0
 804 510 794 518 794 530 c 0
 794 540 802 550 814 550 c 0
186 290 m 0
 196 290 206 282 206 270 c 0
 206 260 198 250 186 250 c 0
 176 250 166 258 166 270 c 0
 166 280 174 290 186 290 c 0
498 109 m 0
 513 109 527 106 535 104 c 1
 535 81 l 1
 520 88 509 89 502 89 c 0
 492 89 483 87 483 78 c 0
 483 72 488 70 498 68 c 2
 509 65 l 2
 531 61 541 53 541 34 c 0
 541 10 526 0 500 0 c 0
 488 0 475 2 459 8 c 1
 459 30 l 1
 467 26 474 24 479 22 c 0
 488 20 495 20 497 20 c 0
 513 20 515 26 515 31 c 0
 515 38 510 41 499 43 c 2
 489 46 l 2
 471 50 459 58 459 76 c 0
 459 99 474 109 498 109 c 0
100 452 m 1
 126 452 l 1
 144 376 l 1
 162 452 l 1
 188 452 l 1
 206 376 l 1
 224 452 l 1
 250 452 l 1
 225 348 l 1
 194 348 l 1
 175 427 l 1
 156 348 l 1
 125 348 l 1
 100 452 l 1
453 800 m 5
 483 800 l 5
 521 728 l 5
 521 800 l 5
 547 800 l 5
 547 695 l 5
 517 695 l 5
 479 767 l 5
 479 695 l 5
 453 695 l 5
 453 800 l 5
825 452 m 1
 898 452 l 1
 898 432 l 1
 852 432 l 1
 852 412 l 1
 896 412 l 1
 896 392 l 1
 852 392 l 1
 852 368 l 1
 900 368 l 1
 900 348 l 1
 825 348 l 1
 825 452 l 1
EndSplineSet
Validated: 1
EndChar
